{
.appVersion = "3133";
.formatVersion = 3;
axes = (
{
name = wght;
tag = wght;
}
);
customParameters = (
{
name = "Write lastChange";
value = 0;
},
{
name = "Use Typo Metrics";
value = 1;
},
{
name = fsType;
value = (
);
}
);
date = "2022-02-21 08:08:28 +0000";
familyName = "Edu QLD Beginners";
featurePrefixes = (
{
automatic = 1;
code = "languagesystem DFLT dflt;
";
name = Languagesystems;
}
);
features = (
{
automatic = 1;
code = "feature c2sc;
feature smcp;
";
tag = aalt;
},
{
automatic = 1;
code = "sub A by a.sc;
sub B by b.sc;
sub C by c.sc;
sub D by d.sc;
sub E by e.sc;
sub F by f.sc;
sub G by g.sc;
sub H by h.sc;
sub I by i.sc;
sub J by j.sc;
sub K by k.sc;
sub L by l.sc;
sub M by m.sc;
sub N by n.sc;
sub O by o.sc;
sub P by p.sc;
sub Q by q.sc;
sub R by r.sc;
sub S by s.sc;
sub T by t.sc;
sub U by u.sc;
sub V by v.sc;
sub W by w.sc;
sub X by x.sc;
sub Y by y.sc;
sub Z by z.sc;
sub zero by zero.sc;
sub one by one.sc;
sub two by two.sc;
sub three by three.sc;
sub four by four.sc;
sub five by five.sc;
sub six by six.sc;
sub seven by seven.sc;
sub eight by eight.sc;
sub nine by nine.sc;
sub exclam by exclam.sc;
sub exclamdown by exclamdown.sc;
sub question by question.sc;
sub questiondown by questiondown.sc;
";
tag = c2sc;
},
{
automatic = 1;
code = "sub a by a.sc;
sub b by b.sc;
sub c by c.sc;
sub d by d.sc;
sub e by e.sc;
sub f by f.sc;
sub g by g.sc;
sub h by h.sc;
sub i by i.sc;
sub j by j.sc;
sub k by k.sc;
sub l by l.sc;
sub m by m.sc;
sub n by n.sc;
sub o by o.sc;
sub p by p.sc;
sub q by q.sc;
sub r by r.sc;
sub s by s.sc;
sub t by t.sc;
sub u by u.sc;
sub v by v.sc;
sub w by w.sc;
sub x by x.sc;
sub y by y.sc;
sub z by z.sc;
sub zero by zero.sc;
sub one by one.sc;
sub two by two.sc;
sub three by three.sc;
sub four by four.sc;
sub five by five.sc;
sub six by six.sc;
sub seven by seven.sc;
sub eight by eight.sc;
sub nine by nine.sc;
sub exclamdown by exclamdown.sc;
sub questiondown by questiondown.sc;
sub exclam by exclam.sc;
sub question by question.sc;

glyphs = (
{
color = 6;
glyphname = A;
layers = (
{
layerId = m01;
shapes = (
{
closed = 1;
nodes = (
(23,0,o),
(29,8,o),
(39,30,cs),
(330,599,l),
(391,735,l),
(409,743,l),
(413,758,o),
(404,772,o),
(381,772,cs),
(355,772,o),
(354,759,o),
(346,743,cs),
(-21,38,ls),
(-33,14,o),
(-19,0,o),
(-1,0,cs)
);
},
{
closed = 1;
nodes = (
(415,361,l),
(409,412,l),
(208,412,l),
(182,361,l)
);
},
{
closed = 1;
nodes = (
(466,0,o),
(473,13,o),
(472,31,cs),
(410,750,l),
(368,728,l),
(368,594,l),
(413,29,ls),
(415,17,o),
(418,0,o),
(444,0,c)
);
}
);
vertWidth = 0;
width = 569;
},
{
layerId = m002;
shapes = (
{
closed = 1;
nodes = (
(69,0,o),
(87,10,o),
(102,39,cs),
(353,533,l),
(425,716,l),
(479,716,l),
(475,753,o),
(449,772,o),
(412,772,cs),
(373,772,o),
(349,754,o),
(337,732,cs),
(-7,71,ls),
(-30,29,o),
(1,0,o),
(37,0,cs)
);
},
{
closed = 1;
nodes = (
(456,290,l),
(447,391,l),
(211,391,l),
(160,290,l)
);
},
{
closed = 1;
nodes = (
(516,0,o),
(539,18,o),
(536,55,cs),
(479,716,l),
(391,716,l),
(384,532,l),
(424,48,ls),
(426,19,o),
(446,0,o),
(482,0,cs)
);
}
);
vertWidth = 0;
width = 630;
},
{
associatedMasterId = m01;
layerId = "48DF87F4-C72F-4FC9-8329-4E8255600EC0";
name = background;
shapes = (
{
closed = 1;
nodes = (
(409,743,l),
(413,758,o),
(404,772,o),
(381,772,cs),
(355,772,o),
(354,759,o),
(346,743,cs),
(-21,38,ls),
(-33,14,o),
(-19,0,o),
(-1,0,cs),
(23,0,o),
(29,8,o),
(39,30,cs),
(406,735,l)
);
},
{
closed = 1;
nodes = (
(415,361,l),
(409,416,l),
(208,416,l),
(182,361,l)
);
},
{
closed = 1;
nodes = (
(354,728,l),
(413,29,ls),
(415,17,o),
(418,0,o),
(444,0,c),
(466,0,o),
(473,13,o),
(472,31,cs),
(410,754,l)
);
}
);
vertWidth = 0;
width = 594;
}
);
unicode = 65;
},
{
color = 6;
glyphname = B;
kernLeft = H_left;
layers = (
{
layerId = m01;
shapes = (
{
closed = 1;
nodes = (
(552,707,o),
(430,772,o),
(175,772,c),
(185,718,l),
(373,718,o),
(487,677,o),
(474,569,cs),
(462,474,o),
(419,426,o),
(133,426,c),
(124,388,l),
(454,388,o),
(517,443,o),
(533,567,cs)
);
},
{
closed = 1;
nodes = (
(510,331,o),
(378,426,o),
(128,426,c),
(124,380,l),
(349,380,o),
(444,295,o),
(431,201,cs),
(416,84,o),
(285,55,o),
(69,55,c),
(39,0,l),
(374,0,o),
(470,63,o),
(489,194,cs)
);
},
{
closed = 1;
nodes = (
(13,17,o),
(25,0,o),
(45,0,c),
(76,34,l),
(200,735,l),
(175,772,l),
(154,772,o),
(145,764,o),
(140,740,cs),
(17,37,ls)
);
}
);
vertWidth = 0;
width = 565;
},
{
layerId = m002;
shapes = (
{
closed = 1;
nodes = (
(657,709,o),
(511,772,o),
(206,772,c),
(185,665,l),
(460,665,o),
(526,628,o),
(517,555,cs),
(508,491,o),
(487,425,o),
(197,425,c),
(182,329,l),
(538,329,o),
(617,409,o),
(636,549,cs)
);
},
{
closed = 1;
nodes = (
(593,347,o),
(413,425,o),
(191,425,c),
(175,329,l),
(385,329,o),
(465,286,o),
(453,200,cs),
(443,131,o),
(359,107,o),
(100,107,c),
(82,0,l),
(430,0,o),
(550,31,o),
(570,179,cs)
);
},
{
closed = 1;
nodes = (
(25,27,o),
(51,0,o),
(82,0,c),
(150,52,l),
(266,712,l),
(206,772,l),
(178,772,o),
(154,763,o),
(147,723,cs),
(31,63,ls)
);
}
);
vertWidth = 0;
width = 670;
},
{
associatedMasterId = m01;
layerId = "C390BF64-4B74-44D2-936D-D44319E19B75";
name = background;
shapes = (
{
closed = 1;
nodes = (
(472,361,o),
(539,436,o),
(557,564,cs),
(576,704,o),
(430,772,o),
(175,772,c),
(185,718,l),
(373,718,o),
(512,675,o),
(498,567,cs),
(486,481,o),
(438,416,o),
(133,416,c),
(124,361,l)
);
},
{
closed = 1;
nodes = (
(373,0,o),
(470,42,o),
(488,171,cs),
(508,321,o),
(366,416,o),
(128,416,c),
(120,361,l),
(334,361,o),
(444,284,o),
(430,179,cs),
(416,74,o),
(285,55,o),
(69,55,c),
(39,0,l)
);
},
{
closed = 1;
nodes = (
(204,762,o),
(197,772,o),
(175,772,cs),
(154,772,o),
(145,764,o),
(140,740,cs),
(17,37,ls),
(13,17,o),
(25,0,o),
(45,0,cs),
(62,0,o),
(71,11,o),
(76,34,cs),
(200,735,ls)
);
}
);
vertWidth = 0;
width = 594;
}
);
unicode = 66;
},
{
color = 6;
glyphname = C;
kernLeft = O_left;
layers = (
{
layerId = m01;
shapes = (
{
closed = 1;
nodes = (
(297,-5,o),
(387,55,o),
(485,201,cs),
(510,238,o),
(511,245,o),
(511,252,cs),
(511,266,o),
(499,276,o),
(485,276,cs),
(466,276,o),
(456,265,o),
(436,235,cs),
(343,103,o),
(274,55,o),
(201,55,cs),
(126,55,o),
(109,118,o),
(109,163,cs),
(109,249,o),
(133,368,o),
(141,415,cs),
(169,556,o),
(211,713,o),
(493,713,cs),
(568,713,o),
(575,714,o),
(587,721,cs),
(600,728,o),
(602,754,o),
(589,763,cs),
(579,770,o),
(568,772,o),
(494,772,cs),
(170,772,o),
(112,592,o),
(78,402,cs),
(74,378,o),
(50,241,o),
(50,164,cs),
(50,83,o),
(86,-5,o),
(202,-5,cs)
);
}
);
vertWidth = 0;
width = 573;
},
{
layerId = m002;
shapes = (
{
closed = 1;
nodes = (
(334,-5,o),
(446,56,o),
(541,197,cs),
(569,239,o),
(570,249,o),
(570,260,cs),
(570,289,o),
(544,308,o),
(516,308,cs),
(488,308,o),
(473,295,o),
(447,259,cs),
(362,137,o),
(298,101,o),
(239,101,cs),
(196,101,o),
(170,134,o),
(170,176,cs),
(170,254,o),
(191,366,o),
(198,407,cs),
(223,539,o),
(272,666,o),
(514,666,cs),
(580,666,o),
(611,669,o),
(627,678,cs),
(658,697,o),
(661,740,o),
(631,762,cs),
(615,772,o),
(582,772,o),
(516,772,cs),
(188,772,o),
(109,587,o),
(77,405,cs),
(72,381,o),
(51,252,o),
(51,177,cs),
(51,95,o),
(97,-5,o),
(232,-5,cs)
);
}
);
vertWidth = 0;
width = 647;
}
);
unicode = 67;
},
{
color = 6;
glyphname = D;
kernLeft = H_left;
kernRight = O_right;
layers = (
{
layerId = m01;
shapes = (
{
closed = 1;
nodes = (
(573,645,o),
(437,772,o),
(217,772,cs),
(176,772,l),
(168,709,l),
(220,709,ls),
(402,709,o),
(505,608,o),
(482,417,cs),
(454,177,o),
(311,55,o),
(119,55,cs),
(56,55,l),
(44,0,l),
(119,0,ls),
(347,0,o),
(507,145,o),
(542,409,cs)
);
},
{
closed = 1;
nodes = (
(12,14,o),
(21,0,o),
(43,0,cs),
(69,0,o),
(74,18,o),
(76,30,cs),
(200,735,ls),
(203,757,o),
(201,772,o),
(176,772,cs),
(150,772,o),
(144,759,o),
(140,740,cs),
(15,32,ls)
);
}
);
vertWidth = 0;
width = 594;
},
{
layerId = m002;
shapes = (
{
closed = 1;
nodes = (
(640,621,o),
(497,772,o),
(268,772,cs),
(209,772,l),
(200,666,l),
(274,666,ls),
(438,666,o),
(517,562,o),
(498,416,cs),
(470,210,o),
(347,106,o),
(177,106,cs),
(106,106,l),
(84,0,l),
(177,0,ls),
(406,0,o),
(577,153,o),
(613,417,cs)
);
},
{
closed = 1;
nodes = (
(25,25,o),
(49,0,o),
(87,0,cs),
(119,0,o),
(144,18,o),
(150,49,cs),
(267,713,ls),
(276,762,o),
(244,772,o),
(210,772,cs),
(172,772,o),
(154,756,o),
(149,723,cs),
(31,58,ls)
);
}
);
vertWidth = 0;
width = 672;
}
);
unicode = 68;
},
{
color = 6;
glyphname = E;
kernLeft = H_left;
layers = (
{
layerId = m01;
shapes = (
{
closed = 1;
nodes = (
(12,14,o),
(21,0,o),
(43,0,cs),
(69,0,o),
(74,18,o),
(76,30,c),
(200,735,l),
(203,757,o),
(201,772,o),
(176,772,cs),
(150,772,o),
(144,759,o),
(140,740,c),
(15,32,l)
);
},
{
closed = 1;
nodes = (
(442,43,o),
(435,55,o),
(411,55,cs),
(53,55,l),
(44,0,l),
(411,0,ls),
(435,0,o),
(442,14,o),
(442,29,cs)
);
},
{
closed = 1;
nodes = (
(466,403,o),
(459,416,o),
(435,416,cs),
(110,416,l),
(101,361,l),
(435,361,ls),
(459,361,o),
(466,374,o),
(466,388,cs)
);
},
{
closed = 1;
nodes = (
(563,759,o),
(556,772,o),
(532,772,cs),
(176,772,l),
(168,718,l),
(532,718,ls),
(556,718,o),
(563,731,o),
(563,745,cs)
);
}
);
vertWidth = 0;
width = 518;
},
{
layerId = m002;
shapes = (
{
closed = 1;
nodes = (
(25,26,o),
(39,0,o),
(75,0,cs),
(113,0,o),
(144,21,o),
(149,48,cs),
(265,709,ls),
(273,758,o),
(245,772,o),
(211,772,cs),
(175,772,o),
(154,759,o),
(149,726,cs),
(31,59,ls)
);
},
{
closed = 1;
nodes = (
(546,94,o),
(527,113,o),
(489,113,cs),
(100,113,l),
(83,0,l),
(487,0,ls),
(523,0,o),
(546,23,o),
(546,59,cs)
);
},
{
closed = 1;
nodes = (
(573,404,o),
(550,425,o),
(514,425,cs),
(157,425,l),
(138,316,l),
(508,316,ls),
(546,316,o),
(573,341,o),
(573,371,cs)
);
},
{
closed = 1;
nodes = (
(665,750,o),
(644,772,o),
(607,772,cs),
(220,772,l),
(201,659,l),
(605,659,ls),
(640,659,o),
(665,689,o),
(665,720,cs)
);
}
);
vertWidth = 0;
width = 646;
},
{
associatedMasterId = m01;
layerId = "7D81A9B3-6763-4C6E-8CF8-C1959E1CDD3E";
name = background;
shapes = (
{
closed = 1;
nodes = (
(203,757,o),
(201,772,o),
(176,772,cs),
(150,772,o),
(144,759,o),
(140,740,c),
(15,32,l),
(12,14,o),
(21,0,o),
(43,0,cs),
(69,0,o),
(74,18,o),
(76,30,c),
(200,735,l)
);
},
{
closed = 1;
nodes = (
(441,0,ls),
(465,0,o),
(472,17,o),
(472,31,cs),
(472,45,o),
(465,59,o),
(441,59,cs),
(53,59,l),
(44,0,l)
);
},
{
closed = 1;
nodes = (
(472,361,ls),
(495,361,o),
(503,374,o),
(503,388,cs),
(503,403,o),
(495,416,o),
(472,416,cs),
(110,416,l),
(101,361,l)
);
},
{
closed = 1;
nodes = (
(569,713,ls),
(593,713,o),
(600,728,o),
(600,743,cs),
(600,757,o),
(593,772,o),
(569,772,cs),
(181,772,l),
(170,713,l)
);
}
);
vertWidth = 0;
width = 594;
},
{
associatedMasterId = m002;
layerId = "BD7EF2B7-F3AE-423E-98C0-14594FE969C3";
name = background;
shapes = (
{
closed = 1;
nodes = (
(25,26,o),
(39,0,o),
(75,0,cs),
(113,0,o),
(146,21,o),
(151,48,cs),
(267,709,ls),
(276,758,o),
(245,772,o),
(211,772,cs),
(175,772,o),
(154,759,o),
(149,726,cs),
(31,59,ls)
);
},
{
closed = 1;
nodes = (
(546,78,o),
(527,95,o),
(489,95,cs),
(100,95,l),
(83,0,l),
(487,0,ls),
(523,0,o),
(546,19,o),
(546,50,cs)
);
},
{
closed = 1;
nodes = (
(573,397,o),
(550,416,o),
(514,416,cs),
(157,416,l),
(138,315,l),
(508,315,ls),
(546,315,o),
(573,337,o),
(573,366,cs)
);
},
{
closed = 1;
nodes = (
(665,750,o),
(644,772,o),
(607,772,cs),
(220,772,l),
(201,659,l),
(605,659,ls),
(640,659,o),
(665,689,o),
(665,720,cs)
);
}
);
vertWidth = 0;
width = 594;
}
);
unicode = 69;
},
{
color = 6;
glyphname = F;
kernLeft = H_left;
layers = (
{
layerId = m01;
shapes = (
{
closed = 1;
nodes = (
(12,14,o),
(21,0,o),
(43,0,cs),
(69,0,o),
(74,18,o),
(76,30,cs),
(200,735,ls),
(203,757,o),
(201,772,o),
(176,772,cs),
(150,772,o),
(144,759,o),
(140,740,cs),
(15,32,ls)
);
},
{
closed = 1;
nodes = (
(461,403,o),
(454,416,o),
(430,416,cs),
(119,416,l),
(110,361,l),
(430,361,ls),
(454,361,o),
(461,374,o),
(461,388,cs)
);
},
{
closed = 1;
nodes = (
(550,759,o),
(543,772,o),
(519,772,cs),
(176,772,l),
(168,718,l),
(519,718,ls),
(543,718,o),
(550,731,o),
(550,745,cs)
);
}
);
vertWidth = 0;
width = 500;
},
{
layerId = m002;
shapes = (
{
closed = 1;
nodes = (
(26,32,o),
(36,0,o),
(74,0,cs),
(119,0,o),
(145,25,o),
(151,61,cs),
(265,709,ls),
(273,758,o),
(242,772,o),
(209,772,cs),
(172,772,o),
(154,758,o),
(149,725,cs),
(32,64,ls)
);
},
{
closed = 1;
nodes = (
(561,397,o),
(543,423,o),
(505,423,cs),
(153,423,l),
(134,315,l),
(503,315,ls),
(541,315,o),
(561,337,o),
(561,366,cs)
);
},
{
closed = 1;
nodes = (
(653,751,o),
(632,772,o),
(595,772,cs),
(209,772,l),
(187,659,l),
(589,659,ls),
(625,659,o),
(653,683,o),
(653,718,cs)
);
}
);
vertWidth = 0;
width = 634;
},
{
associatedMasterId = m01;
layerId = "F9C33966-9A92-4AEC-87C7-153E19327B3B";
name = background;
shapes = (
{
closed = 1;
nodes = (
(203,757,o),
(201,772,o),
(176,772,cs),
(150,772,o),
(144,759,o),
(140,740,cs),
(15,32,ls),
(12,14,o),
(21,0,o),
(43,0,cs),
(69,0,o),
(74,18,o),
(76,30,cs),
(200,735,ls)
);
},
{
closed = 1;
nodes = (
(470,361,ls),
(494,361,o),
(501,374,o),
(501,388,cs),
(501,403,o),
(494,416,o),
(470,416,cs),
(119,416,l),
(110,361,l)
);
},
{
closed = 1;
nodes = (
(569,713,ls),
(593,713,o),
(600,728,o),
(600,743,cs),
(600,757,o),
(593,772,o),
(569,772,cs),
(177,772,l),
(169,713,l)
);
}
);
vertWidth = 0;
width = 594;
}
);
unicode = 70;
},
{
color = 6;
glyphname = G;
kernLeft = O_left;
layers = (
{
layerId = m01;
shapes = (
{
closed = 1;
nodes = (
(271,-5,o),
(388,159,o),
(498,327,c),
(512,416,l),
(484,416,o),
(480,407,o),
(411,303,cs),
(367,236,o),
(245,50,o),
(163,50,cs),
(120,50,o),
(109,106,o),
(109,160,cs),
(109,238,o),
(131,368,o),
(144,432,cs),
(169,556,o),
(220,718,o),
(501,718,cs),
(568,718,ls),
(586,718,o),
(598,729,o),
(598,745,cs),
(598,759,o),
(587,772,o),
(573,772,cs),
(503,772,ls),
(178,772,o),
(112,592,o),
(78,402,cs),
(74,378,o),
(50,241,o),
(50,166,cs),
(50,83,o),
(80,-5,o),
(159,-5,cs)
);
},
{
closed = 1;
nodes = (
(465,-1,o),
(470,19,o),
(473,32,cs),
(535,384,ls),
(538,404,o),
(533,416,o),
(513,416,c),
(489,416,o),
(478,406,o),
(474,384,cs),
(412,32,ls),
(410,18,o),
(413,1,o),
(437,0,cs)
);
}
);
vertWidth = 0;
width = 598;
},
{
layerId = m002;
shapes = (
{
closed = 1;
nodes = (
(307,-5,o),
(424,182,o),
(508,315,c),
(520,440,l),
(475,440,o),
(468,429,o),
(399,322,cs),
(358,258,o),
(254,101,o),
(194,101,cs),
(175,101,o),
(168,135,o),
(168,184,cs),
(168,254,o),
(189,361,o),
(200,421,cs),
(220,535,o),
(266,666,o),
(508,666,cs),
(571,666,ls),
(604,666,o),
(628,691,o),
(628,721,cs),
(628,750,o),
(605,772,o),
(575,772,cs),
(510,772,ls),
(182,772,o),
(109,587,o),
(77,405,cs),
(72,381,o),
(51,252,o),
(51,179,cs),
(51,94,o),
(80,-5,o),
(179,-5,cs)
);
},
{
closed = 1;
nodes = (
(495,0,o),
(506,21,o),
(511,50,cs),
(569,380,ls),
(575,417,o),
(556,440,o),
(519,440,cs),
(473,440,o),
(457,407,o),
(454,388,cs),
(396,58,ls),
(390,21,o),
(413,0,o),
(454,0,cs)
);
}
);
vertWidth = 0;
width = 624;
}
);
unicode = 71;
},
{
color = 6;
glyphname = H;
kernLeft = H_left;
kernRight = H_right;
layers = (
{
layerId = m01;
shapes = (
{
closed = 1;
nodes = (
(69,0,o),
(74,18,o),
(76,30,cs),
(200,735,ls),
(203,757,o),
(196,772,o),
(176,772,cs),
(153,772,o),
(144,759,o),
(140,740,cs),
(15,32,ls),
(12,14,o),
(21,0,o),
(43,0,cs)
);
},
{
closed = 1;
nodes = (
(506,361,l),
(516,416,l),
(119,416,l),
(109,361,l)
);
},
{
closed = 1;
nodes = (
(465,0,o),
(472,15,o),
(474,26,cs),
(599,738,ls),
(602,758,o),
(595,772,o),
(571,772,cs),
(550,772,o),
(542,758,o),
(539,746,cs),
(415,32,ls),
(412,18,o),
(415,0,o),
(442,0,cs)
);
}
);
vertWidth = 0;
width = 614;
},
{
layerId = m002;
shapes = (
{
closed = 1;
nodes = (
(127,0,o),
(146,24,o),
(150,48,cs),
(265,709,ls),
(272,751,o),
(251,772,o),
(216,772,cs),
(184,772,o),
(153,757,o),
(147,723,cs),
(31,58,ls),
(25,25,o),
(49,0,o),
(87,0,cs)
);
},
{
closed = 1;
nodes = (
(537,326,l),
(555,432,l),
(162,432,l),
(144,326,l)
);
},
{
closed = 1;
nodes = (
(517,0,o),
(542,20,o),
(546,44,cs),
(663,712,ls),
(670,750,o),
(645,772,o),
(608,772,cs),
(575,772,o),
(550,754,o),
(545,728,cs),
(429,58,ls),
(423,24,o),
(443,0,o),
(482,0,cs)
);
}
);
vertWidth = 0;
width = 694;
}
);
unicode = 72;
},
{
color = 6;
glyphname = I;
layers = (
{
layerId = m01;
shapes = (
{
closed = 1;
nodes = (
(132,30,l),
(255,737,l),
(195,737,l),
(71,30,l)
);
},
{
closed = 1;
nodes = (
(15,13,o),
(23,0,o),
(46,0,cs),
(152,0,ls),
(176,0,o),
(183,13,o),
(183,27,cs),
(183,42,o),
(176,55,o),
(152,55,cs),
(46,55,ls),
(23,55,o),
(15,42,o),
(15,27,cs)
);
},
{
closed = 1;
nodes = (
(144,732,o),
(151,718,o),
(175,718,cs),
(280,718,ls),
(304,718,o),
(311,732,o),
(311,746,cs),
(311,760,o),
(304,772,o),
(280,772,cs),
(175,772,ls),
(151,772,o),
(144,760,o),
(144,746,cs)
);
}
);
vertWidth = 0;
width = 317;
},
{
layerId = m002;
shapes = (
{
closed = 1;
nodes = (
(203,77,l),
(309,694,l),
(189,694,l),
(83,77,l)
);
},
{
closed = 1;
nodes = (
(24,18,o),
(43,0,o),
(72,0,cs),
(189,0,ls),
(228,0,o),
(241,18,o),
(246,46,cs),
(251,75,o),
(235,93,o),
(206,93,cs),
(89,93,ls),
(51,93,o),
(33,75,o),
(29,46,cs)
);
},
{
closed = 1;
nodes = (
(145,699,o),
(164,677,o),
(191,677,cs),
(308,677,ls),
(346,677,o),
(362,699,o),
(367,727,cs),
(372,756,o),
(352,772,o),
(324,772,cs),
(208,772,ls),
(171,772,o),
(154,756,o),
(150,727,cs)
);
}
);
vertWidth = 0;
width = 387;
}
);
unicode = 73;
},
{
color = 6;
glyphname = J;
kernRight = H_right;
layers = (
{
background = {
shapes = (
{
closed = 1;
nodes = (
(360,738,l),
(292,358,ls),
(278,276,o),
(270,189,o),
(235,132,cs),
(214,95,o),
(181,70,o),
(132,64,cs),
(100,61,o),
(17,55,o),
(-12,55,cs),
(-26,55,o),
(-42,45,o),
(-42,29,cs),
(-42,11,o),
(-26,0,o),
(-12,0,cs),
(25,0,o),
(105,6,o),
(127,8,cs),
(210,19,o),
(254,55,o),
(284,102,cs),
(324,166,o),
(334,251,o),
(352,352,cs),
(421,738,l)
);
},
{
closed = 1;
nodes = (
(571,713,o),
(579,728,o),
(579,743,cs),
(579,757,o),
(571,772,o),
(548,772,cs),
(234,772,ls),
(210,772,o),
(203,757,o),
(203,743,cs),
(203,728,o),
(210,713,o),
(234,713,cs),
(548,713,ls)
);
}
);
};
layerId = m01;
shapes = (
{
closed = 1;
nodes = (
(-53,11,o),
(-38,0,o),
(-24,0,cs),
(13,0,o),
(81,1,o),
(103,4,cs),
(236,20,o),
(283,100,o),
(320,305,cs),
(397,738,l),
(336,738,l),
(263,322,ls),
(234,160,o),
(206,69,o),
(99,58,cs),
(68,55,o),
(5,55,o),
(-24,55,cs),
(-38,55,o),
(-53,45,o),
(-53,29,cs)
);
},
{
closed = 1;
nodes = (
(179,731,o),
(187,718,o),
(210,718,cs),
(524,718,ls),
(548,718,o),
(555,731,o),
(555,745,cs),
(555,759,o),
(548,772,o),
(524,772,cs),
(210,772,ls),
(187,772,o),
(179,759,o),
(179,745,cs)
);
}
);
vertWidth = 0;
width = 494;
},
{
layerId = m002;
shapes = (
{
closed = 1;
nodes = (
(-49,21,o),
(-19,0,o),
(10,0,cs),
(45,0,o),
(135,2,o),
(157,5,cs),
(311,23,o),
(365,146,o),
(400,349,cs),
(463,709,l),
(342,709,l),
(283,364,ls),
(252,183,o),
(217,120,o),
(154,113,cs),
(126,109,o),
(34,107,o),
(10,107,cs),
(-19,107,o),
(-49,84,o),
(-49,53,cs)
);
},
{
closed = 1;
nodes = (
(177,682,o),
(200,659,o),
(235,659,cs),
(577,659,ls),
(615,659,o),
(637,684,o),
(637,715,cs),
(637,748,o),
(614,772,o),
(579,772,cs),
(236,772,ls),
(200,772,o),
(177,747,o),
(177,715,cs)
);
}
);
vertWidth = 0;
width = 582;
},
{
associatedMasterId = m01;
layerId = "06052F2C-BE0F-40BC-8081-A274CED33EF8";
name = background;
shapes = (
{
closed = 1;
nodes = (
(444,738,l),
(377,358,ls),
(362,276,o),
(352,191,o),
(317,134,cs),
(296,97,o),
(265,70,o),
(216,64,cs),
(184,61,o),
(74,55,o),
(45,55,cs),
(31,55,o),
(15,45,o),
(15,29,cs),
(15,11,o),
(31,0,o),
(45,0,cs),
(82,0,o),
(189,6,o),
(211,8,cs),
(295,19,o),
(339,55,o),
(368,102,cs),
(409,166,o),
(418,251,o),
(436,352,cs),
(505,738,l)
);
},
{
closed = 1;
nodes = (
(680,713,o),
(687,728,o),
(687,743,cs),
(687,757,o),
(680,772,o),
(656,772,cs),
(295,772,ls),
(271,772,o),
(264,757,o),
(264,743,cs),
(264,728,o),
(271,713,o),
(295,713,cs),
(656,713,ls)
);
}
);
vertWidth = 0;
width = 594;
},
{
associatedMasterId = m002;
layerId = "F37B6A25-0192-483E-B22B-1CA87C39BAD9";
name = background;
shapes = (
{
closed = 1;
nodes = (
(-88,21,o),
(-58,0,o),
(-30,0,cs),
(6,0,o),
(96,2,o),
(118,5,cs),
(208,17,o),
(257,57,o),
(287,105,cs),
(328,172,o),
(345,255,o),
(361,349,cs),
(424,709,l),
(303,709,l),
(244,364,ls),
(230,286,o),
(217,211,o),
(188,163,cs),
(170,132,o),
(152,118,o),
(115,113,cs),
(87,109,o),
(-5,107,o),
(-30,107,cs),
(-58,107,o),
(-88,84,o),
(-88,53,cs)
);
},
{
closed = 1;
nodes = (
(138,682,o),
(160,659,o),
(196,659,cs),
(538,659,ls),
(576,659,o),
(598,684,o),
(598,715,cs),
(598,748,o),
(575,772,o),
(539,772,cs),
(197,772,ls),
(160,772,o),
(138,747,o),
(138,715,cs)
);
}
);
vertWidth = 0;
width = 594;
}
);
unicode = 74;
},
{
color = 6;
glyphname = K;
kernLeft = H_left;
layers = (
{
layerId = m01;
shapes = (
{
closed = 1;
nodes = (
(568,758,o),
(560,772,o),
(543,772,cs),
(531,772,o),
(517,765,o),
(506,754,cs),
(194,469,l),
(140,425,l),
(140,413,l),
(203,410,l),
(544,712,ls),
(558,723,o),
(568,735,o),
(568,746,cs)
);
},
{
closed = 1;
nodes = (
(457,0,o),
(469,7,o),
(473,20,cs),
(475,29,o),
(473,38,o),
(465,50,cs),
(207,421,l),
(140,423,l),
(141,410,l),
(183,350,l),
(411,23,ls),
(419,11,o),
(430,0,o),
(446,0,cs)
);
},
{
closed = 1;
nodes = (
(69,0,o),
(75,21,o),
(77,37,cs),
(201,735,ls),
(204,757,o),
(200,772,o),
(177,772,cs),
(153,772,o),
(145,759,o),
(141,740,cs),
(17,38,ls),
(13,20,o),
(23,0,o),
(44,0,cs)
);
}
);
vertWidth = 0;
width = 535;
},
{
layerId = m002;
shapes = (
{
closed = 1;
nodes = (
(638,745,o),
(620,772,o),
(586,772,cs),
(567,772,o),
(543,766,o),
(524,750,cs),
(276,530,l),
(170,425,l),
(170,387,l),
(268,378,l),
(605,668,ls),
(621,682,o),
(632,700,o),
(634,718,cs)
);
},
{
closed = 1;
nodes = (
(510,0,o),
(537,12,o),
(542,37,cs),
(545,52,o),
(544,71,o),
(532,88,cs),
(289,437,l),
(170,454,l),
(169,413,l),
(225,322,l),
(428,30,ls),
(441,11,o),
(463,0,o),
(486,0,cs)
);
},
{
closed = 1;
nodes = (
(126,0,o),
(145,23,o),
(151,53,cs),
(267,709,ls),
(276,756,o),
(244,772,o),
(215,772,cs),
(184,772,o),
(156,757,o),
(150,723,cs),
(32,64,ls),
(26,29,o),
(51,0,o),
(89,0,cs)
);
}
);
vertWidth = 0;
width = 631;
},
{
associatedMasterId = m01;
layerId = "E010F034-4598-4FE9-A40B-8BF5FC7CFE65";
name = background;
shapes = (
{
closed = 1;
nodes = (
(579,712,ls),
(593,723,o),
(599,735,o),
(601,746,cs),
(602,760,o),
(593,772,o),
(577,772,cs),
(568,773,o),
(555,769,o),
(541,757,cs),
(140,428,l),
(140,413,l),
(209,407,l)
);
},
{
closed = 1;
nodes = (
(140,423,l),
(141,410,l),
(411,23,ls),
(419,11,o),
(430,0,o),
(446,0,cs),
(457,0,o),
(469,7,o),
(473,20,cs),
(475,29,o),
(473,38,o),
(465,50,cs),
(207,421,l)
);
},
{
closed = 1;
nodes = (
(204,757,o),
(200,772,o),
(177,772,cs),
(153,772,o),
(145,759,o),
(141,740,cs),
(17,38,ls),
(13,20,o),
(23,0,o),
(44,0,cs),
(69,0,o),
(75,21,o),
(77,37,cs),
(201,735,ls)
);
}
);
vertWidth = 0;
width = 594;
}
);
unicode = 75;
},
{
color = 6;
glyphname = L;
kernLeft = H_left;
layers = (
{
layerId = m01;
shapes = (
{
closed = 1;
nodes = (
(12,14,o),
(21,0,o),
(43,0,cs),
(69,0,o),
(72,18,o),
(75,30,cs),
(200,735,ls),
(203,757,o),
(200,772,o),
(176,772,cs),
(152,772,o),
(144,759,o),
(140,740,cs),
(15,32,ls)
);
},
{
closed = 1;
nodes = (
(426,43,o),
(417,55,o),
(396,55,cs),
(43,55,l),
(43,0,l),
(396,0,ls),
(417,0,o),
(426,14,o),
(426,29,cs)
);
}
);
vertWidth = 0;
width = 470;
},
{
layerId = m002;
shapes = (
{
closed = 1;
nodes = (
(25,25,o),
(46,0,o),
(82,0,cs),
(122,0,o),
(145,21,o),
(150,46,cs),
(267,709,ls),
(276,759,o),
(247,772,o),
(217,772,cs),
(183,772,o),
(154,757,o),
(149,723,cs),
(31,58,ls)
);
},
{
closed = 1;
nodes = (
(552,83,o),
(529,107,o),
(493,107,cs),
(102,107,l),
(83,0,l),
(493,0,ls),
(529,0,o),
(552,26,o),
(552,55,cs)
);
}
);
vertWidth = 0;
width = 607;
}
);
unicode = 76;
},
{
color = 6;
glyphname = M;
kernLeft = H_left;
kernRight = H_right;
layers = (
{
layerId = m01;
shapes = (
{
closed = 1;
nodes = (
(14,0,o),
(29,8,o),
(39,30,cs),
(330,606,l),
(369,704,l),
(369,772,l),
(348,772,o),
(343,759,o),
(335,743,cs),
(-17,45,ls),
(-24,31,o),
(-26,19,o),
(-21,12,cs),
(-17,5,o),
(-8,0,o),
(1,0,cs)
);
},
{
closed = 1;
nodes = (
(393,17,o),
(398,0,o),
(424,0,c),
(442,72,l),
(438,183,l),
(399,744,ls),
(398,759,o),
(390,772,o),
(368,772,c),
(352,694,l),
(352,601,l),
(392,42,ls)
);
},
{
closed = 1;
nodes = (
(752,607,l),
(798,699,l),
(792,772,l),
(775,772,o),
(767,754,o),
(760,741,cs),
(476,177,l),
(430,72,l),
(424,0,l),
(448,0,o),
(457,20,o),
(467,38,cs)
);
},
{
closed = 1;
nodes = (
(868,0,o),
(878,13,o),
(877,36,cs),
(830,739,ls),
(829,758,o),
(826,772,o),
(791,772,c),
(778,722,l),
(782,606,l),
(817,33,ls),
(819,17,o),
(824,0,o),
(849,0,cs)
);
}
);
vertWidth = 0;
width = 979;
},
{
layerId = m002;
shapes = (
{
closed = 1;
nodes = (
(38,0,o),
(71,11,o),
(86,39,cs),
(304,466,l),
(393,659,l),
(371,772,l),
(337,772,o),
(327,758,o),
(314,733,cs),
(-25,87,ls),
(-40,56,o),
(-39,40,o),
(-31,25,cs),
(-23,10,o),
(-1,0,o),
(17,0,cs)
);
},
{
closed = 1;
nodes = (
(374,21,o),
(394,0,o),
(431,0,c),
(476,107,l),
(463,329,l),
(431,720,ls),
(429,754,o),
(418,772,o),
(371,772,c),
(333,664,l),
(336,467,l),
(371,59,ls)
);
},
{
closed = 1;
nodes = (
(714,466,l),
(802,672,l),
(798,772,l),
(762,772,o),
(741,758,o),
(727,732,cs),
(511,322,l),
(418,102,l),
(431,0,l),
(478,0,o),
(491,23,o),
(504,49,cs)
);
},
{
closed = 1;
nodes = (
(883,0,o),
(905,24,o),
(902,62,cs),
(848,720,ls),
(846,754,o),
(839,772,o),
(798,772,c),
(745,668,l),
(753,463,l),
(788,55,ls),
(790,23,o),
(811,0,o),
(848,0,cs)
);
}
);
vertWidth = 0;
width = 982;
},
{
associatedMasterId = m01;
layerId = "821342D0-DD98-4007-9C88-2E342CE68D40";
name = background;
shapes = (
{
closed = 1;
nodes = (
(381,772,l),
(360,772,o),
(353,759,o),
(345,743,cs),
(-19,45,ls),
(-26,31,o),
(-26,19,o),
(-21,12,cs),
(-17,5,o),
(-8,0,o),
(1,0,cs),
(14,0,o),
(29,8,o),
(40,30,cs),
(392,704,l)
);
},
{
closed = 1;
nodes = (
(411,750,ls),
(410,759,o),
(402,772,o),
(380,772,c),
(356,694,l),
(410,29,ls),
(411,17,o),
(416,0,o),
(444,0,c),
(466,72,l)
);
},
{
closed = 1;
nodes = (
(466,0,o),
(475,20,o),
(480,29,cs),
(828,696,l),
(816,772,l),
(798,772,o),
(791,754,o),
(784,741,cs),
(436,72,l),
(442,0,l)
);
},
{
closed = 1;
nodes = (
(853,758,o),
(849,772,o),
(815,772,c),
(796,722,l),
(853,29,ls),
(854,17,o),
(860,0,o),
(885,0,c),
(904,0,o),
(914,13,o),
(912,31,cs),
(854,739,ls)
);
}
);
vertWidth = 0;
width = 594;
}
);
unicode = 77;
},
{
color = 6;
glyphname = N;
kernLeft = H_left;
kernRight = H_right;
layers = (
{
layerId = m01;
shapes = (
{
closed = 1;
nodes = (
(418,10,o),
(429,0,o),
(446,0,c),
(440,80,l),
(417,177,l),
(211,748,ls),
(208,759,o),
(197,772,o),
(176,772,c),
(176,701,l),
(197,614,l),
(413,21,ls)
);
},
{
closed = 1;
nodes = (
(69,0,o),
(74,19,o),
(76,33,cs),
(178,613,l),
(190,727,l),
(176,772,l),
(150,772,o),
(144,759,o),
(140,740,cs),
(15,32,ls),
(12,14,o),
(21,0,o),
(43,0,cs)
);
},
{
closed = 1;
nodes = (
(552,772,o),
(544,759,o),
(541,740,cs),
(442,177,l),
(432,57,l),
(444,0,l),
(470,0,o),
(473,18,o),
(475,30,cs),
(599,735,ls),
(602,757,o),
(599,772,o),
(576,772,cs)
);
}
);
vertWidth = 0;
width = 614;
},
{
layerId = m002;
shapes = (
{
closed = 1;
nodes = (
(430,12,o),
(449,0,o),
(480,0,c),
(487,153,l),
(430,316,l),
(259,737,ls),
(249,762,o),
(227,772,o),
(203,772,c),
(169,676,l),
(251,454,l),
(422,33,ls)
);
},
{
closed = 1;
nodes = (
(121,0,o),
(145,23,o),
(150,50,cs),
(221,455,l),
(257,703,l),
(203,772,l),
(173,772,o),
(153,756,o),
(147,723,cs),
(31,58,ls),
(25,25,o),
(48,0,o),
(82,0,cs)
);
},
{
closed = 1;
nodes = (
(567,776,o),
(539,757,o),
(533,723,cs),
(462,317,l),
(432,125,l),
(480,0,l),
(514,0,o),
(529,17,o),
(535,48,cs),
(651,709,ls),
(658,747,o),
(639,776,o),
(600,776,cs)
);
}
);
vertWidth = 0;
width = 682;
}
);
unicode = 78;
},
{
color = 6;
glyphname = O;
kernLeft = O_left;
kernRight = O_right;
layers = (
{
background = {
shapes = (
{
closed = 1;
nodes = (
(372,-13,o),
(532,293,o),
(552,524,cs),
(564,661,o),
(522,781,o),
(353,779,cs),
(207,777,o),
(134,663,o),
(93,485,cs),
(82,436,o),
(74,379,o),
(71,327,cs),
(64,163,o),
(87,-13,o),
(197,-13,cs)
);
},
{
closed = 1;
nodes = (
(131,42,o),
(121,204,o),
(131,314,cs),
(135,365,o),
(143,419,o),
(151,461,cs),
(189,627,o),
(234,720,o),
(349,722,cs),
(484,725,o),
(503,636,o),
(493,517,cs),
(478,321,o),
(321,42,o),
(194,42,cs)
);
}
);
};
layerId = m01;
shapes = (
{
closed = 1;
nodes = (
(381,-13,o),
(544,291,o),
(564,522,cs),
(576,658,o),
(523,782,o),
(354,779,cs),
(211,777,o),
(125,669,o),
(81,487,cs),
(20,236,o),
(61,-13,o),
(194,-13,cs)
);
},
{
closed = 1;
nodes = (
(115,42,o),
(93,264,o),
(138,465,cs),
(175,630,o),
(235,720,o),
(350,722,cs),
(485,725,o),
(514,633,o),
(505,514,cs),
(489,318,o),
(330,42,o),
(198,42,cs)
);
}
);
vertWidth = 0;
width = 590;
},
{
layerId = m002;
shapes = (
{
closed = 1;
nodes = (
(399,-12,o),
(590,291,o),
(613,503,cs),
(627,644,o),
(550,779,o),
(378,779,cs),
(214,779,o),
(140,656,o),
(94,480,cs),
(33,244,o),
(64,-12,o),
(219,-12,cs)
);
},
{
closed = 1;
nodes = (
(172,95,o),
(181,310,o),
(208,442,cs),
(239,592,o),
(272,672,o),
(375,672,cs),
(495,672,o),
(499,568,o),
(493,500,cs),
(475,327,o),
(304,95,o),
(222,95,cs)
);
}
);
vertWidth = 0;
width = 657;
},
{
associatedMasterId = m01;
layerId = "7307B018-DEB8-4492-83DD-A560B2CDD96E";
name = background;
shapes = (
{
closed = 1;
nodes = (
(352,-5,o),
(530,304,o),
(558,520,cs),
(576,655,o),
(539,772,o),
(371,772,cs),
(225,772,o),
(147,662,o),
(97,486,cs),
(84,438,o),
(74,383,o),
(69,330,cs),
(55,170,o),
(69,-5,o),
(179,-5,cs)
);
},
{
closed = 1;
nodes = (
(115,50,o),
(119,211,o),
(127,318,cs),
(132,368,o),
(144,422,o),
(154,461,cs),
(200,625,o),
(249,718,o),
(365,718,cs),
(523,718,o),
(510,588,o),
(499,513,cs),
(473,321,o),
(284,50,o),
(178,50,cs)
);
}
);
vertWidth = 0;
width = 590;
},
{
associatedMasterId = m002;
layerId = "D1F148A5-460D-423B-8A8D-A02342BEA43C";
name = background;
shapes = (
{
closed = 1;
nodes = (
(393,-12,o),
(592,291,o),
(619,503,cs),
(637,644,o),
(563,779,o),
(391,779,cs),
(227,779,o),
(147,652,o),
(100,480,cs),
(87,432,o),
(77,379,o),
(75,329,cs),
(62,171,o),
(70,-12,o),
(213,-12,cs)
);
},
{
closed = 1;
nodes = (
(175,95,o),
(185,215,o),
(192,312,cs),
(195,359,o),
(204,406,o),
(213,442,cs),
(253,593,o),
(283,672,o),
(386,672,cs),
(506,672,o),
(507,568,o),
(499,500,cs),
(478,327,o),
(301,95,o),
(219,95,cs)
);
}
);
vertWidth = 0;
width = 594;
}
);
unicode = 79;
},
{
color = 6;
glyphname = P;
kernLeft = H_left;
layers = (
{
layerId = m01;
shapes = (
{
closed = 1;
nodes = (
(589,720,o),
(429,773,o),
(176,772,c),
(170,718,l),
(421,719,o),
(523,678,o),
(508,571,cs),
(493,456,o),
(341,416,o),
(116,416,c),
(108,361,l),
(369,361,o),
(548,403,o),
(569,565,cs)
);
},
{
closed = 1;
nodes = (
(69,-5,o),
(72,18,o),
(75,30,cs),
(200,735,ls),
(203,757,o),
(201,772,o),
(176,772,cs),
(150,772,o),
(144,759,o),
(140,740,cs),
(15,32,ls),
(12,14,o),
(21,-5,o),
(43,-5,cs)
);
}
);
vertWidth = 0;
width = 555;
},
{
layerId = m002;
shapes = (
{
closed = 1;
nodes = (
(658,715,o),
(506,779,o),
(210,775,c),
(190,668,l),
(460,671,o),
(530,636,o),
(520,561,cs),
(507,454,o),
(342,432,o),
(163,432,c),
(149,326,l),
(377,326,o),
(606,343,o),
(636,555,cs)
);
},
{
closed = 1;
nodes = (
(126,-7,o),
(141,20,o),
(146,46,cs),
(263,709,ls),
(271,759,o),
(240,775,o),
(210,775,cs),
(175,775,o),
(153,757,o),
(147,723,cs),
(30,57,ls),
(24,25,o),
(46,-7,o),
(86,-7,cs)
);
}
);
vertWidth = 0;
width = 651;
},
{
associatedMasterId = m01;
layerId = "20E38FB0-B6D6-4C6B-89B9-150B1056CEBB";
name = background;
shapes = (
{
closed = 1;
nodes = (
(352,361,o),
(543,381,o),
(569,565,cs),
(589,709,o),
(435,772,o),
(181,772,c),
(184,718,l),
(426,718,o),
(522,662,o),
(510,571,cs),
(492,436,o),
(317,416,o),
(134,416,c),
(126,361,l)
);
},
{
closed = 1;
nodes = (
(203,757,o),
(201,772,o),
(176,772,cs),
(150,772,o),
(144,759,o),
(140,740,cs),
(15,32,ls),
(12,14,o),
(21,-5,o),
(43,-5,cs),
(69,-5,o),
(72,18,o),
(75,30,cs),
(200,735,ls)
);
}
);
vertWidth = 0;
width = 594;
}
);
unicode = 80;
},
{
color = 6;
glyphname = Q;
kernLeft = O_left;
kernRight = O_right;
layers = (
{
layerId = m01;
shapes = (
{
closed = 1;
nodes = (
(412,-44,o),
(412,-21,o),
(403,-7,cs),
(274,179,ls),
(263,196,o),
(241,204,o),
(225,190,cs),
(210,179,o),
(213,165,o),
(226,146,cs),
(349,-34,ls),
(361,-52,o),
(380,-62,o),
(396,-53,cs)
);
},
{
closed = 1;
nodes = (
(381,-7,o),
(546,287,o),
(567,518,cs),
(579,655,o),
(523,782,o),
(361,779,cs),
(211,777,o),
(121,672,o),
(77,491,cs),
(17,240,o),
(61,-7,o),
(194,-7,cs)
);
},
{
closed = 1;
nodes = (
(115,48,o),
(89,267,o),
(134,468,cs),
(171,633,o),
(235,720,o),
(358,722,cs),
(485,725,o),
(517,630,o),
(507,511,cs),
(492,315,o),
(330,48,o),
(198,48,cs)
);
}
);
vertWidth = 0;
width = 590;
},
{
layerId = m002;
shapes = (
{
closed = 1;
nodes = (
(503,-33,o),
(505,1,o),
(486,30,cs),
(367,204,l),
(342,236,o),
(301,242,o),
(279,225,cs),
(257,207,o),
(249,177,o),
(271,145,cs),
(387,-25,ls),
(409,-56,o),
(447,-65,o),
(472,-50,cs)
);
},
{
closed = 1;
nodes = (
(418,-12,o),
(609,291,o),
(632,503,cs),
(646,644,o),
(569,779,o),
(387,779,cs),
(214,779,o),
(140,656,o),
(94,480,cs),
(33,244,o),
(64,-12,o),
(232,-12,cs)
);
},
{
closed = 1;
nodes = (
(172,95,o),
(181,310,o),
(208,442,cs),
(239,592,o),
(272,672,o),
(387,672,cs),
(514,672,o),
(518,568,o),
(512,500,cs),
(494,327,o),
(323,95,o),
(235,95,cs)
);
}
);
vertWidth = 0;
width = 675;
}
);
unicode = 81;
},
{
color = 6;
glyphname = R;
kernLeft = H_left;
layers = (
{
layerId = m01;
shapes = (
{
closed = 1;
nodes = (
(575,723,o),
(413,772,o),
(176,772,c),
(176,718,l),
(388,718,o),
(508,675,o),
(493,571,cs),
(476,463,o),
(340,416,o),
(126,416,c),
(118,365,l),
(354,365,o),
(529,400,o),
(552,565,cs)
);
},
{
closed = 1;
nodes = (
(456,0,o),
(468,8,o),
(472,18,cs),
(475,27,o),
(474,42,o),
(467,51,cs),
(185,391,l),
(134,377,l),
(173,312,l),
(415,21,ls),
(426,6,o),
(435,0,o),
(444,0,cs)
);
},
{
closed = 1;
nodes = (
(69,0,o),
(74,19,o),
(77,37,cs),
(200,735,ls),
(203,757,o),
(201,772,o),
(176,772,cs),
(150,772,o),
(144,759,o),
(140,740,cs),
(17,39,ls),
(13,19,o),
(21,0,o),
(43,0,cs)
);
}
);
vertWidth = 0;
width = 555;
},
{
layerId = m002;
shapes = (
{
closed = 1;
nodes = (
(646,715,o),
(484,772,o),
(215,772,c),
(238,665,l),
(447,669,o),
(516,633,o),
(503,558,cs),
(485,454,o),
(340,410,o),
(165,409,c),
(150,323,l),
(373,324,o),
(580,343,o),
(618,555,cs)
);
},
{
closed = 1;
nodes = (
(514,0,o),
(539,13,o),
(545,34,cs),
(550,50,o),
(551,68,o),
(539,82,cs),
(293,378,l),
(164,378,l),
(220,282,l),
(430,27,ls),
(450,4,o),
(476,0,o),
(492,0,cs)
);
},
{
closed = 1;
nodes = (
(115,0,o),
(146,27,o),
(152,63,cs),
(266,709,ls),
(274,758,o),
(247,772,o),
(214,772,cs),
(177,772,o),
(154,757,o),
(149,723,cs),
(32,64,ls),
(26,29,o),
(40,0,o),
(78,0,cs)
);
}
);
vertWidth = 0;
width = 652;
},
{
associatedMasterId = m01;
layerId = "C47353F9-FE80-40FB-AB91-6D72AFE07355";
name = background;
shapes = (
{
closed = 1;
nodes = (
(375,361,o),
(575,381,o),
(601,565,cs),
(621,709,o),
(470,772,o),
(213,772,c),
(213,718,l),
(442,718,o),
(555,665,o),
(542,571,cs),
(523,437,o),
(347,416,o),
(158,416,c),
(150,361,l)
);
},
{
closed = 1;
nodes = (
(141,390,l),
(447,21,ls),
(459,6,o),
(467,0,o),
(476,0,cs),
(488,0,o),
(500,8,o),
(504,18,cs),
(507,27,o),
(506,42,o),
(499,51,cs),
(226,381,l)
);
},
{
closed = 1;
nodes = (
(235,757,o),
(233,772,o),
(208,772,cs),
(182,772,o),
(176,759,o),
(172,740,cs),
(49,39,ls),
(45,19,o),
(53,0,o),
(75,0,cs),
(101,0,o),
(106,19,o),
(109,37,cs),
(232,735,ls)
);
}
);
vertWidth = 0;
width = 594;
}
);
unicode = 82;
},
{
color = 6;
glyphname = S;
layers = (
{
background = {
shapes = (
{
closed = 1;
nodes = (
(221,0,o),
(318,38,o),
(372,107,cs),
(441,196,o),
(417,341,o),
(282,431,cs),
(246,455,ls),
(135,529,o),
(113,582,o),
(151,647,cs),
(188,710,o),
(280,713,o),
(385,713,cs),
(481,713,ls),
(497,713,o),
(508,728,o),
(508,744,cs),
(508,772,o),
(485,772,o),
(480,772,cs),
(386,772,ls),
(257,772,o),
(149,754,o),
(96,672,cs),
(42,587,o),
(81,493,o),
(191,418,cs),
(228,393,ls),
(335,321,o),
(384,225,o),
(329,147,cs),
(283,82,o),
(182,59,o),
(93,59,cs),
(-2,59,ls),
(-18,59,o),
(-31,44,o),
(-31,29,cs),
(-31,0,o),
(-5,0,o),
(-2,0,cs),
(93,0,ls)
);
}
);
};
layerId = m01;
shapes = (
{
closed = 1;
nodes = (
(297,0,o),
(413,99,o),
(413,217,cs),
(413,314,o),
(356,381,o),
(282,431,cs),
(246,455,ls),
(166,507,o),
(133,546,o),
(133,594,cs),
(133,685,o),
(232,718,o),
(358,718,cs),
(460,718,ls),
(475,718,o),
(487,728,o),
(487,746,c),
(487,772,o),
(463,772,o),
(459,772,cs),
(349,772,ls),
(178,772,o),
(71,702,o),
(71,590,cs),
(71,529,o),
(115,469,o),
(191,418,cs),
(228,393,ls),
(299,345,o),
(352,292,o),
(352,216,cs),
(352,125,o),
(265,55,o),
(100,55,cs),
(-2,55,ls),
(-18,55,o),
(-31,44,o),
(-31,26,c),
(-31,0,o),
(-5,0,o),
(-2,0,cs),
(93,0,ls)
);
}
);
vertWidth = 0;
width = 469;
},
{
layerId = m002;
shapes = (
{
closed = 1;
nodes = (
(280,0,o),
(485,59,o),
(485,228,cs),
(485,336,o),
(407,397,o),
(331,450,cs),
(308,467,ls),
(235,518,o),
(198,546,o),
(198,579,cs),
(198,626,o),
(282,664,o),
(361,664,cs),
(519,664,ls),
(550,664,o),
(575,689,o),
(575,719,cs),
(575,762,o),
(539,772,o),
(518,772,cs),
(362,772,ls),
(203,772,o),
(80,683,o),
(80,574,cs),
(80,488,o),
(153,442,o),
(233,385,cs),
(258,367,ls),
(333,314,o),
(366,279,o),
(366,228,cs),
(366,137,o),
(232,108,o),
(163,108,cs),
(42,108,ls),
(11,108,o),
(-15,82,o),
(-15,52,cs),
(-15,10,o),
(25,0,o),
(42,0,cs),
(163,0,ls)
);
}
);
vertWidth = 0;
width = 554;
},
{
associatedMasterId = m01;
layerId = "A440414B-586A-40A5-AE6A-EB7CED442D21";
name = background;
shapes = (
{
closed = 1;
nodes = (
(235,0,o),
(412,59,o),
(412,219,cs),
(412,320,o),
(359,378,o),
(274,437,cs),
(187,498,o),
(133,537,o),
(133,590,cs),
(133,659,o),
(238,713,o),
(329,713,cs),
(484,713,ls),
(499,713,o),
(511,728,o),
(511,744,cs),
(511,772,o),
(487,772,o),
(482,772,cs),
(330,772,ls),
(177,772,o),
(72,684,o),
(72,586,cs),
(72,501,o),
(141,457,o),
(235,391,cs),
(320,330,o),
(353,286,o),
(353,217,cs),
(353,99,o),
(196,59,o),
(119,59,cs),
(0,59,ls),
(-15,59,o),
(-29,44,o),
(-29,29,cs),
(-29,0,o),
(-2,0,o),
(0,0,cs),
(119,0,ls)
);
}
);
vertWidth = 0;
width = 594;
}
);
unicode = 83;
},
{
color = 6;
glyphname = T;
layers = (
{
layerId = m01;
shapes = (
{
closed = 1;
nodes = (
(225,0,o),
(228,18,o),
(230,30,cs),
(354,738,l),
(293,738,l),
(171,32,ls),
(168,14,o),
(177,0,o),
(198,0,cs)
);
},
{
closed = 1;
nodes = (
(44,731,o),
(51,718,o),
(75,718,cs),
(579,718,ls),
(602,718,o),
(609,731,o),
(609,745,cs),
(609,759,o),
(602,772,o),
(579,772,cs),
(75,772,ls),
(51,772,o),
(44,759,o),
(44,745,cs)
);
}
);
vertWidth = 0;
width = 529;
},
{
layerId = m002;
shapes = (
{
closed = 1;
nodes = (
(273,-2,o),
(292,21,o),
(297,46,cs),
(412,714,l),
(292,714,l),
(178,58,ls),
(172,25,o),
(197,-2,o),
(234,-2,cs)
);
},
{
closed = 1;
nodes = (
(44,693,o),
(65,669,o),
(103,669,cs),
(607,669,ls),
(645,669,o),
(666,693,o),
(666,721,cs),
(666,752,o),
(643,776,o),
(607,776,cs),
(103,776,ls),
(68,776,o),
(44,752,o),
(44,721,cs)
);
}
);
vertWidth = 0;
width = 593;
}
);
unicode = 84;
},
{
color = 6;
glyphname = U;
kernLeft = H_left;
kernRight = H_right;
layers = (
{
layerId = m01;
shapes = (
{
closed = 1;
nodes = (
(257,-5,o),
(384,208,o),
(482,402,c),
(519,453,l),
(551,618,l),
(511,618,l),
(488,495,o),
(436,416,o),
(393,346,cs),
(340,258,o),
(222,50,o),
(129,50,c),
(74,50,o),
(86,138,o),
(100,214,cs),
(195,739,ls),
(198,756,o),
(188,771,o),
(170,772,cs),
(151,772,o),
(138,756,o),
(134,737,cs),
(40,217,ls),
(12,62,o),
(50,-5,o),
(120,-5,cs)
);
},
{
closed = 1;
nodes = (
(449,-1,o),
(463,8,o),
(467,26,cs),
(593,741,ls),
(596,759,o),
(588,772,o),
(564,772,cs),
(543,772,o),
(535,758,o),
(532,744,cs),
(407,32,ls),
(404,10,o),
(418,-1,o),
(435,-1,cs)
);
}
);
vertWidth = 0;
width = 607;
},
{
layerId = m002;
shapes = (
{
closed = 1;
nodes = (
(308,-5,o),
(438,197,o),
(530,387,c),
(590,457,l),
(631,645,l),
(531,645,l),
(519,577,o),
(463,442,o),
(432,384,cs),
(398,318,o),
(268,102,o),
(187,102,cs),
(164,102,o),
(166,149,o),
(179,220,cs),
(267,713,ls),
(273,747,o),
(248,772,o),
(214,772,cs),
(176,773,o),
(152,741,o),
(149,720,cs),
(61,232,ls),
(31,68,o),
(81,-5,o),
(168,-5,cs)
);
},
{
closed = 1;
nodes = (
(511,0,o),
(542,14,o),
(546,44,cs),
(664,715,ls),
(670,748,o),
(649,772,o),
(608,772,cs),
(575,772,o),
(550,754,o),
(545,727,cs),
(429,58,ls),
(422,19,o),
(450,0,o),
(484,0,cs)
);
}
);
vertWidth = 0;
width = 694;
}
);
unicode = 85;
},
{
color = 6;
glyphname = V;
kernLeft = V_left;
kernRight = V_right;
layers = (
{
layerId = m01;
shapes = (
{
closed = 1;
nodes = (
(551,721,ls),
(564,747,o),
(557,764,o),
(543,771,cs),
(527,778,o),
(507,766,o),
(497,744,cs),
(213,170,l),
(163,46,l),
(173,0,l),
(196,0,o),
(201,13,o),
(209,30,cs)
);
},
{
closed = 1;
nodes = (
(143,18,o),
(151,0,o),
(173,0,c),
(194,44,l),
(192,175,l),
(162,744,ls),
(160,756,o),
(156,772,o),
(129,772,c),
(108,772,o),
(101,759,o),
(102,741,cs),
(141,39,ls)
);
}
);
vertWidth = 0;
width = 523;
},
{
layerId = m002;
shapes = (
{
closed = 1;
nodes = (
(577,702,ls),
(598,743,o),
(571,772,o),
(533,772,cs),
(499,772,o),
(476,758,o),
(465,734,cs),
(252,304,l),
(157,70,l),
(189,-2,l),
(223,-2,o),
(238,18,o),
(249,40,cs)
);
},
{
closed = 1;
nodes = (
(131,23,o),
(153,-2,o),
(189,-2,c),
(223,76,l),
(229,308,l),
(207,725,ls),
(206,752,o),
(184,772,o),
(146,772,cs),
(112,772,o),
(89,753,o),
(91,718,cs),
(129,52,ls)
);
}
);
vertWidth = 0;
width = 546;
}
);
unicode = 86;
},
{
color = 6;
glyphname = W;
kernLeft = V_left;
kernRight = V_right;
layers = (
{
background = {
shapes = (
{
closed = 1;
nodes = (
(634,0,o),
(639,13,o),
(647,30,cs),
(996,734,ls),
(1007,758,o),
(993,772,o),
(975,772,cs),
(953,772,o),
(943,763,o),
(933,743,cs),
(589,46,l),
(612,0,l)
);
},
{
closed = 1;
nodes = (
(600,744,ls),
(599,756,o),
(594,772,o),
(568,772,c),
(546,772,o),
(539,759,o),
(541,741,cs),
(580,33,ls),
(581,18,o),
(590,0,o),
(613,0,c),
(638,44,l)
);
}
);
};
layerId = m01;
shapes = (
{
closed = 1;
nodes = (
(956,721,ls),
(969,747,o),
(961,764,o),
(947,770,cs),
(930,777,o),
(912,766,o),
(902,745,cs),
(625,184,l),
(562,37,l),
(577,0,l),
(600,0,o),
(607,13,o),
(615,30,cs)
);
},
{
closed = 1;
nodes = (
(143,15,o),
(153,0,o),
(175,0,c),
(191,44,l),
(192,179,l),
(162,744,ls),
(160,756,o),
(156,772,o),
(129,772,c),
(108,772,o),
(101,759,o),
(102,741,cs),
(141,34,ls)
);
},
{
closed = 1;
nodes = (
(494,606,l),
(546,735,l),
(533,772,l),
(511,772,o),
(501,757,o),
(495,744,cs),
(216,175,l),
(158,48,l),
(175,0,l),
(196,0,o),
(204,18,o),
(211,31,cs)
);
},
{
closed = 1;
nodes = (
(550,10,o),
(558,0,o),
(577,0,c),
(595,36,l),
(600,187,l),
(567,744,ls),
(565,758,o),
(560,772,o),
(533,772,c),
(517,733,l),
(516,607,l),
(549,26,ls)
);
}
);
vertWidth = 0;
width = 927;
},
{
layerId = m002;
shapes = (
{
closed = 1;
nodes = (
(984,695,ls),
(1001,732,o),
(975,772,o),
(947,772,cs),
(906,772,o),
(885,756,o),
(873,731,cs),
(674,312,l),
(568,88,l),
(600,0,l),
(633,0,o),
(647,14,o),
(659,39,cs)
);
},
{
closed = 1;
nodes = (
(139,18,o),
(162,0,o),
(201,0,c),
(236,89,l),
(230,304,l),
(207,725,ls),
(206,752,o),
(185,772,o),
(147,772,cs),
(113,772,o),
(89,753,o),
(91,718,cs),
(137,52,ls)
);
},
{
closed = 1;
nodes = (
(468,461,l),
(575,687,l),
(541,772,l),
(500,772,o),
(489,750,o),
(482,735,cs),
(268,305,l),
(168,89,l),
(201,0,l),
(238,0,o),
(247,17,o),
(261,46,cs)
);
},
{
closed = 1;
nodes = (
(544,18,o),
(576,0,o),
(600,0,c),
(642,88,l),
(634,317,l),
(604,725,ls),
(601,754,o),
(582,772,o),
(541,772,c),
(503,691,l),
(510,457,l),
(542,45,ls)
);
}
);
vertWidth = 0;
width = 950;
},
{
associatedMasterId = m01;
layerId = "0A5AEDD3-7312-4DBD-857C-C4F2C135CE12";
name = background;
shapes = (
{
closed = 1;
nodes = (
(601,0,o),
(607,13,o),
(615,30,cs),
(956,721,ls),
(966,739,o),
(969,754,o),
(966,760,cs),
(961,769,o),
(952,772,o),
(943,772,cs),
(934,772,o),
(927,771,o),
(922,767,cs),
(910,760,o),
(905,751,o),
(901,743,cs),
(625,184,l),
(556,37,l),
(580,0,l)
);
},
{
closed = 1;
nodes = (
(192,179,l),
(162,744,ls),
(160,756,o),
(156,772,o),
(129,772,c),
(108,772,o),
(101,759,o),
(102,741,cs),
(141,33,ls),
(143,14,o),
(156,0,o),
(181,0,c),
(200,44,l)
);
},
{
closed = 1;
nodes = (
(196,0,o),
(204,18,o),
(211,31,cs),
(494,606,l),
(557,735,l),
(531,772,l),
(512,772,o),
(500,754,o),
(495,744,cs),
(216,175,l),
(153,48,l),
(179,0,l)
);
},
{
closed = 1;
nodes = (
(600,187,l),
(567,744,ls),
(565,758,o),
(558,772,o),
(531,772,c),
(508,733,l),
(516,607,l),
(549,23,ls),
(550,7,o),
(560,0,o),
(581,0,c),
(604,36,l)
);
}
);
vertWidth = 0;
width = 594;
}
);
unicode = 87;
},
{
color = 6;
glyphname = X;
layers = (
{
layerId = m01;
shapes = (
{
closed = 1;
nodes = (
(-11,-4,o),
(12,-5,o),
(25,13,cs),
(267,347,l),
(285,359,l),
(550,723,ls),
(563,741,o),
(561,758,o),
(550,766,cs),
(538,776,o),
(516,775,o),
(503,757,cs),
(259,422,l),
(242,412,l),
(-26,45,ls),
(-37,31,o),
(-34,15,o),
(-24,7,cs)
);
},
{
closed = 1;
nodes = (
(419,8,o),
(430,24,o),
(419,52,cs),
(157,750,ls),
(149,772,o),
(126,777,o),
(112,771,cs),
(97,766,o),
(91,750,o),
(100,728,cs),
(359,33,ls),
(371,2,o),
(392,-5,o),
(406,2,cs)
);
}
);
vertWidth = 0;
width = 523;
},
{
layerId = m002;
shapes = (
{
closed = 1;
nodes = (
(14,-4,o),
(62,-10,o),
(82,19,cs),
(285,303,l),
(315,321,l),
(577,687,ls),
(598,715,o),
(593,740,o),
(571,759,cs),
(550,778,o),
(507,779,o),
(486,750,cs),
(268,448,l),
(236,426,l),
(-12,82,ls),
(-30,57,o),
(-30,34,o),
(-8,15,cs)
);
},
{
closed = 1;
nodes = (
(457,20,o),
(469,43,o),
(457,72,cs),
(206,740,ls),
(192,773,o),
(154,777,o),
(127,769,cs),
(96,757,o),
(86,733,o),
(100,696,cs),
(347,33,ls),
(360,-1,o),
(405,-7,o),
(432,7,cs)
);
}
);
vertWidth = 0;
width = 552;
}
);
unicode = 88;
},
{
color = 6;
glyphname = Y;
layers = (
{
layerId = m01;
shapes = (
{
closed = 1;
nodes = (
(533,777,o),
(512,772,o),
(501,757,cs),
(303,487,l),
(241,396,l),
(272,346,l),
(550,723,ls),
(562,740,o),
(560,758,o),
(546,767,cs)
);
},
{
closed = 1;
nodes = (
(230,0,o),
(235,18,o),
(238,30,cs),
(305,416,l),
(245,416,l),
(177,32,ls),
(173,14,o),
(183,0,o),
(204,0,cs)
);
},
{
closed = 1;
nodes = (
(103,764,o),
(99,746,o),
(106,728,cs),
(244,365,l),
(282,415,l),
(260,488,l),
(162,748,ls),
(154,769,o),
(134,776,o),
(119,770,cs)
);
}
);
vertWidth = 0;
width = 522;
},
{
layerId = m002;
shapes = (
{
closed = 1;
nodes = (
(536,783,o),
(500,783,o),
(476,751,cs),
(315,532,l),
(233,416,l),
(282,302,l),
(569,687,ls),
(594,720,o),
(582,752,o),
(560,767,cs)
);
},
{
closed = 1;
nodes = (
(259,-2,o),
(276,23,o),
(280,48,cs),
(348,441,l),
(228,441,l),
(162,58,ls),
(156,25,o),
(181,-2,o),
(219,-2,cs)
);
},
{
closed = 1;
nodes = (
(99,759,o),
(83,733,o),
(96,699,cs),
(247,316,l),
(327,404,l),
(280,535,l),
(202,738,ls),
(187,777,o),
(151,784,o),
(124,771,cs)
);
}
);
vertWidth = 0;
width = 543;
},
{
associatedMasterId = m01;
layerId = "00B86DF0-33AC-4F1C-ADC9-58C3EF72DD24";
name = background;
shapes = (
{
closed = 1;
nodes = (
(530,723,ls),
(536,732,o),
(539,740,o),
(539,747,cs),
(539,754,o),
(536,762,o),
(529,766,cs),
(520,772,o),
(512,773,o),
(505,772,cs),
(497,770,o),
(487,764,o),
(481,757,cs),
(215,396,l),
(252,346,l)
);
},
{
closed = 1;
nodes = (
(225,416,l),
(157,32,ls),
(153,14,o),
(163,0,o),
(184,0,cs),
(210,0,o),
(215,18,o),
(217,30,cs),
(285,416,l)
);
},
{
closed = 1;
nodes = (
(267,415,l),
(141,748,ls),
(138,758,o),
(129,766,o),
(121,770,cs),
(115,773,o),
(107,773,o),
(97,770,cs),
(88,766,o),
(82,760,o),
(81,753,cs),
(80,746,o),
(82,738,o),
(86,728,cs),
(223,365,l)
);
}
);
vertWidth = 0;
width = 594;
},
{
associatedMasterId = m002;
layerId = "ABE7B4F7-B3A0-4559-B244-B70180902683";
name = background;
shapes = (
{
closed = 1;
nodes = (
(516,776,o),
(494,776,o),
(482,776,c),
(469,772,o),
(451,763,o),
(443,751,cs),
(196,416,l),
(248,302,l),
(536,687,ls),
(545,700,o),
(550,712,o),
(550,726,cs),
(550,740,o),
(543,753,o),
(530,763,cs)
);
},
{
closed = 1;
nodes = (
(226,-2,o),
(242,23,o),
(247,48,cs),
(315,441,l),
(195,441,l),
(128,58,ls),
(122,25,o),
(147,-2,o),
(185,-2,cs)
);
},
{
closed = 1;
nodes = (
(72,764,o),
(59,751,o),
(56,735,cs),
(53,723,o),
(58,712,o),
(63,699,cs),
(214,316,l),
(297,404,l),
(169,738,ls),
(164,751,o),
(153,763,o),
(138,770,cs),
(127,776,o),
(106,777,o),
(90,771,cs)
);
}
);
vertWidth = 0;
width = 594;
}
);
unicode = 89;
},
{
color = 6;
glyphname = Z;
layers = (
{
layerId = m01;
shapes = (
{
closed = 1;
nodes = (
(-14,30,o),
(-7,0,o),
(18,0,cs),
(37,0,o),
(43,8,o),
(55,24,cs),
(565,722,ls),
(581,743,o),
(567,772,o),
(545,772,cs),
(532,772,o),
(524,765,o),
(513,751,cs),
(-1,48,ls)
);
},
{
closed = 1;
nodes = (
(448,42,o),
(441,55,o),
(417,55,cs),
(110,55,l),
(18,53,l),
(18,0,l),
(417,0,ls),
(441,0,o),
(448,13,o),
(448,27,cs)
);
},
{
closed = 1;
nodes = (
(116,731,o),
(124,718,o),
(147,718,cs),
(457,718,l),
(545,719,l),
(545,772,l),
(147,772,ls),
(124,772,o),
(116,759,o),
(116,745,cs)
);
}
);
vertWidth = 0;
width = 544;
},
{
layerId = m002;
shapes = (
{
closed = 1;
nodes = (
(-42,48,o),
(-7,0,o),
(29,0,cs),
(58,0,o),
(74,12,o),
(80,20,cs),
(576,685,ls),
(607,727,o),
(579,776,o),
(530,776,cs),
(511,776,o),
(495,765,o),
(486,752,cs),
(-10,90,ls)
);
},
{
closed = 1;
nodes = (
(482,82,o),
(459,107,o),
(423,107,cs),
(201,107,l),
(29,91,l),
(29,0,l),
(423,0,ls),
(461,0,o),
(482,23,o),
(482,51,cs)
);
},
{
closed = 1;
nodes = (
(95,693,o),
(116,669,o),
(154,669,cs),
(367,669,l),
(530,681,l),
(530,776,l),
(154,776,ls),
(119,776,o),
(95,752,o),
(95,721,cs)
);
}
);
vertWidth = 0;
width = 563;
}
);
unicode = 90;
},
{
color = 6;
glyphname = a;
kernLeft = o_left;
kernRight = n_right;
layers = (
{
layerId = m01;
shapes = (
{
closed = 1;
nodes = (
(120,-5,o),
(182,59,o),
(253,150,cs),
(289,194,o),
(339,279,o),
(361,356,c),
(324,356,l),
(291,301,o),
(252,244,o),
(203,182,cs),
(131,91,o),
(87,56,o),
(64,56,cs),
(48,56,o),
(48,74,o),
(48,93,cs),
(48,138,o),
(76,245,o),
(107,291,cs),
(143,345,o),
(203,356,o),
(244,356,cs),
(348,356,l),
(348,416,l),
(244,416,l),
(176,416,o),
(106,396,o),
(61,328,cs),
(23,271,o),
(-12,156,o),
(-12,87,cs),
(-12,26,o),
(12,-5,o),
(51,-5,cs)
);
},
{
closed = 1;
nodes = (
(331,0,o),
(334,21,o),
(335,27,cs),
(397,375,ls),
(402,403,o),
(392,416,o),
(365,416,cs),
(324,416,l),
(324,265,l),
(274,27,ls),
(272,18,o),
(274,0,o),
(301,0,cs)
);
}
);
vertWidth = 0;
width = 469;
},
{
layerId = m002;
shapes = (
{
closed = 1;
nodes = (
(145,-5,o),
(236,71,o),
(289,159,c),
(330,228,o),
(378,296,o),
(410,366,c),
(329,366,l),
(298,311,o),
(266,255,o),
(221,198,cs),
(158,120,o),
(126,100,o),
(120,100,cs),
(114,100,o),
(113,115,o),
(113,121,cs),
(113,159,o),
(131,230,o),
(153,266,cs),
(179,305,o),
(219,312,o),
(249,312,cs),
(352,312,l),
(352,416,l),
(249,416,ls),
(183,416,o),
(109,396,o),
(63,328,cs),
(26,271,o),
(1,165,o),
(1,101,cs),
(1,26,o),
(23,-5,o),
(69,-5,cs)
);
},
{
closed = 1;
nodes = (
(348,0,o),
(362,26,o),
(366,44,cs),
(419,350,ls),
(426,390,o),
(406,416,o),
(374,416,cs),
(297,416,l),
(297,299,l),
(253,52,ls),
(248,25,o),
(267,0,o),
(305,0,cs)
);
}
);
vertWidth = 0;
width = 475;
},
{
associatedMasterId = m01;
layerId = "0512CE0E-1919-4D4E-A8DF-3BC8F2425765";
name = background;
shapes = (
{
closed = 1;
nodes = (
(341,358,l),
(308,302,o),
(268,244,o),
(220,182,cs),
(147,91,o),
(103,56,o),
(81,56,cs),
(64,56,o),
(64,74,o),
(64,93,cs),
(64,138,o),
(86,245,o),
(116,291,cs),
(152,345,o),
(213,356,o),
(253,356,cs),
(261,356,o),
(342,356,o),
(365,356,c),
(365,416,l),
(350,416,o),
(277,416,o),
(253,416,cs),
(185,416,o),
(115,396,o),
(70,328,cs),
(32,271,o),
(5,156,o),
(5,87,cs),
(5,26,o),
(29,-5,o),
(68,-5,cs),
(137,-5,o),
(198,59,o),
(270,150,cs),
(305,194,o),
(372,280,o),
(391,346,cs),
(394,358,l)
);
},
{
closed = 1;
nodes = (
(416,391,o),
(416,400,o),
(412,406,cs),
(409,412,o),
(404,416,o),
(396,416,cs),
(341,416,l),
(341,310,l),
(291,27,ls),
(290,18,o),
(291,0,o),
(317,0,cs),
(348,0,o),
(350,21,o),
(352,27,cs),
(413,375,ls)
);
}
);
vertWidth = 0;
width = 594;
}
);
unicode = 97;
},
{
color = 6;
glyphname = b;
kernLeft = h_left;
kernRight = o_right;
layers = (
{
layerId = m01;
shapes = (
{
closed = 1;
nodes = (
(339,0,o),
(398,179,o),
(398,329,cs),
(398,390,o),
(372,421,o),
(329,421,cs),
(229,421,o),
(99,227,o),
(38,102,c),
(38,55,l),
(62,55,l),
(131,188,o),
(277,360,o),
(317,360,cs),
(339,360,o),
(340,343,o),
(340,317,cs),
(340,208,o),
(296,55,o),
(150,55,cs),
(38,55,l),
(38,0,l),
(150,0,ls)
);
},
{
closed = 1;
nodes = (
(62,0,l),
(62,115,l),
(173,738,ls),
(177,760,o),
(165,772,o),
(151,772,cs),
(135,772,o),
(119,762,o),
(114,738,cs),
(-12,26,ls),
(-14,12,o),
(-7,0,o),
(7,0,cs)
);
}
);
vertWidth = 0;
width = 456;
},
{
layerId = m002;
shapes = (
{
closed = 1;
nodes = (
(398,0,o),
(454,178,o),
(454,315,cs),
(454,393,o),
(421,421,o),
(372,421,cs),
(284,421,o),
(144,260,o),
(77,124,c),
(77,61,l),
(126,61,l),
(177,158,o),
(307,316,o),
(335,316,cs),
(341,316,o),
(342,303,o),
(342,292,cs),
(342,184,o),
(293,103,o),
(206,103,c),
(77,103,l),
(77,0,l),
(206,0,l)
);
},
{
closed = 1;
nodes = (
(132,0,l),
(127,120,l),
(240,712,ls),
(247,751,o),
(226,772,o),
(194,772,cs),
(170,772,o),
(137,760,o),
(129,721,cs),
(12,52,ls),
(6,21,o),
(27,0,o),
(59,0,cs)
);
}
);
vertWidth = 0;
width = 507;
},
{
associatedMasterId = m01;
layerId = "37741203-4949-4251-BBC6-E0723D02A970";
name = background;
shapes = (
{
closed = 1;
nodes = (
(150,0,ls),
(217,0,o),
(287,20,o),
(333,88,cs),
(371,145,o),
(398,260,o),
(398,329,cs),
(398,390,o),
(374,421,o),
(335,421,cs),
(266,421,o),
(204,356,o),
(160,301,cs),
(114,242,o),
(68,166,o),
(38,112,c),
(38,57,l),
(62,57,l),
(95,114,o),
(134,173,o),
(200,255,cs),
(255,326,o),
(299,360,o),
(317,360,cs),
(339,360,o),
(340,343,o),
(340,324,cs),
(340,289,o),
(317,171,o),
(286,125,cs),
(251,71,o),
(196,57,o),
(150,57,cs),
(38,57,l),
(38,0,l)
);
},
{
closed = 1;
nodes = (
(62,115,l),
(173,738,ls),
(177,760,o),
(165,772,o),
(151,772,cs),
(135,772,o),
(119,762,o),
(114,738,cs),
(-12,26,ls),
(-14,12,o),
(-7,0,o),
(7,0,cs),
(62,0,l)
);
}
);
vertWidth = 0;
width = 594;
},
{
associatedMasterId = m002;
layerId = "E0DABD11-634D-4846-BE24-CDDCCBAEB0AF";
name = background;
shapes = (
{
closed = 1;
nodes = (
(190,0,l),
(255,0,o),
(331,19,o),
(375,88,cs),
(412,145,o),
(438,251,o),
(438,315,cs),
(438,393,o),
(405,421,o),
(356,421,cs),
(284,421,o),
(210,346,o),
(173,302,cs),
(128,247,o),
(88,182,o),
(62,133,c),
(62,50,l),
(110,50,l),
(141,105,o),
(184,176,o),
(240,241,cs),
(287,297,o),
(311,316,o),
(320,316,cs),
(326,316,o),
(327,303,o),
(327,292,cs),
(327,264,o),
(311,184,o),
(285,149,cs),
(258,112,o),
(227,103,o),
(190,103,c),
(62,103,l),
(62,0,l)
);
},
{
closed = 1;
nodes = (
(120,120,l),
(225,712,ls),
(232,751,o),
(210,772,o),
(178,772,cs),
(154,772,o),
(121,760,o),
(114,721,cs),
(-4,52,ls),
(-10,21,o),
(12,0,o),
(44,0,cs),
(125,0,l)
);
}
);
vertWidth = 0;
width = 594;
}
);
unicode = 98;
},
{
color = 6;
glyphname = c;
kernLeft = o_left;
layers = (
{
layerId = m01;
shapes = (
{
closed = 1;
nodes = (
(165,-5,o),
(257,84,o),
(292,160,cs),
(299,175,o),
(290,190,o),
(277,196,cs),
(259,204,o),
(244,192,o),
(238,179,cs),
(220,141,o),
(149,56,o),
(89,56,cs),
(61,56,o),
(50,72,o),
(50,112,cs),
(50,138,o),
(72,246,o),
(103,291,cs),
(145,352,o),
(200,378,o),
(308,352,cs),
(323,348,o),
(334,368,o),
(334,379,cs),
(334,396,o),
(328,406,o),
(308,411,cs),
(189,436,o),
(103,397,o),
(56,328,cs),
(17,272,o),
(-10,156,o),
(-10,102,cs),
(-10,26,o),
(23,-5,o),
(80,-5,cs)
);
}
);
vertWidth = 0;
width = 358;
},
{
layerId = m002;
shapes = (
{
closed = 1;
nodes = (
(160,-5,o),
(251,52,o),
(307,139,cs),
(323,165,o),
(323,196,o),
(302,211,cs),
(280,227,o),
(240,222,o),
(219,195,cs),
(208,181,o),
(143,101,o),
(113,101,cs),
(103,101,o),
(103,118,o),
(103,124,cs),
(103,162,o),
(124,234,o),
(147,270,cs),
(172,309,o),
(233,320,o),
(302,320,cs),
(331,320,o),
(354,343,o),
(354,371,cs),
(354,396,o),
(331,421,o),
(302,421,cs),
(200,421,o),
(109,397,o),
(63,328,cs),
(26,271,o),
(1,165,o),
(1,101,cs),
(1,27,o),
(43,-5,o),
(88,-5,cs)
);
}
);
vertWidth = 0;
width = 391;
},
{
associatedMasterId = m01;
layerId = "46184994-1B49-4094-8A0D-A96E5DA8C5AF";
name = background;
shapes = (
{
closed = 1;
nodes = (
(115,-5,o),
(178,38,o),
(229,100,cs),
(244,118,o),
(260,139,o),
(273,157,cs),
(280,168,o),
(283,177,o),
(283,184,cs),
(283,200,o),
(268,208,o),
(258,208,cs),
(247,208,o),
(235,203,o),
(226,191,cs),
(215,178,o),
(201,159,o),
(189,144,cs),
(147,91,o),
(108,56,o),
(84,56,cs),
(71,56,o),
(64,70,o),
(64,93,cs),
(64,138,o),
(86,245,o),
(116,291,cs),
(152,345,o),
(213,356,o),
(295,356,cs),
(310,356,o),
(321,373,o),
(321,387,cs),
(321,400,o),
(310,416,o),
(295,416,cs),
(185,416,o),
(115,396,o),
(70,328,cs),
(32,271,o),
(5,156,o),
(5,87,cs),
(5,26,o),
(32,-5,o),
(70,-5,cs)
);
}
);
vertWidth = 0;
width = 594;
},
{
associatedMasterId = m002;
layerId = "6E5D3D0E-C8B9-4D84-8D71-16A53C56BEDD";
name = background;
shapes = (
{
closed = 1;
nodes = (
(194,-5,o),
(257,38,o),
(304,96,cs),
(320,114,o),
(335,135,o),
(346,150,cs),
(354,163,o),
(359,176,o),
(359,187,cs),
(359,216,o),
(331,234,o),
(307,234,cs),
(291,234,o),
(272,225,o),
(258,206,cs),
(247,192,o),
(236,178,o),
(227,165,cs),
(192,121,o),
(178,101,o),
(166,101,cs),
(157,101,o),
(157,118,o),
(157,124,cs),
(157,162,o),
(177,234,o),
(201,270,cs),
(226,309,o),
(271,315,o),
(340,315,cs),
(369,315,o),
(392,339,o),
(392,366,cs),
(392,391,o),
(369,416,o),
(340,416,cs),
(238,416,o),
(163,397,o),
(116,328,cs),
(80,271,o),
(55,165,o),
(55,101,cs),
(55,27,o),
(96,-5,o),
(141,-5,cs)
);
}
);
vertWidth = 0;
width = 594;
}
);
unicode = 99;
},
{
color = 6;
glyphname = d;
kernLeft = o_left;
layers = (
{
layerId = m01;
shapes = (
{
closed = 1;
nodes = (
(398,-7,o),
(428,19,o),
(453,59,cs),
(466,81,o),
(479,102,o),
(479,112,cs),
(479,129,o),
(467,139,o),
(454,139,cs),
(440,139,o),
(431,129,o),
(419,109,cs),
(412,97,ls),
(393,67,o),
(380,55,o),
(364,55,cs),
(348,55,o),
(352,120,o),
(359,157,cs),
(462,740,ls),
(466,763,o),
(454,772,o),
(438,772,cs),
(423,772,o),
(405,760,o),
(402,740,cs),
(301,173,ls),
(284,82,o),
(295,8,o),
(348,0,cs)
);
},
{
closed = 1;
nodes = (
(120,-5,o),
(184,63,o),
(241,134,cs),
(291,197,o),
(331,279,o),
(364,356,c),
(320,356,l),
(289,298,o),
(253,247,o),
(208,190,cs),
(134,95,o),
(87,55,o),
(64,55,cs),
(48,55,o),
(48,72,o),
(48,91,cs),
(48,137,o),
(71,242,o),
(102,289,cs),
(138,342,o),
(196,355,o),
(236,355,c),
(348,355,l),
(362,416,l),
(236,416,l),
(169,416,o),
(101,393,o),
(56,326,cs),
(18,268,o),
(-12,154,o),
(-12,86,cs),
(-12,25,o),
(12,-5,o),
(51,-5,cs)
);
}
);
vertWidth = 0;
width = 530;
},
{
layerId = m002;
shapes = (
{
closed = 1;
nodes = (
(451,0,o),
(482,25,o),
(518,68,cs),
(542,96,o),
(543,119,o),
(543,134,cs),
(543,166,o),
(519,182,o),
(493,182,cs),
(479,182,o),
(465,169,o),
(454,153,cs),
(436,128,ls),
(432,124,o),
(424,118,o),
(415,118,cs),
(405,118,o),
(400,134,o),
(407,173,cs),
(506,715,ls),
(513,754,o),
(487,772,o),
(454,772,cs),
(426,772,o),
(399,757,o),
(393,720,cs),
(318,283,ls),
(291,125,o),
(310,0,o),
(404,0,cs)
);
},
{
closed = 1;
nodes = (
(152,-5,o),
(233,55,o),
(292,127,cs),
(337,182,o),
(411,284,o),
(435,365,c),
(341,365,l),
(308,310,o),
(268,240,o),
(227,189,cs),
(176,126,o),
(131,100,o),
(121,100,cs),
(114,100,o),
(114,120,o),
(114,126,cs),
(114,157,o),
(132,234,o),
(156,268,cs),
(182,307,o),
(222,312,o),
(260,312,c),
(375,312,l),
(399,416,l),
(261,416,l),
(184,416,o),
(112,397,o),
(65,329,cs),
(29,272,o),
(1,164,o),
(1,100,cs),
(1,25,o),
(31,-5,o),
(77,-5,cs)
);
}
);
vertWidth = 0;
width = 598;
}
);
unicode = 100;
},
{
color = 6;
glyphname = e;
kernLeft = o_left;
layers = (
{
layerId = m01;
shapes = (
{
closed = 1;
nodes = (
(185,-5,o),
(241,59,o),
(254,76,cs),
(280,110,o),
(274,126,o),
(263,134,cs),
(249,144,o),
(232,145,o),
(209,115,cs),
(197,99,o),
(154,53,o),
(100,53,cs),
(62,53,o),
(48,76,o),
(50,116,cs),
(53,169,o),
(81,257,o),
(115,308,cs),
(144,349,o),
(184,360,o),
(214,360,cs),
(235,360,o),
(252,352,o),
(252,342,cs),
(252,322,o),
(225,298,o),
(151,252,cs),
(106,222,o),
(62,202,o),
(37,188,c),
(25,128,l),
(43,137,o),
(122,175,o),
(169,200,cs),
(268,253,o),
(314,315,o),
(314,359,cs),
(314,398,o),
(261,417,o),
(216,417,cs),
(160,417,o),
(102,390,o),
(67,337,cs),
(31,286,o),
(-2,198,o),
(-8,127,cs),
(-17,33,o),
(32,-5,o),
(99,-5,cs)
);
}
);
vertWidth = 0;
width = 361;
},
{
layerId = m002;
shapes = (
{
closed = 1;
nodes = (
(234,-5,o),
(292,56,o),
(302,69,cs),
(326,99,o),
(320,135,o),
(299,152,cs),
(277,170,o),
(246,160,o),
(221,131,cs),
(207,114,o),
(179,95,o),
(150,95,cs),
(125,95,o),
(113,121,o),
(113,140,cs),
(113,184,o),
(132,244,o),
(158,284,cs),
(178,315,o),
(211,340,o),
(230,340,cs),
(241,340,o),
(252,333,o),
(252,324,cs),
(252,308,o),
(230,278,o),
(182,249,cs),
(150,230,o),
(94,197,o),
(72,187,c),
(58,95,l),
(128,127,o),
(192,162,o),
(233,185,cs),
(289,217,o),
(358,290,o),
(358,333,cs),
(358,386,o),
(303,421,o),
(234,421,cs),
(177,421,o),
(112,400,o),
(69,339,cs),
(34,289,o),
(10,206,o),
(5,139,cs),
(-4,27,o),
(80,-5,o),
(141,-5,cs)
);
}
);
vertWidth = 0;
width = 400;
},
{
associatedMasterId = m01;
layerId = "3742B3E8-D857-4AD2-86DA-CF53D00404BC";
name = background;
shapes = (
{
closed = 1;
nodes = (
(49,137,o),
(122,175,o),
(168,200,cs),
(215,227,o),
(291,273,o),
(304,346,cs),
(312,394,o),
(263,421,o),
(202,421,cs),
(179,421,o),
(121,416,o),
(69,337,cs),
(34,285,o),
(2,198,o),
(-2,127,cs),
(-11,23,o),
(44,-5,o),
(101,-5,cs),
(188,-5,o),
(233,59,o),
(246,76,cs),
(272,110,o),
(266,126,o),
(254,134,cs),
(241,144,o),
(223,145,o),
(201,115,cs),
(188,100,o),
(157,53,o),
(102,53,cs),
(64,53,o),
(56,76,o),
(58,116,cs),
(62,169,o),
(83,257,o),
(118,308,cs),
(146,349,o),
(179,360,o),
(209,360,cs),
(230,360,o),
(246,352,o),
(244,342,cs),
(239,317,o),
(192,284,o),
(134,249,cs),
(105,233,o),
(71,215,o),
(45,201,c),
(31,128,l)
);
}
);
vertWidth = 0;
width = 594;
}
);
unicode = 101;
},
{
color = 6;
glyphname = f;
layers = (
{
layerId = m01;
shapes = (
{
closed = 1;
nodes = (
(83,0,o),
(91,18,o),
(94,32,cs),
(196,615,ls),
(204,663,o),
(239,713,o),
(278,713,cs),
(378,713,ls),
(398,713,o),
(407,729,o),
(407,743,cs),
(407,754,o),
(398,772,o),
(378,772,cs),
(278,772,ls),
(219,772,o),
(157,732,o),
(138,626,cs),
(33,33,ls),
(31,19,o),
(42,0,o),
(63,0,cs)
);
},
{
closed = 1;
nodes = (
(-18,375,o),
(-11,362,o),
(13,362,cs),
(244,362,ls),
(267,362,o),
(274,375,o),
(274,390,cs),
(274,404,o),
(267,416,o),
(244,416,cs),
(13,416,ls),
(-11,416,o),
(-18,404,o),
(-18,390,cs)
);
}
);
vertWidth = 0;
width = 273;
},
{
layerId = m002;
shapes = (
{
closed = 1;
nodes = (
(139,0,o),
(156,24,o),
(160,52,cs),
(257,596,ls),
(264,634,o),
(289,665,o),
(309,665,cs),
(413,665,ls),
(448,665,o),
(472,694,o),
(472,721,cs),
(472,747,o),
(448,772,o),
(413,772,cs),
(309,772,ls),
(240,772,o),
(166,729,o),
(146,617,cs),
(48,61,ls),
(43,33,o),
(67,0,o),
(107,0,cs)
);
},
{
closed = 1;
nodes = (
(-2,336,o),
(19,315,o),
(56,315,cs),
(273,315,ls),
(309,315,o),
(331,334,o),
(331,365,cs),
(331,393,o),
(311,416,o),
(273,416,cs),
(56,416,ls),
(19,416,o),
(-2,393,o),
(-2,365,cs)
);
}
);
vertWidth = 0;
width = 333;
},
{
associatedMasterId = m01;
layerId = "771454BB-5D08-4A3C-8FF8-B782C6700B6A";
name = background;
shapes = (
{
closed = 1;
nodes = (
(204,663,o),
(239,713,o),
(278,713,cs),
(378,713,ls),
(398,713,o),
(407,729,o),
(407,743,cs),
(407,754,o),
(398,772,o),
(378,772,cs),
(278,772,ls),
(219,772,o),
(157,732,o),
(138,626,cs),
(33,33,ls),
(31,19,o),
(42,0,o),
(63,0,cs),
(83,0,o),
(91,18,o),
(94,32,cs),
(196,615,ls)
);
},
{
closed = 1;
nodes = (
(267,362,o),
(274,375,o),
(274,390,cs),
(274,404,o),
(267,416,o),
(244,416,cs),
(13,416,ls),
(-11,416,o),
(-18,404,o),
(-18,390,cs),
(-18,375,o),
(-11,362,o),
(13,362,cs),
(244,362,ls)
);
}
);
vertWidth = 0;
width = 594;
}
);
unicode = 102;
},
{
color = 6;
glyphname = g;
kernLeft = o_left;
layers = (
{
layerId = m01;
shapes = (
{
closed = 1;
nodes = (
(-69,-345,o),
(-53,-355,o),
(-24,-355,cs),
(-2,-355,o),
(83,-350,o),
(122,-345,cs),
(187,-335,o),
(234,-302,o),
(264,-252,cs),
(303,-189,o),
(314,-99,o),
(331,1,cs),
(398,374,ls),
(403,402,o),
(393,416,o),
(371,416,cs),
(353,416,l),
(315,235,l),
(270,1,ls),
(254,-80,o),
(248,-164,o),
(214,-220,cs),
(192,-255,o),
(160,-280,o),
(106,-286,cs),
(78,-290,o),
(-11,-296,o),
(-29,-296,cs),
(-53,-296,o),
(-69,-310,o),
(-69,-327,cs)
);
},
{
closed = 1;
nodes = (
(-11,26,o),
(13,-5,o),
(52,-5,cs),
(126,-5,o),
(183,59,o),
(242,134,cs),
(290,194,o),
(330,285,o),
(361,358,c),
(326,358,l),
(291,302,o),
(252,244,o),
(209,189,cs),
(133,91,o),
(88,56,o),
(65,56,cs),
(55,56,o),
(49,68,o),
(49,93,cs),
(49,138,o),
(70,245,o),
(101,291,cs),
(137,345,o),
(197,356,o),
(238,356,cs),
(371,356,l),
(371,416,l),
(238,416,ls),
(170,416,o),
(100,396,o),
(55,328,cs),
(17,271,o),
(-11,156,o),
(-11,87,cs)
);
}
);
vertWidth = 0;
width = 476;
},
{
layerId = m002;
shapes = (
{
closed = 1;
nodes = (
(-74,-331,o),
(-49,-356,o),
(-1,-356,cs),
(20,-356,o),
(127,-349,o),
(165,-343,cs),
(234,-334,o),
(287,-301,o),
(318,-249,cs),
(359,-183,o),
(366,-95,o),
(383,-2,cs),
(444,347,ls),
(453,392,o),
(432,416,o),
(393,416,cs),
(346,416,l),
(315,228,l),
(276,7,ls),
(263,-69,o),
(249,-145,o),
(221,-191,cs),
(202,-222,o),
(183,-236,o),
(141,-241,cs),
(115,-245,o),
(10,-251,o),
(-6,-251,cs),
(-44,-251,o),
(-74,-272,o),
(-74,-303,cs)
);
},
{
closed = 1;
nodes = (
(4,26,o),
(43,-5,o),
(89,-5,cs),
(170,-5,o),
(232,64,o),
(267,109,cs),
(328,185,o),
(378,268,o),
(432,366,c),
(356,366,l),
(323,311,o),
(277,246,o),
(236,194,cs),
(194,139,o),
(134,100,o),
(122,100,cs),
(116,100,o),
(115,118,o),
(115,128,cs),
(115,146,o),
(133,234,o),
(159,271,cs),
(185,309,o),
(223,312,o),
(267,312,cs),
(384,312,l),
(384,416,l),
(267,416,ls),
(201,416,o),
(115,399,o),
(69,331,cs),
(32,274,o),
(4,179,o),
(4,101,cs)
);
}
);
vertWidth = 0;
width = 501;
},
{
associatedMasterId = m01;
layerId = "A6621916-736D-41DD-8A59-23E8498167AE";
name = background;
shapes = (
{
closed = 1;
nodes = (
(412,407,o),
(399,416,o),
(379,416,c),
(349,416,l),
(321,235,l),
(279,1,ls),
(265,-80,o),
(257,-164,o),
(222,-220,cs),
(201,-255,o),
(169,-280,o),
(114,-286,cs),
(87,-290,o),
(-23,-297,o),
(-40,-297,cs),
(-65,-297,o),
(-81,-311,o),
(-81,-328,cs),
(-81,-346,o),
(-65,-356,o),
(-36,-356,cs),
(-14,-356,o),
(91,-350,o),
(131,-345,cs),
(195,-335,o),
(242,-302,o),
(272,-252,cs),
(311,-189,o),
(322,-99,o),
(340,1,cs),
(409,387,ls)
);
},
{
closed = 1;
nodes = (
(334,358,l),
(299,302,o),
(260,244,o),
(215,187,cs),
(141,91,o),
(96,56,o),
(74,56,cs),
(57,56,o),
(57,74,o),
(57,93,cs),
(57,138,o),
(78,245,o),
(109,291,cs),
(145,345,o),
(206,356,o),
(246,356,cs),
(254,356,o),
(335,356,o),
(345,356,c),
(358,356,l),
(358,359,o),
(358,412,o),
(358,416,c),
(343,416,o),
(270,416,o),
(246,416,cs),
(178,416,o),
(108,396,o),
(63,328,cs),
(25,271,o),
(-2,156,o),
(-2,87,cs),
(-2,26,o),
(21,-5,o),
(61,-5,cs),
(134,-5,o),
(191,59,o),
(232,110,cs),
(298,194,o),
(355,285,o),
(383,347,cs),
(387,358,l)
);
},
{
closed = 1;
nodes = (
(412,407,o),
(399,416,o),
(379,416,c),
(349,416,l),
(321,235,l),
(279,1,ls),
(265,-80,o),
(257,-164,o),
(222,-220,cs),
(201,-255,o),
(169,-280,o),
(114,-286,cs),
(87,-290,o),
(-23,-297,o),
(-40,-297,cs),
(-65,-297,o),
(-81,-311,o),
(-81,-328,cs),
(-81,-346,o),
(-65,-356,o),
(-36,-356,cs),
(-14,-356,o),
(91,-350,o),
(131,-345,cs),
(195,-335,o),
(242,-302,o),
(272,-252,cs),
(311,-189,o),
(322,-99,o),
(340,1,cs),
(409,387,ls)
);
},
{
closed = 1;
nodes = (
(334,358,l),
(299,302,o),
(260,244,o),
(215,187,cs),
(141,91,o),
(96,56,o),
(74,56,cs),
(57,56,o),
(57,74,o),
(57,93,cs),
(57,138,o),
(78,245,o),
(109,291,cs),
(145,345,o),
(206,356,o),
(246,356,cs),
(254,356,o),
(335,356,o),
(345,356,c),
(358,356,l),
(358,359,o),
(358,412,o),
(358,416,c),
(343,416,o),
(270,416,o),
(246,416,cs),
(178,416,o),
(108,396,o),
(63,328,cs),
(25,271,o),
(-2,156,o),
(-2,87,cs),
(-2,26,o),
(21,-5,o),
(61,-5,cs),
(134,-5,o),
(191,59,o),
(232,110,cs),
(298,194,o),
(355,285,o),
(383,347,cs),
(387,358,l)
);
}
);
vertWidth = 0;
width = 594;
}
);
unicode = 103;
},
{
color = 6;
glyphname = h;
kernLeft = h_left;
kernRight = n_right;
layers = (
{
layerId = m01;
shapes = (
{
closed = 1;
nodes = (
(31,-4,o),
(38,5,o),
(45,18,c),
(173,740,ls),
(177,762,o),
(164,772,o),
(149,772,cs),
(133,772,o),
(116,762,o),
(113,740,cs),
(-10,43,ls),
(-14,17,o),
(-10,6,o),
(11,1,cs)
);
},
{
closed = 1;
nodes = (
(347,0,o),
(349,21,o),
(350,27,cs),
(397,278,ls),
(410,346,o),
(397,421,o),
(329,421,cs),
(217,421,o),
(103,220,o),
(34,116,c),
(45,18,l),
(124,150,o),
(259,362,o),
(320,362,cs),
(349,362,o),
(342,310,o),
(336,278,cs),
(290,27,ls),
(287,14,o),
(290,0,o),
(316,0,cs)
);
}
);
vertWidth = 0;
width = 469;
},
{
layerId = m002;
shapes = (
{
closed = 1;
nodes = (
(93,0,o),
(120,13,o),
(126,44,cs),
(244,714,ls),
(251,752,o),
(226,776,o),
(194,776,cs),
(165,776,o),
(135,757,o),
(129,723,cs),
(12,53,ls),
(6,20,o),
(32,0,o),
(64,0,cs)
);
},
{
closed = 1;
nodes = (
(396,0,o),
(416,26,o),
(419,44,cs),
(460,265,ls),
(474,341,o),
(446,421,o),
(365,421,cs),
(241,421,o),
(158,230,o),
(100,145,c),
(126,44,l),
(192,172,o),
(311,328,o),
(337,328,cs),
(354,328,o),
(354,304,o),
(348,274,cs),
(308,53,ls),
(303,25,o),
(318,0,o),
(353,0,cs)
);
}
);
vertWidth = 0;
width = 531;
}
);
unicode = 104;
},
{
color = 6;
glyphname = i;
layers = (
{
layerId = m01;
shapes = (
{
closed = 1;
nodes = (
(46,0,o),
(65,12,o),
(69,33,cs),
(131,380,ls),
(135,404,o),
(120,416,o),
(106,416,cs),
(90,416,o),
(71,405,o),
(68,384,cs),
(6,33,ls),
(2,11,o),
(17,0,o),
(32,0,cs)
);
},
{
closed = 1;
nodes = (
(151,507,o),
(169,527,o),
(169,550,cs),
(169,574,o),
(150,592,o),
(128,592,cs),
(105,592,o),
(89,571,o),
(89,550,cs),
(89,527,o),
(106,507,o),
(128,507,cs)
);
}
);
vertWidth = 0;
width = 206;
},
{
layerId = m002;
shapes = (
{
closed = 1;
nodes = (
(87,0,o),
(118,12,o),
(124,44,cs),
(177,349,ls),
(184,388,o),
(156,416,o),
(126,416,cs),
(97,416,o),
(71,394,o),
(65,362,cs),
(12,58,ls),
(6,23,o),
(30,0,o),
(61,0,cs)
);
},
{
closed = 1;
nodes = (
(194,491,o),
(223,519,o),
(223,554,cs),
(223,590,o),
(192,617,o),
(159,617,cs),
(124,617,o),
(97,588,o),
(97,554,cs),
(97,519,o),
(126,491,o),
(159,491,cs)
);
}
);
vertWidth = 0;
width = 253;
}
);
unicode = 105;
},
{
color = 6;
glyphname = j;
layers = (
{
layerId = m01;
shapes = (
{
closed = 1;
nodes = (
(-314,-347,o),
(-297,-356,o),
(-268,-356,cs),
(-246,-356,o),
(-187,-355,o),
(-147,-349,cs),
(-83,-340,o),
(-37,-305,o),
(-7,-258,cs),
(33,-194,o),
(44,-103,o),
(62,-4,cs),
(129,377,ls),
(134,402,o),
(119,416,o),
(102,416,cs),
(88,416,o),
(71,405,o),
(67,380,cs),
(1,-4,ls),
(-13,-84,o),
(-23,-169,o),
(-56,-225,cs),
(-77,-260,o),
(-109,-285,o),
(-166,-292,cs),
(-191,-295,o),
(-245,-297,o),
(-267,-297,cs),
(-298,-297,o),
(-314,-312,o),
(-314,-329,cs)
);
},
{
closed = 1;
nodes = (
(152,506,o),
(170,526,o),
(170,550,cs),
(170,575,o),
(152,593,o),
(129,593,cs),
(107,593,o),
(90,575,o),
(90,550,cs),
(90,526,o),
(107,506,o),
(129,506,cs)
);
}
);
vertWidth = 0;
width = 217;
},
{
layerId = m002;
shapes = (
{
closed = 1;
nodes = (
(-335,-335,o),
(-309,-356,o),
(-263,-356,cs),
(-240,-356,o),
(-139,-356,o),
(-101,-350,cs),
(-32,-339,o),
(20,-304,o),
(51,-255,cs),
(93,-188,o),
(96,-99,o),
(113,-6,cs),
(177,350,ls),
(184,392,o),
(160,416,o),
(128,416,cs),
(102,416,o),
(71,400,o),
(65,364,cs),
(4,4,ls),
(-10,-74,o),
(-18,-150,o),
(-45,-196,cs),
(-64,-226,o),
(-83,-241,o),
(-127,-247,cs),
(-150,-249,o),
(-241,-248,o),
(-261,-248,cs),
(-305,-248,o),
(-335,-274,o),
(-335,-305,cs)
);
},
{
closed = 1;
nodes = (
(194,491,o),
(223,519,o),
(223,554,cs),
(223,590,o),
(192,617,o),
(159,617,cs),
(124,617,o),
(97,588,o),
(97,554,cs),
(97,519,o),
(126,491,o),
(159,491,cs)
);
}
);
vertWidth = 0;
width = 253;
}
);
unicode = 106;
},
{
color = 6;
glyphname = k;
kernLeft = h_left;
layers = (
{
layerId = m01;
shapes = (
{
closed = 1;
nodes = (
(32,0,o),
(46,8,o),
(50,31,cs),
(175,738,ls),
(179,763,o),
(165,772,o),
(146,772,cs),
(128,772,o),
(118,759,o),
(114,739,cs),
(-11,31,ls),
(-14,12,o),
(-2,0,o),
(13,0,cs)
);
},
{
closed = 1;
nodes = (
(324,-1,o),
(336,6,o),
(340,19,cs),
(342,27,o),
(341,37,o),
(333,49,cs),
(234,191,l),
(327,241,o),
(360,289,o),
(360,348,cs),
(360,386,o),
(343,421,o),
(296,421,cs),
(223,421,o),
(133,339,o),
(58,223,c),
(27,46,l),
(103,264,o),
(251,361,o),
(278,361,cs),
(293,361,o),
(299,349,o),
(299,339,cs),
(299,299,o),
(277,278,o),
(189,228,cs),
(168,216,o),
(152,200,o),
(171,172,cs),
(277,21,ls),
(285,10,o),
(297,-1,o),
(312,-1,cs)
);
}
);
vertWidth = 0;
width = 425;
},
{
layerId = m002;
shapes = (
{
closed = 1;
nodes = (
(96,0,o),
(120,13,o),
(126,48,cs),
(242,712,ls),
(249,752,o),
(226,776,o),
(190,776,cs),
(163,776,o),
(135,758,o),
(129,722,cs),
(13,57,ls),
(7,23,o),
(32,0,o),
(64,0,cs)
);
},
{
closed = 1;
nodes = (
(398,0,o),
(422,15,o),
(426,39,c),
(431,53,o),
(429,68,o),
(417,84,cs),
(339,197,l),
(394,239,o),
(440,280,o),
(440,334,cs),
(440,374,o),
(402,421,o),
(336,421,cs),
(257,421,o),
(168,335,o),
(100,247,c),
(93,120,l),
(169,227,o),
(273,333,o),
(316,333,cs),
(326,333,o),
(334,326,o),
(334,317,cs),
(334,304,o),
(297,265,o),
(228,225,cs),
(211,214,o),
(204,196,o),
(215,181,cs),
(318,32,ls),
(331,13,o),
(353,0,o),
(374,0,cs)
);
}
);
vertWidth = 0;
width = 522;
},
{
associatedMasterId = m01;
layerId = "72543C3F-9967-439D-A7B0-5AA06D08102C";
name = background;
shapes = (
{
closed = 1;
nodes = (
(179,763,o),
(165,772,o),
(146,772,cs),
(128,772,o),
(118,759,o),
(114,739,cs),
(-11,31,ls),
(-14,12,o),
(-2,0,o),
(13,0,cs),
(32,0,o),
(46,8,o),
(50,31,cs),
(175,738,ls)
);
},
{
closed = 1;
nodes = (
(147,207,l),
(277,21,ls),
(285,10,o),
(297,-1,o),
(312,-1,cs),
(324,-1,o),
(336,6,o),
(340,19,cs),
(342,27,o),
(341,37,o),
(333,49,cs),
(223,207,l)
);
},
{
closed = 1;
nodes = (
(64,145,o),
(109,202,o),
(144,249,cs),
(164,278,o),
(192,307,o),
(214,324,cs),
(238,343,o),
(270,361,o),
(285,361,cs),
(304,361,o),
(301,331,o),
(298,322,cs),
(292,291,o),
(271,280,o),
(240,260,cs),
(216,244,o),
(182,225,o),
(147,207,c),
(215,173,l),
(238,188,o),
(259,201,o),
(279,215,cs),
(318,244,o),
(348,271,o),
(358,323,cs),
(365,368,o),
(355,421,o),
(297,421,cs),
(260,421,o),
(216,400,o),
(178,371,cs),
(146,346,o),
(81,267,o),
(61,239,c),
(27,46,l)
);
}
);
vertWidth = 0;
width = 594;
}
);
unicode = 107;
},
{
color = 6;
glyphname = l;
kernLeft = h_left;
layers = (
{
layerId = m01;
shapes = (
{
closed = 1;
nodes = (
(49,0,o),
(63,8,o),
(67,26,cs),
(192,741,ls),
(196,760,o),
(179,772,o),
(163,772,cs),
(150,772,o),
(135,765,o),
(132,747,cs),
(6,32,ls),
(2,11,o),
(19,0,o),
(36,0,cs)
);
}
);
vertWidth = 0;
width = 198;
},
{
layerId = m002;
shapes = (
{
closed = 1;
nodes = (
(106,0,o),
(137,18,o),
(143,52,cs),
(259,712,ls),
(266,750,o),
(234,772,o),
(201,772,cs),
(175,772,o),
(149,760,o),
(143,727,cs),
(25,59,ls),
(18,18,o),
(52,0,o),
(80,0,cs)
);
}
);
vertWidth = 0;
width = 263;
}
);
unicode = 108;
},
{
color = 6;
glyphname = m;
kernLeft = n_left;
kernRight = n_right;
layers = (
{
layerId = m01;
shapes = (
{
closed = 1;
nodes = (
(32,-2,o),
(38,6,o),
(43,13,c),
(112,384,ls),
(115,404,o),
(108,416,o),
(88,416,cs),
(65,416,o),
(55,406,o),
(51,384,cs),
(-8,43,ls),
(-13,18,o),
(-12,4,o),
(14,0,cs)
);
},
{
closed = 1;
nodes = (
(316,0,o),
(321,7,o),
(327,17,c),
(378,277,ls),
(391,345,o),
(384,419,o),
(311,419,cs),
(232,419,o),
(139,283,o),
(50,129,c),
(43,13,l),
(143,184,o),
(261,361,o),
(303,361,cs),
(333,361,o),
(326,309,o),
(320,277,cs),
(279,43,ls),
(274,18,o),
(274,0,o),
(299,0,cs)
);
},
{
closed = 1;
nodes = (
(611,0,o),
(618,13,o),
(620,27,cs),
(666,278,ls),
(680,346,o),
(670,421,o),
(598,421,cs),
(512,421,o),
(421,280,o),
(333,129,c),
(327,17,l),
(415,173,o),
(537,362,o),
(589,362,cs),
(619,362,o),
(612,310,o),
(606,278,cs),
(562,36,ls),
(558,18,o),
(560,0,o),
(586,0,c)
);
}
);
vertWidth = 0;
width = 739;
},
{
layerId = m002;
shapes = (
{
closed = 1;
nodes = (
(88,0,o),
(96,17,o),
(108,44,c),
(164,359,ls),
(170,394,o),
(157,416,o),
(119,416,cs),
(69,416,o),
(53,380,o),
(51,366,cs),
(-5,52,ls),
(-10,24,o),
(4,0,o),
(44,0,cs)
);
},
{
closed = 1;
nodes = (
(371,0,o),
(384,24,o),
(388,50,cs),
(428,264,ls),
(442,342,o),
(416,421,o),
(331,421,cs),
(225,421,o),
(145,268,o),
(95,184,c),
(108,44,l),
(141,139,o),
(268,328,o),
(308,328,cs),
(323,328,o),
(321,304,o),
(315,274,cs),
(274,52,ls),
(270,24,o),
(287,0,o),
(327,0,cs)
);
},
{
closed = 1;
nodes = (
(645,0,o),
(658,24,o),
(663,50,cs),
(702,264,ls),
(716,342,o),
(690,421,o),
(606,421,cs),
(499,421,o),
(419,268,o),
(369,184,c),
(383,44,l),
(416,139,o),
(543,328,o),
(582,328,cs),
(598,328,o),
(595,304,o),
(589,274,cs),
(549,52,ls),
(544,24,o),
(562,0,o),
(601,0,cs)
);
}
);
vertWidth = 0;
width = 779;
}
);
unicode = 109;
},
{
color = 6;
glyphname = n;
kernLeft = n_left;
kernRight = n_right;
layers = (
{
layerId = m01;
shapes = (
{
closed = 1;
nodes = (
(342,0,o),
(349,13,o),
(352,27,cs),
(398,278,ls),
(411,346,o),
(402,421,o),
(330,421,cs),
(236,421,o),
(143,287,o),
(50,135,c),
(43,13,l),
(125,150,o),
(260,362,o),
(321,362,cs),
(350,362,o),
(343,310,o),
(337,278,cs),
(293,36,ls),
(290,18,o),
(291,0,o),
(317,0,cs)
);
},
{
closed = 1;
nodes = (
(32,-2,o),
(36,4,o),
(43,13,c),
(112,384,ls),
(115,404,o),
(108,416,o),
(88,416,cs),
(64,416,o),
(55,405,o),
(51,384,cs),
(-8,43,ls),
(-13,18,o),
(-12,4,o),
(14,0,cs)
);
}
);
vertWidth = 0;
width = 470;
},
{
layerId = m002;
shapes = (
{
closed = 1;
nodes = (
(371,0,o),
(384,24,o),
(388,50,cs),
(428,264,ls),
(442,342,o),
(416,421,o),
(331,421,cs),
(225,421,o),
(145,268,o),
(95,184,c),
(108,44,l),
(141,139,o),
(268,328,o),
(308,328,cs),
(323,328,o),
(321,304,o),
(315,274,cs),
(274,52,ls),
(270,24,o),
(287,0,o),
(327,0,cs)
);
},
{
closed = 1;
nodes = (
(88,0,o),
(96,17,o),
(108,44,c),
(164,359,ls),
(170,394,o),
(157,416,o),
(119,416,cs),
(69,416,o),
(53,380,o),
(51,366,cs),
(-5,52,ls),
(-10,24,o),
(4,0,o),
(44,0,cs)
);
}
);
vertWidth = 0;
width = 499;
}
);
unicode = 110;
},
{
color = 6;
glyphname = o;
kernLeft = o_left;
kernRight = o_right;
layers = (
{
layerId = m01;
shapes = (
{
closed = 1;
nodes = (
(206,-8,o),
(337,172,o),
(337,298,cs),
(337,368,o),
(279,417,o),
(201,417,cs),
(78,417,o),
(-10,270,o),
(-10,126,cs),
(-10,36,o),
(37,-8,o),
(90,-8,cs)
);
},
{
closed = 1;
nodes = (
(70,53,o),
(48,74,o),
(48,131,cs),
(48,248,o),
(133,360,o),
(206,360,cs),
(252,360,o),
(276,328,o),
(276,291,cs),
(276,192,o),
(163,53,o),
(105,53,cs)
);
}
);
vertWidth = 0;
width = 393;
},
{
layerId = m002;
shapes = (
{
closed = 1;
nodes = (
(257,-5,o),
(367,181,o),
(387,297,cs),
(400,373,o),
(321,421,o),
(230,421,cs),
(107,421,o),
(6,280,o),
(6,124,cs),
(6,29,o),
(63,-5,o),
(122,-5,cs)
);
},
{
closed = 1;
nodes = (
(127,99,o),
(118,112,o),
(118,134,cs),
(118,194,o),
(177,314,o),
(228,314,cs),
(252,314,o),
(278,303,o),
(274,280,cs),
(264,220,o),
(183,99,o),
(134,99,cs)
);
}
);
vertWidth = 0;
width = 436;
},
{
associatedMasterId = m01;
layerId = "6491E05C-A2DC-4376-A9DE-20EAB5F87DDF";
name = background;
shapes = (
{
closed = 1;
nodes = (
(202,-5,o),
(303,169,o),
(328,309,cs),
(340,379,o),
(286,417,o),
(203,417,cs),
(133,417,o),
(87,373,o),
(58,322,cs),
(37,282,o),
(2,202,o),
(2,113,cs),
(2,24,o),
(32,-5,o),
(80,-5,cs)
);
},
{
closed = 1;
nodes = (
(62,55,o),
(62,91,o),
(62,125,cs),
(62,181,o),
(84,241,o),
(113,298,cs),
(138,341,o),
(164,358,o),
(200,358,cs),
(247,358,o),
(277,341,o),
(268,293,cs),
(255,222,o),
(162,55,o),
(94,55,cs)
);
}
);
vertWidth = 0;
width = 594;
},
{
associatedMasterId = m002;
layerId = "AF270A96-4FF4-46EF-B70C-9E9AC1223539";
name = background;
shapes = (
{
closed = 1;
nodes = (
(260,-5,o),
(371,181,o),
(391,297,cs),
(404,373,o),
(330,418,o),
(240,418,cs),
(163,418,o),
(102,371,o),
(75,321,cs),
(55,283,o),
(15,207,o),
(15,124,cs),
(15,29,o),
(72,-5,o),
(132,-5,cs)
);
},
{
closed = 1;
nodes = (
(137,99,o),
(133,112,o),
(133,134,cs),
(133,179,o),
(157,226,o),
(183,273,cs),
(201,305,o),
(219,314,o),
(238,314,cs),
(261,314,o),
(276,303,o),
(272,280,cs),
(261,220,o),
(187,99,o),
(144,99,cs)
);
}
);
vertWidth = 0;
width = 594;
}
);
unicode = 111;
},
{
color = 6;
glyphname = p;
kernLeft = n_left;
kernRight = o_right;
layers = (
{
layerId = m01;
shapes = (
{
closed = 1;
nodes = (
(-34,-356,o),
(-18,-347,o),
(-14,-329,cs),
(113,388,ls),
(116,406,o),
(102,416,o),
(87,416,cs),
(72,416,o),
(56,406,o),
(52,388,cs),
(-75,-328,ls),
(-78,-347,o),
(-64,-356,o),
(-49,-356,cs)
);
},
{
closed = 1;
nodes = (
(399,390,o),
(375,421,o),
(329,421,cs),
(230,421,o),
(84,229,o),
(21,58,c),
(64,58,l),
(106,165,o),
(276,360,o),
(318,360,cs),
(340,360,o),
(340,342,o),
(340,323,cs),
(340,140,o),
(249,58,o),
(144,58,c),
(34,58,l),
(26,0,l),
(144,0,l),
(305,0,o),
(399,139,o),
(399,329,cs)
);
}
);
vertWidth = 0;
width = 456;
},
{
layerId = m002;
shapes = (
{
closed = 1;
nodes = (
(12,-360,o),
(40,-342,o),
(45,-312,cs),
(163,355,ls),
(169,388,o),
(149,416,o),
(116,416,cs),
(89,416,o),
(56,398,o),
(51,368,cs),
(-67,-302,ls),
(-72,-336,o),
(-48,-360,o),
(-15,-360,cs)
);
},
{
closed = 1;
nodes = (
(434,390,o),
(409,421,o),
(358,421,cs),
(248,421,o),
(62,213,o),
(34,50,c),
(96,50,l),
(149,151,o),
(282,316,o),
(314,316,cs),
(320,316,o),
(321,304,o),
(321,298,cs),
(321,196,o),
(277,103,o),
(191,103,c),
(64,103,l),
(64,0,l),
(191,0,l),
(383,0,o),
(434,177,o),
(434,315,cs)
);
}
);
vertWidth = 0;
width = 487;
},
{
associatedMasterId = m01;
layerId = "C5E65A12-CFD6-4074-8D2D-A044A2730983";
name = background;
shapes = (
{
closed = 1;
nodes = (
(116,406,o),
(102,416,o),
(87,416,cs),
(72,416,o),
(56,406,o),
(52,388,cs),
(-75,-328,ls),
(-78,-347,o),
(-64,-356,o),
(-49,-356,cs),
(-34,-356,o),
(-18,-347,o),
(-14,-329,cs),
(113,388,ls)
);
},
{
closed = 1;
nodes = (
(63,58,l),
(96,114,o),
(135,172,o),
(201,254,cs),
(257,324,o),
(301,360,o),
(318,360,cs),
(340,360,o),
(340,342,o),
(340,323,cs),
(340,279,o),
(318,171,o),
(287,125,cs),
(252,71,o),
(191,59,o),
(151,59,cs),
(143,59,o),
(62,59,o),
(52,59,c),
(39,59,l),
(39,57,o),
(39,4,o),
(39,0,c),
(53,0,o),
(127,0,o),
(151,0,cs),
(219,0,o),
(289,20,o),
(334,88,cs),
(372,145,o),
(399,260,o),
(399,329,cs),
(399,390,o),
(375,421,o),
(336,421,cs),
(267,421,o),
(206,356,o),
(162,301,cs),
(99,222,o),
(38,135,o),
(14,71,cs),
(10,58,l)
);
}
);
vertWidth = 0;
width = 594;
},
{
associatedMasterId = m002;
layerId = "B1845866-02A6-4379-95E0-649BA73078AC";
name = background;
shapes = (
{
closed = 1;
nodes = (
(20,-360,o),
(49,-342,o),
(53,-312,cs),
(171,355,ls),
(177,388,o),
(157,416,o),
(125,416,cs),
(97,416,o),
(64,398,o),
(59,368,cs),
(-58,-302,ls),
(-64,-336,o),
(-39,-360,o),
(-7,-360,cs)
);
},
{
closed = 1;
nodes = (
(442,394,o),
(417,421,o),
(366,421,cs),
(296,421,o),
(208,345,o),
(166,289,cs),
(107,209,o),
(55,143,o),
(31,50,c),
(114,50,l),
(152,114,o),
(187,175,o),
(239,239,cs),
(285,296,o),
(317,316,o),
(322,316,cs),
(328,316,o),
(329,304,o),
(329,298,cs),
(329,261,o),
(314,188,o),
(291,153,cs),
(264,113,o),
(228,103,o),
(200,103,c),
(72,103,l),
(72,0,l),
(200,0,l),
(255,0,o),
(333,19,o),
(379,87,cs),
(416,144,o),
(442,251,o),
(442,315,cs)
);
}
);
vertWidth = 0;
width = 594;
}
);
unicode = 112;
},
{
color = 6;
glyphname = q;
kernLeft = o_left;
layers = (
{
background = {
shapes = (
{
closed = 1;
nodes = (
(326,358,l),
(292,302,o),
(253,244,o),
(204,182,cs),
(132,91,o),
(88,56,o),
(65,56,cs),
(49,56,o),
(49,74,o),
(49,93,cs),
(49,138,o),
(70,245,o),
(101,291,cs),
(137,345,o),
(197,356,o),
(238,356,cs),
(246,356,o),
(327,356,o),
(336,356,c),
(349,356,l),
(349,359,o),
(349,412,o),
(349,416,c),
(335,416,o),
(261,416,o),
(238,416,cs),
(170,416,o),
(100,396,o),
(55,328,cs),
(17,271,o),
(-11,156,o),
(-11,87,cs),
(-11,26,o),
(13,-5,o),
(52,-5,cs),
(121,-5,o),
(183,59,o),
(232,120,cs),
(290,194,o),
(347,285,o),
(374,347,cs),
(379,358,l)
);
},
{
closed = 1;
nodes = (
(257,-349,l),
(385,-244,ls),
(399,-232,o),
(405,-220,o),
(407,-209,cs),
(409,-195,o),
(399,-183,o),
(384,-183,cs),
(374,-182,o),
(361,-187,o),
(347,-198,cs),
(249,-279,l)
);
},
{
closed = 1;
nodes = (
(402,398,o),
(400,416,o),
(374,416,cs),
(345,416,l),
(213,-324,ls),
(209,-346,o),
(221,-356,o),
(235,-356,cs),
(251,-356,o),
(268,-346,o),
(272,-324,cs),
(400,388,ls)
);
}
);
};
layerId = m01;
shapes = (
{
closed = 1;
nodes = (
(-11,26,o),
(13,-5,o),
(52,-5,cs),
(121,-5,o),
(182,61,o),
(242,135,c),
(289,195,o),
(339,287,o),
(373,356,c),
(326,356,l),
(292,301,o),
(253,244,o),
(204,182,cs),
(132,91,o),
(88,56,o),
(65,56,cs),
(49,56,o),
(49,74,o),
(49,93,cs),
(49,138,o),
(70,245,o),
(101,291,cs),
(137,345,o),
(197,356,o),
(238,356,cs),
(349,356,l),
(349,416,l),
(238,416,ls),
(170,416,o),
(100,396,o),
(55,328,cs),
(17,271,o),
(-11,156,o),
(-11,87,cs)
);
},
{
closed = 1;
nodes = (
(392,-181,o),
(371,-179,o),
(353,-195,cs),
(249,-279,l),
(270,-339,l),
(391,-239,ls),
(409,-225,o),
(411,-203,o),
(402,-192,cs)
);
},
{
closed = 1;
nodes = (
(247,-356,o),
(259,-347,o),
(270,-339,c),
(398,378,ls),
(403,403,o),
(396,416,o),
(369,416,cs),
(346,416,l),
(213,-324,ls),
(209,-346,o),
(221,-356,o),
(235,-356,cs)
);
}
);
vertWidth = 0;
width = 469;
},
{
layerId = m002;
shapes = (
{
closed = 1;
nodes = (
(2,26,o),
(24,-5,o),
(70,-5,cs),
(145,-5,o),
(222,68,o),
(286,147,cs),
(341,216,o),
(375,264,o),
(404,364,c),
(331,364,l),
(301,310,o),
(270,255,o),
(225,198,cs),
(162,120,o),
(132,103,o),
(121,103,cs),
(115,103,o),
(114,119,o),
(114,125,cs),
(114,163,o),
(131,230,o),
(154,266,cs),
(179,304,o),
(216,312,o),
(249,312,cs),
(366,312,l),
(366,416,l),
(249,416,ls),
(184,416,o),
(109,394,o),
(64,327,cs),
(26,271,o),
(2,165,o),
(2,101,cs)
);
},
{
closed = 1;
nodes = (
(422,-137,o),
(391,-131,o),
(364,-154,cs),
(270,-234,l),
(321,-326,l),
(428,-233,ls),
(456,-208,o),
(453,-177,o),
(438,-158,cs)
);
},
{
closed = 1;
nodes = (
(283,-356,o),
(301,-342,o),
(320,-326,c),
(440,364,ls),
(444,390,o),
(426,416,o),
(387,416,cs),
(345,416,l),
(214,-295,ls),
(207,-333,o),
(226,-356,o),
(258,-356,cs)
);
}
);
vertWidth = 0;
width = 514;
},
{
associatedMasterId = m002;
layerId = "1A9BECE9-190F-4D17-94FB-A85EFEAAD8FB";
name = background;
shapes = (
{
closed = 1;
nodes = (
(380,364,l),
(349,310,o),
(318,255,o),
(273,198,cs),
(210,120,o),
(179,103,o),
(173,103,cs),
(168,103,o),
(166,119,o),
(166,125,cs),
(166,163,o),
(183,230,o),
(207,266,cs),
(232,304,o),
(268,312,o),
(302,312,cs),
(309,312,o),
(380,312,o),
(388,312,cs),
(430,312,l),
(430,342,o),
(430,390,o),
(430,416,c),
(403,416,o),
(326,416,o),
(302,416,cs),
(236,416,o),
(162,394,o),
(116,327,cs),
(78,271,o),
(55,165,o),
(55,101,cs),
(55,26,o),
(76,-5,o),
(122,-5,cs),
(197,-5,o),
(277,61,o),
(341,140,cs),
(396,209,o),
(434,265,o),
(449,320,cs),
(462,365,l)
);
},
{
closed = 1;
nodes = (
(373,-326,l),
(469,-244,ls),
(487,-228,o),
(500,-213,o),
(503,-197,cs),
(507,-168,o),
(484,-145,o),
(454,-144,cs),
(438,-143,o),
(419,-148,o),
(400,-164,cs),
(318,-232,l)
);
},
{
closed = 1;
nodes = (
(335,-356,o),
(354,-342,o),
(373,-326,c),
(493,364,ls),
(498,390,o),
(479,416,o),
(440,416,cs),
(386,416,l),
(260,-295,ls),
(253,-333,o),
(278,-356,o),
(310,-356,cs)
);
}
);
vertWidth = 0;
width = 594;
}
);
unicode = 113;
},
{
color = 6;
glyphname = r;
kernLeft = n_left;
layers = (
{
layerId = m01;
shapes = (
{
closed = 1;
nodes = (
(352,284,o),
(360,301,o),
(360,315,cs),
(360,371,o),
(330,421,o),
(286,421,cs),
(227,421,o),
(158,367,o),
(51,191,c),
(31,65,l),
(163,292,o),
(251,358,o),
(277,358,cs),
(293,358,o),
(299,331,o),
(299,310,cs),
(299,295,o),
(314,282,o),
(331,283,cs)
);
},
{
closed = 1;
nodes = (
(30,0,o),
(46,11,o),
(50,32,cs),
(110,380,ls),
(114,404,o),
(101,416,o),
(86,416,cs),
(71,416,o),
(55,405,o),
(51,384,cs),
(-11,32,ls),
(-14,11,o),
(-1,0,o),
(14,0,cs)
);
}
);
vertWidth = 0;
width = 371;
},
{
layerId = m002;
shapes = (
{
closed = 1;
nodes = (
(384,251,o),
(400,271,o),
(400,304,cs),
(400,353,o),
(373,421,o),
(315,421,cs),
(229,421,o),
(166,341,o),
(94,239,c),
(82,55,l),
(177,222,o),
(253,307,o),
(280,307,cs),
(291,307,o),
(298,297,o),
(301,290,cs),
(308,266,o),
(328,251,o),
(355,251,cs)
);
},
{
closed = 1;
nodes = (
(77,0,o),
(102,17,o),
(108,49,cs),
(162,353,ls),
(169,391,o),
(144,416,o),
(113,416,cs),
(87,416,o),
(56,399,o),
(50,367,cs),
(-5,57,ls),
(-11,21,o),
(19,0,o),
(50,0,cs)
);
}
);
vertWidth = 0;
width = 430;
},
{
associatedMasterId = m01;
layerId = "29C4557D-BF25-4EEA-B9D7-33822A13039B";
name = background;
shapes = (
{
closed = 1;
nodes = (
(110,194,o),
(137,230,o),
(171,271,cs),
(192,296,o),
(221,327,o),
(246,343,cs),
(261,354,o),
(270,358,o),
(277,358,cs),
(290,358,o),
(299,322,o),
(301,318,cs),
(307,296,o),
(316,286,o),
(334,286,cs),
(356,286,o),
(361,301,o),
(360,315,cs),
(359,334,o),
(346,391,o),
(327,405,cs),
(321,410,o),
(307,421,o),
(282,421,cs),
(266,421,o),
(244,413,o),
(217,397,cs),
(197,384,o),
(166,356,o),
(134,322,cs),
(115,302,o),
(94,277,o),
(83,257,c),
(57,108,l)
);
},
{
closed = 1;
nodes = (
(114,404,o),
(101,416,o),
(86,416,cs),
(71,416,o),
(55,405,o),
(51,384,cs),
(-11,32,ls),
(-14,11,o),
(-1,0,o),
(14,0,cs),
(30,0,o),
(46,11,o),
(50,32,cs),
(110,380,ls)
);
}
);
vertWidth = 0;
width = 594;
},
{
associatedMasterId = m002;
layerId = "7ED098A4-EECC-4DF3-A192-66B5C788B14F";
name = background;
shapes = (
{
closed = 1;
nodes = (
(384,251,o),
(400,271,o),
(400,304,cs),
(400,326,o),
(390,379,o),
(364,402,cs),
(356,409,o),
(336,421,o),
(315,421,cs),
(287,421,o),
(241,413,o),
(213,396,cs),
(192,383,o),
(162,356,o),
(134,326,cs),
(114,305,o),
(94,284,o),
(82,270,c),
(82,55,l),
(128,129,o),
(183,214,o),
(198,233,cs),
(214,252,o),
(232,271,o),
(245,284,cs),
(255,295,o),
(285,307,o),
(289,307,cs),
(295,307,o),
(298,297,o),
(301,290,cs),
(308,266,o),
(328,251,o),
(355,251,cs)
);
},
{
closed = 1;
nodes = (
(77,0,o),
(108,17,o),
(114,49,cs),
(168,353,ls),
(175,391,o),
(144,416,o),
(113,416,cs),
(87,416,o),
(56,399,o),
(50,367,cs),
(-5,57,ls),
(-11,21,o),
(19,0,o),
(50,0,cs)
);
},
{
closed = 1;
nodes = (
(384,251,o),
(400,271,o),
(400,304,cs),
(400,326,o),
(390,379,o),
(364,402,cs),
(356,409,o),
(336,421,o),
(315,421,cs),
(287,421,o),
(241,413,o),
(213,396,cs),
(192,383,o),
(162,356,o),
(134,326,cs),
(114,305,o),
(94,284,o),
(82,270,c),
(82,55,l),
(128,129,o),
(183,214,o),
(198,233,cs),
(214,252,o),
(232,271,o),
(245,284,cs),
(255,295,o),
(285,307,o),
(289,307,cs),
(295,307,o),
(298,297,o),
(301,290,cs),
(308,266,o),
(328,251,o),
(355,251,cs)
);
},
{
closed = 1;
nodes = (
(77,0,o),
(108,17,o),
(114,49,cs),
(168,353,ls),
(175,391,o),
(144,416,o),
(113,416,cs),
(87,416,o),
(56,399,o),
(50,367,cs),
(-5,57,ls),
(-11,21,o),
(19,0,o),
(50,0,cs)
);
}
);
vertWidth = 0;
width = 594;
}
);
unicode = 114;
},
{
color = 6;
glyphname = s;
layers = (
{
layerId = m01;
shapes = (
{
closed = 1;
nodes = (
(222,0,o),
(272,55,o),
(272,108,cs),
(272,153,o),
(247,181,o),
(214,203,cs),
(120,268,ls),
(101,282,o),
(81,298,o),
(81,316,cs),
(81,339,o),
(95,356,o),
(150,356,cs),
(273,356,ls),
(289,356,o),
(307,366,o),
(307,386,cs),
(307,415,o),
(289,416,o),
(255,416,cs),
(154,416,ls),
(67,416,o),
(21,372,o),
(21,316,cs),
(21,266,o),
(52,235,o),
(87,213,cs),
(175,153,ls),
(192,141,o),
(208,126,o),
(208,106,cs),
(208,81,o),
(187,59,o),
(131,59,cs),
(1,59,ls),
(-18,59,o),
(-36,53,o),
(-36,30,cs),
(-36,7,o),
(-18,0,o),
(0,0,cs),
(119,0,ls)
);
}
);
vertWidth = 0;
width = 360;
},
{
layerId = m002;
shapes = (
{
closed = 1;
nodes = (
(201,0,o),
(287,21,o),
(302,103,cs),
(310,151,o),
(287,195,o),
(259,215,cs),
(163,282,ls),
(150,291,o),
(145,297,o),
(145,302,cs),
(145,307,o),
(160,311,o),
(185,311,cs),
(286,311,ls),
(315,311,o),
(345,330,o),
(345,364,cs),
(345,403,o),
(317,416,o),
(270,416,cs),
(185,416,ls),
(109,416,o),
(37,373,o),
(33,301,cs),
(32,247,o),
(68,216,o),
(101,194,cs),
(176,144,ls),
(187,137,o),
(191,131,o),
(189,120,cs),
(187,105,o),
(171,103,o),
(131,103,cs),
(50,103,ls),
(15,103,o),
(-12,86,o),
(-12,51,cs),
(-12,18,o),
(14,0,o),
(49,0,cs),
(131,0,ls)
);
}
);
vertWidth = 0;
width = 385;
},
{
associatedMasterId = m01;
layerId = "3A55E839-CDD0-4DB3-9202-B90C4BA29980";
name = background;
shapes = (
{
closed = 1;
nodes = (
(181,0,o),
(254,19,o),
(266,95,cs),
(273,139,o),
(257,171,o),
(234,189,cs),
(211,207,o),
(164,238,o),
(126,268,cs),
(108,283,o),
(91,298,o),
(91,312,cs),
(91,334,o),
(133,356,o),
(171,356,cs),
(284,356,ls),
(299,356,o),
(317,366,o),
(317,386,cs),
(317,415,o),
(299,416,o),
(266,416,cs),
(171,416,ls),
(100,416,o),
(34,375,o),
(32,311,cs),
(31,266,o),
(62,240,o),
(95,216,cs),
(127,194,o),
(166,170,o),
(183,157,cs),
(198,144,o),
(210,127,o),
(207,105,cs),
(201,65,o),
(158,59,o),
(109,59,cs),
(20,59,ls),
(1,59,o),
(-17,53,o),
(-17,30,cs),
(-17,7,o),
(1,0,o),
(19,0,cs),
(109,0,ls)
);
}
);
vertWidth = 0;
width = 594;
}
);
unicode = 115;
},
{
color = 6;
glyphname = t;
layers = (
{
layerId = m01;
shapes = (
{
closed = 1;
nodes = (
(83,0,o),
(99,8,o),
(102,27,cs),
(209,642,ls),
(213,663,o),
(196,675,o),
(179,675,cs),
(166,675,o),
(154,666,o),
(151,650,cs),
(40,29,ls),
(37,10,o),
(52,0,o),
(68,0,cs)
);
},
{
closed = 1;
nodes = (
(-10,375,o),
(-2,362,o),
(21,362,cs),
(263,362,ls),
(286,362,o),
(293,375,o),
(293,390,cs),
(293,404,o),
(286,416,o),
(263,416,cs),
(21,416,ls),
(-2,416,o),
(-10,404,o),
(-10,390,cs)
);
}
);
vertWidth = 0;
width = 286;
},
{
layerId = m002;
shapes = (
{
closed = 1;
nodes = (
(156,0,o),
(177,11,o),
(183,42,cs),
(285,621,ls),
(292,662,o),
(263,675,o),
(230,675,cs),
(204,675,o),
(177,659,o),
(172,632,cs),
(70,52,ls),
(63,14,o),
(95,0,o),
(126,0,cs)
);
},
{
closed = 1;
nodes = (
(18,336,o),
(39,315,o),
(77,315,cs),
(303,315,ls),
(341,315,o),
(362,336,o),
(362,365,cs),
(362,394,o),
(341,416,o),
(303,416,cs),
(77,416,ls),
(39,416,o),
(18,394,o),
(18,365,cs)
);
}
);
vertWidth = 0;
width = 375;
}
);
unicode = 116;
},
{
color = 6;
glyphname = u;
kernLeft = n_left;
kernRight = n_right;
layers = (
{
layerId = m01;
shapes = (
{
closed = 1;
nodes = (
(176,-5,o),
(302,201,o),
(366,309,c),
(360,400,l),
(278,264,o),
(143,53,o),
(82,53,cs),
(52,53,o),
(59,106,o),
(65,138,cs),
(108,381,ls),
(112,404,o),
(99,416,o),
(84,416,cs),
(69,416,o),
(51,405,o),
(48,383,cs),
(5,138,ls),
(-7,70,o),
(1,-5,o),
(70,-5,cs)
);
},
{
closed = 1;
nodes = (
(329,-1,o),
(346,8,o),
(350,37,cs),
(412,384,ls),
(416,404,o),
(411,416,o),
(391,416,cs),
(373,416,o),
(366,410,o),
(360,400,c),
(290,37,ls),
(285,14,o),
(299,-1,o),
(316,-1,cs)
);
}
);
vertWidth = 0;
width = 485;
},
{
layerId = m002;
shapes = (
{
closed = 1;
nodes = (
(213,-5,o),
(292,147,o),
(342,232,c),
(329,372,l),
(296,277,o),
(169,88,o),
(129,88,cs),
(114,88,o),
(116,112,o),
(122,141,cs),
(163,364,ls),
(168,392,o),
(150,416,o),
(110,416,cs),
(67,416,o),
(53,392,o),
(49,366,cs),
(10,152,ls),
(-5,74,o),
(21,-5,o),
(106,-5,cs)
);
},
{
closed = 1;
nodes = (
(368,0,o),
(384,36,o),
(386,50,cs),
(442,364,ls),
(447,392,o),
(434,416,o),
(393,416,cs),
(349,416,o),
(341,399,o),
(329,372,c),
(273,57,ls),
(267,21,o),
(280,0,o),
(318,0,cs)
);
}
);
vertWidth = 0;
width = 497;
}
);
unicode = 117;
},
{
color = 6;
glyphname = v;
kernLeft = v_left;
kernRight = v_right;
layers = (
{
background = {
shapes = (
{
closed = 1;
nodes = (
(116,404,o),
(102,416,o),
(87,416,cs),
(72,416,o),
(55,405,o),
(51,384,cs),
(7,138,ls),
(-1,90,o),
(-2,58,o),
(6,33,cs),
(14,11,o),
(31,-5,o),
(62,-5,cs),
(90,-5,o),
(121,8,o),
(151,30,cs),
(196,63,o),
(244,119,o),
(274,164,cs),
(315,221,o),
(369,320,o),
(381,342,cs),
(409,396,o),
(397,416,o),
(373,416,cs),
(352,416,o),
(345,400,o),
(330,374,cs),
(309,333,o),
(274,272,o),
(238,217,cs),
(198,158,o),
(157,106,o),
(116,75,cs),
(100,62,o),
(89,56,o),
(78,56,cs),
(69,56,o),
(61,61,o),
(59,71,cs),
(57,82,o),
(62,102,o),
(65,121,cs),
(112,380,ls)
);
},
{
closed = 1;
nodes = (
(359,349,l),
(411,273,ls),
(419,261,o),
(431,251,o),
(447,251,cs),
(459,251,o),
(470,258,o),
(474,271,cs),
(476,279,o),
(475,289,o),
(467,301,cs),
(392,409,l)
);
}
);
};
layerId = m01;
shapes = (
{
closed = 1;
nodes = (
(169,-5,o),
(310,183,o),
(397,383,c),
(394,405,l),
(392,409,o),
(386,416,o),
(373,416,cs),
(352,416,o),
(342,400,o),
(330,374,cs),
(260,223,o),
(126,55,o),
(81,55,cs),
(58,55,o),
(55,76,o),
(67,139,cs),
(112,380,ls),
(116,404,o),
(102,416,o),
(87,416,cs),
(72,416,o),
(55,405,o),
(51,384,cs),
(7,139,ls),
(-11,40,o),
(7,-5,o),
(63,-5,cs)
);
},
{
closed = 1;
nodes = (
(478,267,o),
(476,286,o),
(461,309,cs),
(394,405,l),
(350,361,l),
(412,272,ls),
(426,251,o),
(449,244,o),
(463,255,cs)
);
}
);
vertWidth = 0;
width = 465;
},
{
layerId = m002;
shapes = (
{
closed = 1;
nodes = (
(225,-5,o),
(305,102,o),
(432,314,c),
(443,397,l),
(434,412,o),
(415,417,o),
(399,417,cs),
(367,417,o),
(350,402,o),
(333,366,cs),
(270,236,o),
(158,93,o),
(133,93,cs),
(124,93,o),
(124,127,o),
(134,187,cs),
(165,354,ls),
(172,393,o),
(149,417,o),
(116,417,cs),
(90,417,o),
(56,398,o),
(50,366,cs),
(10,137,ls),
(-4,61,o),
(21,-5,o),
(93,-5,cs)
);
},
{
closed = 1;
nodes = (
(517,244,o),
(526,273,o),
(506,304,cs),
(443,397,l),
(354,330,l),
(410,248,ls),
(435,211,o),
(473,211,o),
(497,228,cs)
);
}
);
vertWidth = 0;
width = 513;
},
{
associatedMasterId = m01;
layerId = "18A92B4D-A0CD-47C8-BF39-3AF59CA50A40";
name = background;
shapes = (
{
closed = 1;
nodes = (
(116,404,o),
(102,416,o),
(87,416,cs),
(72,416,o),
(55,405,o),
(51,384,cs),
(5,121,ls),
(-1,90,o),
(-2,58,o),
(6,33,cs),
(14,11,o),
(31,-5,o),
(62,-5,cs),
(90,-5,o),
(121,8,o),
(151,30,cs),
(196,63,o),
(244,119,o),
(274,164,cs),
(315,221,o),
(369,320,o),
(381,342,cs),
(409,396,o),
(397,416,o),
(373,416,cs),
(352,416,o),
(345,400,o),
(330,374,cs),
(309,333,o),
(274,272,o),
(238,217,cs),
(198,158,o),
(157,106,o),
(116,75,cs),
(100,62,o),
(89,56,o),
(78,56,cs),
(69,56,o),
(61,61,o),
(59,71,cs),
(57,82,o),
(62,102,o),
(65,121,cs),
(112,380,ls)
);
},
{
closed = 1;
nodes = (
(359,349,l),
(411,273,ls),
(419,261,o),
(431,251,o),
(447,251,cs),
(459,251,o),
(470,258,o),
(474,271,cs),
(476,279,o),
(475,289,o),
(467,301,cs),
(392,409,l)
);
}
);
vertWidth = 0;
width = 594;
},
{
associatedMasterId = m002;
layerId = "90B56FA1-DE22-4E2E-9549-3FD06F5B5500";
name = background;
shapes = (
{
closed = 0;
nodes = (
(81,-5,l)
);
},
{
closed = 1;
nodes = (
(114,-5,o),
(160,5,o),
(201,32,cs),
(248,64,o),
(291,115,o),
(317,153,cs),
(355,206,o),
(412,295,o),
(421,314,c),
(466,399,o),
(413,417,o),
(387,417,cs),
(355,417,o),
(340,402,o),
(321,366,cs),
(311,348,o),
(290,311,o),
(259,265,cs),
(225,213,o),
(215,200,o),
(194,170,cs),
(178,150,o),
(159,126,o),
(147,114,cs),
(138,105,o),
(124,93,o),
(119,93,cs),
(112,93,o),
(115,127,o),
(126,187,cs),
(157,354,ls),
(164,393,o),
(137,417,o),
(105,417,cs),
(78,417,o),
(44,398,o),
(38,366,cs),
(-2,137,ls),
(-7,107,o),
(-5,74,o),
(4,46,cs),
(17,14,o),
(42,-5,o),
(81,-5,cs)
);
},
{
closed = 1;
nodes = (
(342,330,l),
(396,252,ls),
(409,233,o),
(428,219,o),
(453,219,cs),
(475,219,o),
(498,233,o),
(505,254,cs),
(510,272,o),
(506,286,o),
(494,304,cs),
(431,397,l)
);
}
);
vertWidth = 0;
width = 594;
}
);
unicode = 118;
},
{
color = 6;
glyphname = w;
kernLeft = v_left;
kernRight = v_right;
layers = (
{
layerId = m01;
shapes = (
{
closed = 1;
nodes = (
(488,-5,o),
(625,266,o),
(669,342,c),
(680,407,l),
(675,412,o),
(672,416,o),
(661,416,cs),
(639,416,o),
(631,402,o),
(618,374,cs),
(570,274,o),
(425,56,o),
(364,56,cs),
(345,56,o),
(341,69,o),
(350,121,cs),
(399,380,ls),
(404,404,o),
(390,416,o),
(374,416,c),
(329,321,l),
(292,121,ls),
(278,45,o),
(293,-5,o),
(349,-5,cs)
);
},
{
closed = 1;
nodes = (
(175,-5,o),
(314,222,o),
(361,317,c),
(374,416,l),
(353,416,o),
(343,399,o),
(331,373,cs),
(261,223,o),
(126,55,o),
(77,55,cs),
(58,55,o),
(56,82,o),
(67,139,cs),
(112,380,ls),
(116,404,o),
(102,416,o),
(87,416,cs),
(72,416,o),
(55,405,o),
(51,384,cs),
(7,139,ls),
(-11,39,o),
(7,-5,o),
(62,-5,cs)
);
},
{
closed = 1;
nodes = (
(765,267,o),
(764,286,o),
(748,309,cs),
(680,407,l),
(636,364,l),
(700,272,ls),
(714,251,o),
(737,244,o),
(751,255,cs)
);
}
);
vertWidth = 0;
width = 752;
},
{
layerId = m002;
shapes = (
{
closed = 1;
nodes = (
(505,-6,o),
(576,94,o),
(702,286,c),
(726,396,l),
(718,406,o),
(702,416,o),
(685,416,cs),
(652,416,o),
(640,407,o),
(620,373,cs),
(519,206,o),
(440,91,o),
(416,91,cs),
(407,91,o),
(409,110,o),
(413,139,cs),
(451,354,ls),
(460,398,o),
(428,416,o),
(399,416,c),
(329,314,l),
(293,137,ls),
(278,58,o),
(305,-6,o),
(375,-6,cs)
);
},
{
closed = 1;
nodes = (
(173,-5,o),
(282,63,o),
(413,317,c),
(399,416,l),
(371,416,o),
(355,410,o),
(331,365,cs),
(266,239,o),
(152,93,o),
(137,93,cs),
(125,93,o),
(128,129,o),
(132,149,cs),
(169,354,ls),
(176,394,o),
(149,416,o),
(118,416,cs),
(86,416,o),
(57,399,o),
(50,361,cs),
(10,134,ls),
(-5,51,o),
(33,-5,o),
(95,-5,cs)
);
},
{
closed = 1;
nodes = (
(801,244,o),
(810,272,o),
(789,303,cs),
(726,396,l),
(636,329,l),
(694,247,ls),
(718,213,o),
(757,211,o),
(779,228,cs)
);
}
);
vertWidth = 0;
width = 797;
},
{
associatedMasterId = m01;
layerId = "5615C205-54A9-4EE9-B19C-8BD28178C8BB";
name = background;
shapes = (
{
closed = 1;
nodes = (
(404,404,o),
(390,416,o),
(374,416,c),
(329,321,l),
(292,121,ls),
(286,90,o),
(285,58,o),
(293,33,cs),
(302,11,o),
(318,-5,o),
(349,-5,cs),
(378,-5,o),
(409,8,o),
(438,30,cs),
(484,63,o),
(531,119,o),
(562,164,cs),
(602,221,o),
(657,320,o),
(669,342,cs),
(696,396,o),
(684,416,o),
(661,416,cs),
(639,416,o),
(632,400,o),
(618,374,cs),
(596,333,o),
(562,272,o),
(525,217,cs),
(486,158,o),
(444,106,o),
(404,75,cs),
(387,62,o),
(377,56,o),
(366,56,cs),
(356,56,o),
(348,61,o),
(347,71,cs),
(345,82,o),
(349,102,o),
(353,121,cs),
(399,380,ls)
);
},
{
closed = 1;
nodes = (
(353,416,o),
(345,400,o),
(330,374,cs),
(309,333,o),
(274,272,o),
(238,217,cs),
(198,158,o),
(157,106,o),
(116,75,cs),
(100,62,o),
(89,56,o),
(78,56,cs),
(69,56,o),
(61,61,o),
(59,71,cs),
(57,82,o),
(62,102,o),
(65,121,cs),
(112,380,ls),
(116,404,o),
(102,416,o),
(87,416,cs),
(72,416,o),
(55,405,o),
(51,384,cs),
(5,121,ls),
(-1,90,o),
(-2,58,o),
(6,33,cs),
(14,11,o),
(31,-5,o),
(62,-5,cs),
(90,-5,o),
(121,8,o),
(151,30,cs),
(196,63,o),
(244,119,o),
(274,164,cs),
(316,225,o),
(349,295,o),
(361,317,c),
(374,416,l)
);
},
{
closed = 1;
nodes = (
(646,349,l),
(699,273,ls),
(707,261,o),
(719,251,o),
(734,251,cs),
(746,251,o),
(758,258,o),
(762,271,cs),
(764,279,o),
(763,289,o),
(754,301,cs),
(680,409,l)
);
}
);
vertWidth = 0;
width = 594;
},
{
associatedMasterId = m002;
layerId = "069EA431-E6FB-4829-8AE5-A213E100A453";
name = background;
shapes = (
{
closed = 1;
nodes = (
(457,398,o),
(423,416,o),
(397,416,c),
(327,314,l),
(291,137,ls),
(285,107,o),
(287,74,o),
(296,46,cs),
(307,14,o),
(335,-6,o),
(373,-6,cs),
(412,-6,o),
(457,7,o),
(488,29,cs),
(533,59,o),
(574,102,o),
(600,140,cs),
(638,192,o),
(703,290,o),
(713,309,cs),
(756,393,o),
(709,416,o),
(683,416,cs),
(650,416,o),
(636,407,o),
(618,373,cs),
(602,343,o),
(583,312,o),
(552,266,cs),
(518,214,o),
(503,191,o),
(491,175,cs),
(480,160,o),
(453,126,o),
(446,119,cs),
(435,108,o),
(418,91,o),
(411,91,cs),
(405,91,o),
(407,121,o),
(411,139,cs),
(449,354,ls)
);
},
{
closed = 1;
nodes = (
(368,416,o),
(354,409,o),
(329,365,cs),
(317,343,o),
(303,317,o),
(274,273,cs),
(251,236,o),
(232,210,o),
(216,188,cs),
(206,172,o),
(188,150,o),
(166,125,cs),
(151,107,o),
(133,93,o),
(128,93,cs),
(122,93,o),
(126,129,o),
(129,149,cs),
(166,354,ls),
(173,394,o),
(146,416,o),
(115,416,cs),
(83,416,o),
(55,399,o),
(48,361,cs),
(7,134,ls),
(2,105,o),
(5,71,o),
(14,44,cs),
(25,12,o),
(57,-5,o),
(93,-5,cs),
(126,-5,o),
(175,8,o),
(204,29,cs),
(258,64,o),
(299,115,o),
(327,153,cs),
(369,217,o),
(407,289,o),
(412,297,c),
(405,416,l)
);
},
{
closed = 1;
nodes = (
(633,329,l),
(689,249,ls),
(702,230,o),
(723,217,o),
(745,217,cs),
(769,217,o),
(794,233,o),
(800,258,cs),
(802,272,o),
(798,285,o),
(786,303,cs),
(723,396,l)
);
}
);
vertWidth = 0;
width = 594;
}
);
unicode = 119;
},
{
color = 6;
glyphname = x;
layers = (
{
layerId = m01;
shapes = (
{
closed = 1;
nodes = (
(-36,-1,o),
(-17,-5,o),
(0,12,cs),
(169,179,l),
(183,191,l),
(361,366,ls),
(378,381,o),
(375,399,o),
(366,409,cs),
(355,419,o),
(335,422,o),
(318,405,cs),
(147,234,l),
(137,229,l),
(-39,55,ls),
(-56,38,o),
(-56,20,o),
(-45,10,cs)
);
},
{
closed = 1;
nodes = (
(316,18,o),
(315,33,o),
(303,51,cs),
(183,227,l),
(65,398,ls),
(52,417,o),
(34,421,o),
(20,409,cs),
(4,396,o),
(5,383,o),
(18,362,cs),
(138,188,l),
(255,15,ls),
(267,-1,o),
(285,-7,o),
(299,5,cs)
);
}
);
vertWidth = 0;
width = 388;
},
{
layerId = m002;
shapes = (
{
closed = 1;
nodes = (
(24,-4,o),
(62,-8,o),
(90,19,cs),
(233,159,l),
(255,172,l),
(416,327,ls),
(443,353,o),
(437,383,o),
(417,400,cs),
(398,418,o),
(364,424,o),
(336,398,cs),
(190,259,l),
(166,245,l),
(7,90,ls),
(-21,63,o),
(-14,34,o),
(5,15,cs)
);
},
{
closed = 1;
nodes = (
(369,33,o),
(377,61,o),
(359,87,cs),
(255,236,l),
(147,391,l),
(125,422,o),
(91,421,o),
(69,404,cs),
(48,388,o),
(38,359,o),
(57,331,c),
(166,173,l),
(270,24,ls),
(292,-10,o),
(329,-4,o),
(350,15,cs)
);
}
);
vertWidth = 0;
width = 463;
},
{
associatedMasterId = m01;
layerId = "6A03CD33-ADB9-4501-8A6B-F0C1718C1545";
name = background;
shapes = (
{
closed = 1;
nodes = (
(405,372,o),
(410,377,o),
(410,388,cs),
(410,396,o),
(407,403,o),
(402,409,cs),
(396,415,o),
(387,416,o),
(379,416,cs),
(371,415,o),
(362,411,o),
(356,405,c),
(-8,52,l),
(-17,43,o),
(-19,33,o),
(-18,25,cs),
(-17,19,o),
(-13,13,o),
(-8,7,cs),
(-4,2,o),
(2,0,o),
(11,0,cs),
(20,0,o),
(30,6,o),
(36,12,c),
(399,366,l)
);
},
{
closed = 1;
nodes = (
(94,410,o),
(87,416,o),
(77,416,cs),
(69,416,o),
(62,412,o),
(56,407,cs),
(50,403,o),
(46,396,o),
(45,388,cs),
(45,381,o),
(49,373,o),
(52,367,c),
(295,12,l),
(299,5,o),
(307,1,o),
(312,0,cs),
(321,-1,o),
(330,4,o),
(336,10,cs),
(342,15,o),
(347,24,o),
(347,32,cs),
(347,39,o),
(345,46,o),
(340,52,c),
(100,402,l)
);
}
);
vertWidth = 0;
width = 594;
},
{
associatedMasterId = m002;
layerId = "86E3A803-96D9-4DFD-ABAD-095B2BAC530A";
name = background;
shapes = (
{
closed = 1;
nodes = (
(383,339,o),
(390,349,o),
(390,367,cs),
(390,381,o),
(385,393,o),
(374,404,cs),
(365,413,o),
(347,416,o),
(331,416,cs),
(318,416,o),
(302,409,o),
(292,400,cs),
(-29,90,ls),
(-43,76,o),
(-48,62,o),
(-45,45,cs),
(-44,34,o),
(-39,25,o),
(-31,14,cs),
(-23,5,o),
(-6,0,o),
(10,0,cs),
(26,0,o),
(43,8,o),
(55,19,cs),
(372,329,ls)
);
},
{
closed = 1;
nodes = (
(100,410,o),
(84,416,o),
(68,416,cs),
(53,416,o),
(40,412,o),
(29,403,cs),
(18,394,o),
(11,381,o),
(10,368,cs),
(10,355,o),
(15,342,o),
(21,334,cs),
(234,21,ls),
(247,2,o),
(271,0,o),
(283,0,cs),
(297,0,o),
(310,8,o),
(318,17,cs),
(327,26,o),
(335,39,o),
(335,53,cs),
(335,64,o),
(330,74,o),
(323,84,cs),
(112,393,ls)
);
}
);
vertWidth = 0;
width = 594;
}
);
unicode = 120;
},
{
color = 6;
glyphname = y;
kernLeft = n_left;
kernRight = n_right;
layers = (
{
layerId = m01;
shapes = (
{
closed = 1;
nodes = (
(-77,-347,o),
(-61,-356,o),
(-32,-356,cs),
(-10,-356,o),
(95,-355,o),
(134,-349,cs),
(198,-340,o),
(245,-305,o),
(274,-258,cs),
(315,-194,o),
(326,-103,o),
(343,-4,cs),
(413,384,ls),
(417,404,o),
(400,416,o),
(390,416,cs),
(374,416,o),
(367,410,o),
(361,400,c),
(283,-4,ls),
(267,-84,o),
(259,-169,o),
(226,-225,cs),
(204,-260,o),
(172,-285,o),
(115,-292,cs),
(90,-295,o),
(-8,-297,o),
(-31,-297,cs),
(-62,-297,o),
(-77,-312,o),
(-77,-329,cs)
);
},
{
closed = 1;
nodes = (
(177,-5,o),
(304,201,o),
(367,310,c),
(361,400,l),
(280,265,o),
(144,53,o),
(83,53,cs),
(53,53,o),
(61,106,o),
(67,138,cs),
(109,381,ls),
(113,404,o),
(100,416,o),
(86,416,cs),
(70,416,o),
(52,405,o),
(49,383,cs),
(6,138,ls),
(-6,70,o),
(2,-5,o),
(71,-5,cs)
);
}
);
vertWidth = 0;
width = 489;
},
{
layerId = m002;
shapes = (
{
closed = 1;
nodes = (
(-67,-335,o),
(-57,-356,o),
(-11,-356,cs),
(12,-356,o),
(120,-354,o),
(158,-348,c),
(219,-340,o),
(272,-309,o),
(309,-254,cs),
(353,-189,o),
(362,-99,o),
(378,-6,cs),
(438,350,ls),
(446,393,o),
(437,416,o),
(392,416,cs),
(353,416,o),
(329,396,o),
(323,359,cs),
(264,4,ls),
(251,-74,o),
(241,-150,o),
(214,-196,cs),
(195,-226,o),
(164,-242,o),
(132,-246,cs),
(109,-248,o),
(11,-248,o),
(-10,-248,cs),
(-53,-248,o),
(-67,-274,o),
(-67,-305,cs)
);
},
{
closed = 1;
nodes = (
(197,-5,o),
(276,83,o),
(337,204,c),
(323,359,l),
(284,246,o),
(172,88,o),
(132,88,cs),
(120,88,o),
(121,112,o),
(126,141,cs),
(164,356,ls),
(170,392,o),
(156,416,o),
(114,416,cs),
(77,416,o),
(57,398,o),
(51,365,cs),
(13,151,ls),
(-1,69,o),
(15,-5,o),
(95,-5,cs)
);
}
);
vertWidth = 0;
width = 498;
},
{
associatedMasterId = m01;
layerId = "9D58BF54-4C87-4672-AAF6-CEFF946E073A";
name = background;
shapes = (
{
closed = 1;
nodes = (
(419,402,o),
(404,416,o),
(387,416,cs),
(373,416,o),
(356,405,o),
(352,380,cs),
(286,-4,ls),
(272,-84,o),
(263,-169,o),
(229,-225,cs),
(208,-260,o),
(176,-285,o),
(119,-292,cs),
(94,-295,o),
(-5,-297,o),
(-27,-297,cs),
(-58,-297,o),
(-74,-312,o),
(-74,-329,cs),
(-74,-347,o),
(-57,-356,o),
(-29,-356,cs),
(-6,-356,o),
(99,-355,o),
(138,-349,cs),
(202,-340,o),
(248,-305,o),
(278,-258,cs),
(318,-194,o),
(329,-103,o),
(347,-4,cs),
(415,377,ls)
);
},
{
closed = 1;
nodes = (
(282,267,o),
(147,53,o),
(87,53,cs),
(57,53,o),
(64,106,o),
(70,138,cs),
(113,381,ls),
(116,404,o),
(103,416,o),
(89,416,cs),
(74,416,o),
(56,405,o),
(52,383,cs),
(10,138,ls),
(-2,70,o),
(6,-5,o),
(75,-5,cs),
(181,-5,o),
(305,197,o),
(371,302,c),
(364,404,l)
);
}
);
vertWidth = 0;
width = 594;
},
{
associatedMasterId = m002;
layerId = "AD9F8E26-F4FE-4738-85A2-DF07A808D0E0";
name = background;
shapes = (
{
closed = 1;
nodes = (
(453,393,o),
(443,416,o),
(398,416,cs),
(359,416,o),
(333,396,o),
(327,359,cs),
(264,4,ls),
(249,-74,o),
(245,-150,o),
(217,-196,cs),
(198,-226,o),
(179,-241,o),
(135,-247,cs),
(113,-249,o),
(14,-248,o),
(-6,-248,cs),
(-50,-248,o),
(-63,-274,o),
(-63,-305,cs),
(-63,-335,o),
(-53,-356,o),
(-7,-356,cs),
(15,-356,o),
(124,-354,o),
(162,-348,cs),
(230,-336,o),
(283,-304,o),
(314,-255,cs),
(355,-188,o),
(366,-99,o),
(383,-6,cs),
(446,350,ls)
);
},
{
closed = 1;
nodes = (
(293,299,o),
(176,88,o),
(131,88,cs),
(121,88,o),
(125,112,o),
(129,141,cs),
(168,356,ls),
(173,392,o),
(159,416,o),
(118,416,cs),
(81,416,o),
(61,398,o),
(55,365,cs),
(17,151,ls),
(2,69,o),
(19,-5,o),
(99,-5,cs),
(241,-5,o),
(293,128,o),
(348,182,c),
(337,387,l)
);
}
);
vertWidth = 0;
width = 594;
}
);
unicode = 121;
},
{
color = 6;
glyphname = z;
layers = (
{
layerId = m01;
shapes = (
{
closed = 1;
nodes = (
(-42,13,o),
(-29,0,o),
(-13,0,c),
(7,12,l),
(373,366,l),
(379,372,o),
(384,377,o),
(384,388,cs),
(384,406,o),
(369,416,o),
(353,416,c),
(334,405,l),
(-29,58,ls),
(-38,49,o),
(-42,38,o),
(-42,29,cs)
);
},
{
closed = 1;
nodes = (
(317,44,o),
(310,59,o),
(286,59,cs),
(11,59,l),
(-13,0,l),
(286,0,ls),
(310,0,o),
(317,15,o),
(317,30,cs)
);
},
{
closed = 1;
nodes = (
(25,372,o),
(32,356,o),
(56,356,cs),
(327,356,l),
(353,416,l),
(56,416,ls),
(32,416,o),
(25,400,o),
(25,386,cs)
);
}
);
vertWidth = 0;
width = 407;
},
{
layerId = m002;
shapes = (
{
closed = 1;
nodes = (
(-12,24,o),
(11,0,o),
(43,0,c),
(89,26,l),
(394,329,ls),
(405,340,o),
(412,349,o),
(412,367,cs),
(412,396,o),
(393,416,o),
(354,416,c),
(315,393,l),
(6,89,ls),
(-6,77,o),
(-12,64,o),
(-12,51,cs)
);
},
{
closed = 1;
nodes = (
(369,80,o),
(348,101,o),
(312,101,cs),
(88,101,l),
(43,0,l),
(312,0,ls),
(348,0,o),
(369,23,o),
(369,51,cs)
);
},
{
closed = 1;
nodes = (
(44,334,o),
(65,309,o),
(101,309,cs),
(305,309,l),
(355,416,l),
(101,416,ls),
(65,416,o),
(44,391,o),
(44,362,cs)
);
}
);
vertWidth = 0;
width = 462;
},
{
associatedMasterId = m01;
layerId = "6F8E4953-0E24-4BF1-8474-E33C6320F5EC";
name = background;
shapes = (
{
closed = 1;
nodes = (
(377,372,o),
(381,377,o),
(381,388,cs),
(381,396,o),
(379,403,o),
(373,409,cs),
(367,415,o),
(359,416,o),
(350,416,cs),
(342,415,o),
(334,411,o),
(328,405,c),
(-37,52,ls),
(-46,44,o),
(-48,33,o),
(-46,25,cs),
(-45,19,o),
(-42,13,o),
(-37,7,cs),
(-32,2,o),
(-26,0,o),
(-18,0,cs),
(-8,0,o),
(1,6,o),
(7,12,c),
(371,366,l)
);
},
{
closed = 1;
nodes = (
(318,44,o),
(311,59,o),
(287,59,cs),
(6,59,l),
(-20,0,l),
(287,0,ls),
(311,0,o),
(318,15,o),
(318,30,cs)
);
},
{
closed = 1;
nodes = (
(17,372,o),
(24,356,o),
(48,356,cs),
(324,356,l),
(353,416,l),
(48,416,ls),
(24,416,o),
(17,400,o),
(17,386,cs)
);
}
);
vertWidth = 0;
width = 594;
},
{
associatedMasterId = m002;
layerId = "E976A456-816C-481C-846A-1AA163B5988A";
name = background;
shapes = (
{
closed = 1;
nodes = (
(381,339,o),
(388,349,o),
(388,367,cs),
(388,381,o),
(383,393,o),
(373,404,cs),
(362,413,o),
(346,416,o),
(330,416,cs),
(316,416,o),
(301,409,o),
(291,400,cs),
(-30,89,ls),
(-43,77,o),
(-49,62,o),
(-46,45,cs),
(-45,34,o),
(-40,25,o),
(-32,14,cs),
(-24,5,o),
(-7,0,o),
(8,0,cs),
(25,0,o),
(42,8,o),
(53,19,cs),
(371,329,ls)
);
},
{
closed = 1;
nodes = (
(277,0,ls),
(312,0,o),
(334,23,o),
(334,51,cs),
(334,80,o),
(312,101,o),
(277,101,cs),
(52,101,l),
(7,0,l)
);
},
{
closed = 1;
nodes = (
(331,416,l),
(65,416,ls),
(30,416,o),
(8,391,o),
(8,362,cs),
(8,334,o),
(30,309,o),
(65,309,cs),
(282,309,l)
);
}
);
vertWidth = 0;
width = 594;
}
);
unicode = 122;
},
{
color = 6;
glyphname = a.sc;
layers = (
{
guides = (
{
name = " [#IWP0CKaMnU]";
pos = (211,396);
}
);
layerId = m01;
shapes = (
{
closed = 1;
nodes = (
(247,434,l),
(252,453,o),
(240,470,o),
(219,470,cs),
(201,470,o),
(195,460,o),
(189,448,cs),
(-23,42,ls),
(-33,21,o),
(-19,0,o),
(1,0,cs),
(19,0,o),
(26,7,o),
(36,25,cs),
(245,426,l)
);
},
{
closed = 1;
nodes = (
(245,208,l),
(240,257,l),
(105,257,l),
(77,208,l)
);
},
{
closed = 1;
nodes = (
(190,425,l),
(225,30,ls),
(226,15,o),
(233,0,o),
(255,0,cs),
(273,0,o),
(286,12,o),
(284,33,cs),
(248,449,l)
);
}
);
vertWidth = 0;
width = 381;
},
{
guides = (
{
pos = (234,396);
}
);
layerId = m002;
shapes = (
{
closed = 1;
nodes = (
(280,413,l),
(291,451,o),
(270,470,o),
(233,470,cs),
(204,470,o),
(190,455,o),
(181,436,cs),
(-6,77,ls),
(-25,40,o),
(-13,0,o),
(26,0,cs),
(52,0,o),
(70,11,o),
(83,37,cs),
(260,377,l)
);
},
{
closed = 1;
nodes = (
(290,179,l),
(282,263,l),
(115,263,l),
(64,179,l)
);
},
{
closed = 1;
nodes = (
(203,387,l),
(223,53,ls),
(226,21,o),
(240,0,o),
(273,0,cs),
(305,0,o),
(324,25,o),
(321,59,cs),
(283,441,l)
);
}
);
vertWidth = 0;
width = 415;
}
);
metricLeft = A;
metricRight = A;
},
{
color = 6;
glyphname = b.sc;
layers = (
{
layerId = m01;
shapes = (
{
closed = 1;
nodes = (
(230,-1,o),
(276,21,o),
(292,109,cs),
(309,208,o),
(203,266,o),
(91,266,c),
(82,203,l),
(179,203,o),
(242,171,o),
(234,119,cs),
(225,70,o),
(183,58,o),
(52,59,c),
(43,0,l)
);
},
{
closed = 1;
nodes = (
(150,456,o),
(137,470,o),
(119,470,cs),
(101,470,o),
(89,460,o),
(86,438,cs),
(15,38,ls),
(12,18,o),
(25,0,o),
(44,0,cs),
(58,0,o),
(71,10,o),
(75,32,cs),
(145,431,ls)
);
},
{
closed = 1;
nodes = (
(276,203,o),
(317,252,o),
(331,334,cs),
(348,428,o),
(259,470,o),
(118,470,c),
(106,410,l),
(228,411,o),
(282,391,o),
(272,340,cs),
(265,293,o),
(242,266,o),
(96,266,c),
(86,203,l)
);
}
);
vertWidth = 0;
width = 364;
},
{
layerId = m002;
shapes = (
{
closed = 1;
nodes = (
(213,444,o),
(187,470,o),
(152,470,cs),
(122,470,o),
(100,451,o),
(94,418,cs),
(31,64,ls),
(25,30,o),
(51,0,o),
(87,0,cs),
(113,0,o),
(138,19,o),
(144,51,cs),
(206,404,ls)
);
},
{
closed = 1;
nodes = (
(257,0,o),
(316,20,o),
(336,119,cs),
(355,236,o),
(222,268,o),
(102,268,c),
(86,182,l),
(189,182,o),
(235,168,o),
(230,137,cs),
(226,108,o),
(202,95,o),
(102,95,c),
(86,0,l)
);
},
{
closed = 1;
nodes = (
(305,182,o),
(354,230,o),
(371,317,cs),
(390,429,o),
(277,470,o),
(149,470,c),
(128,377,l),
(241,377,o),
(270,359,o),
(265,333,cs),
(258,295,o),
(247,268,o),
(106,268,c),
(89,182,l)
);
}
);
vertWidth = 0;
width = 405;
}
);
metricLeft = B;
metricRight = B;
},
{
color = 6;
glyphname = c.sc;
layers = (
{
layerId = m01;
shapes = (
{
closed = 1;
nodes = (
(203,0,o),
(252,37,o),
(310,122,cs),
(327,149,o),
(327,154,o),
(327,160,cs),
(327,176,o),
(316,188,o),
(302,188,cs),
(285,188,o),
(278,181,o),
(263,159,cs),
(211,86,o),
(181,59,o),
(143,59,cs),
(113,59,o),
(109,84,o),
(109,109,cs),
(109,145,o),
(119,214,o),
(126,248,cs),
(143,330,o),
(160,411,o),
(310,411,cs),
(347,411,o),
(354,410,o),
(364,415,cs),
(379,423,o),
(381,453,o),
(366,463,cs),
(358,468,o),
(348,470,o),
(310,470,cs),
(115,470,o),
(84,358,o),
(65,248,cs),
(63,234,o),
(50,156,o),
(50,110,cs),
(50,61,o),
(67,0,o),
(144,0,cs)
);
}
);
vertWidth = 0;
width = 352;
},
{
layerId = m002;
shapes = (
{
closed = 1;
nodes = (
(236,0,o),
(280,40,o),
(336,120,cs),
(352,145,o),
(356,169,o),
(352,187,cs),
(347,208,o),
(330,221,o),
(304,221,cs),
(278,221,o),
(265,210,o),
(245,183,cs),
(201,120,o),
(184,107,o),
(170,107,cs),
(163,107,o),
(163,118,o),
(163,134,cs),
(163,165,o),
(172,211,o),
(177,241,cs),
(190,315,o),
(203,364,o),
(311,364,cs),
(328,364,o),
(359,362,o),
(373,371,cs),
(406,388,o),
(410,438,o),
(377,460,cs),
(366,466,o),
(336,470,o),
(311,470,cs),
(114,470,o),
(82,349,o),
(64,251,cs),
(63,241,o),
(51,176,o),
(51,132,cs),
(51,72,o),
(62,0,o),
(164,0,cs)
);
}
);
vertWidth = 0;
width = 396;
}
);
metricLeft = C;
metricRight = C;
},
{
color = 6;
glyphname = d.sc;
layers = (
{
layerId = m01;
shapes = (
{
closed = 1;
nodes = (
(88,0,ls),
(208,0,o),
(320,93,o),
(347,249,cs),
(368,374,o),
(270,470,o),
(144,470,cs),
(119,470,l),
(113,406,l),
(147,406,ls),
(239,406,o),
(303,341,o),
(287,254,cs),
(266,127,o),
(177,59,o),
(88,59,cs),
(57,59,l),
(44,0,l)
);
},
{
closed = 1;
nodes = (
(149,448,o),
(141,470,o),
(120,470,cs),
(100,470,o),
(90,461,o),
(87,438,cs),
(15,34,ls),
(12,17,o),
(24,0,o),
(45,0,cs),
(67,0,o),
(72,14,o),
(75,26,cs),
(145,426,ls)
);
}
);
vertWidth = 0;
width = 397;
},
{
layerId = m002;
shapes = (
{
closed = 1;
nodes = (
(125,0,ls),
(245,0,o),
(356,93,o),
(384,244,cs),
(405,372,o),
(302,470,o),
(173,470,cs),
(152,470,l),
(140,375,l),
(177,375,ls),
(245,375,o),
(283,321,o),
(271,257,cs),
(255,153,o),
(192,88,o),
(125,88,cs),
(110,88,l),
(86,0,l)
);
},
{
closed = 1;
nodes = (
(210,436,o),
(191,470,o),
(153,470,cs),
(126,470,o),
(101,457,o),
(94,419,cs),
(31,62,ls),
(25,29,o),
(50,0,o),
(87,0,cs),
(119,0,o),
(137,20,o),
(143,45,c),
(204,399,ls)
);
}
);
vertWidth = 0;
width = 442;
}
);
metricLeft = D;
metricRight = D;
},
{
color = 6;
glyphname = e.sc;
layers = (
{
layerId = m01;
shapes = (
{
closed = 1;
nodes = (
(147,449,o),
(141,470,o),
(119,470,cs),
(97,470,o),
(89,461,o),
(86,438,cs),
(14,34,ls),
(12,18,o),
(23,0,o),
(43,0,cs),
(65,0,o),
(71,17,o),
(74,29,cs),
(144,428,ls)
);
},
{
closed = 1;
nodes = (
(265,0,ls),
(285,0,o),
(296,17,o),
(296,32,cs),
(296,48,o),
(285,63,o),
(265,63,cs),
(52,63,l),
(42,0,l)
);
},
{
closed = 1;
nodes = (
(283,207,ls),
(303,207,o),
(314,221,o),
(314,235,cs),
(314,251,o),
(303,266,o),
(283,266,cs),
(88,266,l),
(78,207,l)
);
},
{
closed = 1;
nodes = (
(339,407,ls),
(358,407,o),
(368,421,o),
(368,438,cs),
(368,456,o),
(358,470,o),
(339,470,cs),
(118,470,l),
(107,407,l)
);
}
);
vertWidth = 0;
width = 323;
},
{
layerId = m002;
shapes = (
{
closed = 1;
nodes = (
(211,436,o),
(194,470,o),
(153,470,cs),
(124,470,o),
(100,456,o),
(94,419,cs),
(31,62,ls),
(25,30,o),
(50,0,o),
(86,0,cs),
(119,0,o),
(138,21,o),
(143,49,cs),
(206,402,ls)
);
},
{
closed = 1;
nodes = (
(283,0,ls),
(317,0,o),
(340,21,o),
(340,50,cs),
(340,78,o),
(316,91,o),
(283,91,cs),
(102,91,l),
(83,0,l)
);
},
{
closed = 1;
nodes = (
(298,179,ls),
(331,179,o),
(355,195,o),
(355,223,cs),
(355,253,o),
(331,267,o),
(298,267,cs),
(118,267,l),
(101,179,l)
);
},
{
closed = 1;
nodes = (
(348,360,ls),
(380,360,o),
(404,384,o),
(404,415,cs),
(404,447,o),
(380,470,o),
(348,470,cs),
(150,470,l),
(131,360,l)
);
}
);
vertWidth = 0;
width = 385;
}
);
metricLeft = E;
metricRight = E;
},
{
color = 6;
glyphname = f.sc;
layers = (
{
layerId = m01;
shapes = (
{
closed = 1;
nodes = (
(149,448,o),
(141,470,o),
(119,470,cs),
(97,470,o),
(89,461,o),
(86,438,cs),
(14,34,ls),
(12,18,o),
(23,0,o),
(43,0,cs),
(65,0,o),
(72,17,o),
(75,29,cs),
(145,426,ls)
);
},
{
closed = 1;
nodes = (
(282,208,ls),
(303,208,o),
(312,222,o),
(312,236,cs),
(312,254,o),
(302,267,o),
(282,267,cs),
(88,267,l),
(78,208,l)
);
},
{
closed = 1;
nodes = (
(339,407,ls),
(358,407,o),
(368,421,o),
(368,438,cs),
(368,456,o),
(358,470,o),
(339,470,cs),
(118,470,l),
(108,407,l)
);
}
);
vertWidth = 0;
width = 318;
},
{
layerId = m002;
shapes = (
{
closed = 1;
nodes = (
(213,435,o),
(195,470,o),
(154,470,cs),
(125,470,o),
(101,456,o),
(95,419,cs),
(32,62,ls),
(26,30,o),
(51,0,o),
(87,0,cs),
(120,0,o),
(140,23,o),
(145,48,cs),
(207,399,ls)
);
},
{
closed = 1;
nodes = (
(298,179,ls),
(333,179,o),
(355,200,o),
(355,228,cs),
(355,259,o),
(331,267,o),
(298,267,cs),
(149,267,l),
(132,179,l)
);
},
{
closed = 1;
nodes = (
(349,360,ls),
(381,360,o),
(405,384,o),
(405,415,cs),
(405,447,o),
(381,470,o),
(349,470,cs),
(153,470,l),
(137,360,l)
);
}
);
vertWidth = 0;
width = 386;
}
);
metricLeft = F;
metricRight = F;
},
{
color = 6;
glyphname = g.sc;
layers = (
{
layerId = m01;
shapes = (
{
closed = 1;
nodes = (
(311,266,o),
(310,273,o),
(259,195,cs),
(234,157,o),
(168,57,o),
(128,57,cs),
(114,57,o),
(109,76,o),
(109,106,cs),
(109,149,o),
(122,222,o),
(131,258,cs),
(144,328,o),
(170,407,o),
(321,407,cs),
(359,407,ls),
(377,407,o),
(388,423,o),
(388,440,cs),
(388,455,o),
(377,470,o),
(361,470,cs),
(322,470,ls),
(127,470,o),
(86,356,o),
(67,246,cs),
(64,232,o),
(50,153,o),
(50,109,cs),
(50,58,o),
(70,-2,o),
(126,-2,cs),
(183,-2,o),
(239,62,o),
(292,137,c),
(329,266,l)
);
},
{
closed = 1;
nodes = (
(356,253,o),
(346,266,o),
(328,266,cs),
(308,266,o),
(296,254,o),
(292,235,cs),
(257,34,ls),
(254,20,o),
(263,0,o),
(283,0,cs),
(307,0,o),
(315,17,o),
(317,30,cs),
(353,230,ls)
);
}
);
vertWidth = 0;
width = 388;
},
{
layerId = m002;
shapes = (
{
closed = 1;
nodes = (
(310,290,o),
(292,259,o),
(252,196,cs),
(206,125,o),
(176,102,o),
(168,102,cs),
(162,102,o),
(160,125,o),
(165,154,cs),
(172,195,o),
(177,223,o),
(183,259,cs),
(188,285,o),
(192,360,o),
(346,360,cs),
(365,360,ls),
(405,360,o),
(421,390,o),
(422,416,cs),
(423,444,o),
(399,470,o),
(365,470,cs),
(346,470,ls),
(151,470,o),
(87,369,o),
(68,259,cs),
(65,245,o),
(51,165,o),
(51,121,cs),
(51,70,o),
(84,-2,o),
(150,-2,cs),
(207,-2,o),
(263,62,o),
(316,137,c),
(353,290,l)
);
},
{
closed = 1;
nodes = (
(398,252,o),
(384,290,o),
(352,290,cs),
(349,290,o),
(309,282,o),
(304,263,cs),
(251,53,ls),
(246,33,o),
(261,0,o),
(307,0,cs),
(335,0,o),
(359,26,o),
(361,43,cs),
(394,233,ls)
);
}
);
vertWidth = 0;
width = 417;
}
);
metricLeft = G;
metricRight = G;
},
{
color = 6;
glyphname = h.sc;
layers = (
{
layerId = m01;
shapes = (
{
closed = 1;
nodes = (
(422,453,o),
(411,469,o),
(390,469,cs),
(372,469,o),
(361,456,o),
(359,441,cs),
(287,36,ls),
(285,20,o),
(292,0,o),
(316,0,cs),
(333,0,o),
(345,12,o),
(347,27,cs),
(418,432,ls)
);
},
{
closed = 1;
nodes = (
(149,453,o),
(138,469,o),
(119,469,cs),
(101,469,o),
(89,457,o),
(86,438,cs),
(14,34,ls),
(12,18,o),
(23,0,o),
(43,0,cs),
(63,0,o),
(71,15,o),
(74,29,cs),
(144,426,ls)
);
},
{
closed = 1;
nodes = (
(335,207,l),
(345,266,l),
(100,266,l),
(90,207,l)
);
}
);
vertWidth = 0;
width = 434;
},
{
layerId = m002;
shapes = (
{
closed = 1;
nodes = (
(454,441,o),
(429,469,o),
(392,469,cs),
(362,469,o),
(341,449,o),
(336,422,cs),
(273,63,ls),
(268,33,o),
(287,0,o),
(327,0,cs),
(356,0,o),
(380,20,o),
(385,48,cs),
(448,406,ls)
);
},
{
closed = 1;
nodes = (
(213,443,o),
(187,469,o),
(152,469,cs),
(122,469,o),
(99,449,o),
(94,419,cs),
(31,62,ls),
(25,30,o),
(50,0,o),
(86,0,cs),
(115,0,o),
(138,20,o),
(143,48,cs),
(204,399,ls)
);
},
{
closed = 1;
nodes = (
(317,179,l),
(334,267,l),
(153,267,l),
(137,179,l)
);
}
);
vertWidth = 0;
width = 479;
}
);
metricLeft = H;
metricRight = H;
},
{
color = 6;
glyphname = i.sc;
layers = (
{
layerId = m01;
shapes = (
{
closed = 1;
nodes = (
(112,50,l),
(177,425,l),
(116,425,l),
(51,50,l)
);
},
{
closed = 1;
nodes = (
(133,0,o),
(144,14,o),
(144,30,cs),
(144,45,o),
(133,59,o),
(113,59,cs),
(46,59,ls),
(26,59,o),
(15,45,o),
(15,30,cs),
(15,14,o),
(26,0,o),
(46,0,cs),
(113,0,ls)
);
},
{
closed = 1;
nodes = (
(201,410,o),
(210,424,o),
(210,440,cs),
(210,455,o),
(201,470,o),
(179,470,cs),
(114,470,ls),
(93,470,o),
(83,455,o),
(83,440,cs),
(83,424,o),
(93,410,o),
(114,410,cs),
(179,410,ls)
);
}
);
vertWidth = 0;
width = 216;
},
{
layerId = m002;
shapes = (
{
closed = 1;
nodes = (
(171,72,l),
(229,397,l),
(116,397,l),
(58,72,l)
);
},
{
closed = 1;
nodes = (
(177,0,o),
(201,15,o),
(201,45,cs),
(201,74,o),
(177,89,o),
(144,89,cs),
(84,89,ls),
(51,89,o),
(27,74,o),
(27,45,cs),
(27,15,o),
(51,0,o),
(84,0,cs),
(144,0,ls)
);
},
{
closed = 1;
nodes = (
(238,380,o),
(260,396,o),
(260,424,cs),
(260,454,o),
(238,470,o),
(203,470,cs),
(145,470,ls),
(110,470,o),
(88,454,o),
(88,424,cs),
(88,396,o),
(110,380,o),
(145,380,cs),
(203,380,ls)
);
}
);
vertWidth = 0;
width = 279;
}
);
metricLeft = I;
metricRight = I;
},
{
color = 6;
glyphname = j.sc;
layers = (
{
layerId = m01;
shapes = (
{
closed = 1;
nodes = (
(188,421,l),
(152,219,ls),
(144,171,o),
(135,128,o),
(120,97,cs),
(112,81,o),
(97,71,o),
(72,68,cs),
(55,65,o),
(-7,63,o),
(-24,63,cs),
(-38,63,o),
(-53,48,o),
(-53,31,cs),
(-53,14,o),
(-38,0,o),
(-24,0,cs),
(-2,0,o),
(59,4,o),
(72,5,cs),
(125,12,o),
(153,34,o),
(171,65,cs),
(190,93,o),
(208,189,o),
(213,219,cs),
(248,421,l)
);
},
{
closed = 1;
nodes = (
(331,407,o),
(342,423,o),
(342,438,cs),
(342,454,o),
(331,470,o),
(311,470,cs),
(133,470,ls),
(113,470,o),
(102,456,o),
(102,438,cs),
(102,421,o),
(113,407,o),
(133,407,cs),
(311,407,ls)
);
}
);
vertWidth = 0;
width = 282;
},
{
layerId = m002;
shapes = (
{
closed = 1;
nodes = (
(181,393,l),
(151,226,ls),
(144,183,o),
(138,156,o),
(128,129,cs),
(124,118,o),
(102,113,o),
(91,112,cs),
(78,110,o),
(21,110,o),
(7,110,cs),
(-23,110,o),
(-49,83,o),
(-49,55,cs),
(-49,24,o),
(-21,0,o),
(7,0,cs),
(14,0,o),
(44,0,o),
(57,0,cs),
(149,0,o),
(197,27,o),
(226,71,cs),
(241,95,o),
(259,190,o),
(264,216,cs),
(293,393,l)
);
},
{
closed = 1;
nodes = (
(354,378,o),
(378,396,o),
(378,424,cs),
(378,453,o),
(355,470,o),
(321,470,cs),
(164,470,ls),
(129,470,o),
(107,456,o),
(107,424,cs),
(107,393,o),
(129,378,o),
(164,378,cs),
(321,378,ls)
);
}
);
vertWidth = 0;
width = 323;
}
);
metricLeft = J;
metricRight = J;
},
{
color = 6;
glyphname = k.sc;
layers = (
{
layerId = m01;
shapes = (
{
closed = 1;
nodes = (
(150,454,o),
(140,470,o),
(120,470,cs),
(102,470,o),
(90,457,o),
(87,438,cs),
(15,38,ls),
(12,19,o),
(25,0,o),
(44,0,cs),
(65,0,o),
(72,18,o),
(75,33,cs),
(146,431,ls)
);
},
{
closed = 1;
nodes = (
(90,249,l),
(90,213,l),
(225,19,ls),
(233,7,o),
(244,0,o),
(255,0,cs),
(270,0,o),
(280,10,o),
(283,21,c),
(286,30,o),
(284,38,o),
(276,50,cs),
(137,249,l)
);
},
{
closed = 1;
nodes = (
(132,240,l),
(339,411,ls),
(349,419,o),
(355,430,o),
(358,438,cs),
(360,455,o),
(348,470,o),
(331,470,cs),
(323,470,o),
(311,467,o),
(301,457,cs),
(90,283,l),
(90,240,l)
);
}
);
vertWidth = 0;
width = 324;
},
{
layerId = m002;
shapes = (
{
closed = 1;
nodes = (
(213,442,o),
(189,470,o),
(153,470,cs),
(124,470,o),
(100,449,o),
(95,419,cs),
(32,65,ls),
(25,32,o),
(51,0,o),
(87,0,cs),
(120,0,o),
(139,24,o),
(144,52,cs),
(207,404,ls)
);
},
{
closed = 1;
nodes = (
(97,276,l),
(97,207,l),
(221,29,ls),
(234,10,o),
(254,0,o),
(273,0,cs),
(299,0,o),
(322,17,o),
(327,40,c),
(331,55,o),
(328,70,o),
(316,87,cs),
(185,276,l)
);
},
{
closed = 1;
nodes = (
(176,213,l),
(367,371,ls),
(381,381,o),
(391,397,o),
(393,410,cs),
(398,443,o),
(373,470,o),
(341,470,cs),
(327,470,o),
(308,465,o),
(292,450,cs),
(97,289,l),
(97,213,l)
);
}
);
vertWidth = 0;
width = 390;
}
);
metricLeft = K;
metricRight = K;
},
{
color = 6;
glyphname = l.sc;
layers = (
{
layerId = m01;
shapes = (
{
closed = 1;
nodes = (
(150,453,o),
(141,469,o),
(120,469,cs),
(102,469,o),
(90,457,o),
(87,438,cs),
(15,34,ls),
(12,17,o),
(24,0,o),
(45,0,cs),
(67,0,o),
(72,17,o),
(75,29,cs),
(146,431,ls)
);
},
{
closed = 1;
nodes = (
(267,0,ls),
(286,0,o),
(297,17,o),
(297,32,cs),
(297,48,o),
(286,63,o),
(267,63,cs),
(44,63,l),
(44,0,l)
);
}
);
vertWidth = 0;
width = 341;
},
{
layerId = m002;
shapes = (
{
closed = 1;
nodes = (
(213,442,o),
(189,469,o),
(153,469,cs),
(125,469,o),
(100,450,o),
(94,419,cs),
(31,62,ls),
(25,29,o),
(50,0,o),
(87,0,cs),
(119,0,o),
(138,21,o),
(143,49,cs),
(206,404,ls)
);
},
{
closed = 1;
nodes = (
(284,0,ls),
(317,0,o),
(340,20,o),
(340,49,cs),
(340,76,o),
(317,91,o),
(284,91,cs),
(86,91,l),
(86,0,l)
);
}
);
vertWidth = 0;
width = 394;
}
);
metricLeft = L;
metricRight = L;
},
{
color = 6;
glyphname = m.sc;
layers = (
{
layerId = m01;
shapes = (
{
closed = 1;
nodes = (
(222,470,l),
(204,470,o),
(197,461,o),
(188,443,cs),
(-20,46,ls),
(-31,25,o),
(-20,0,o),
(4,0,cs),
(13,0,o),
(26,6,o),
(36,25,cs),
(226,388,l)
);
},
{
closed = 1;
nodes = (
(251,444,ls),
(249,457,o),
(242,470,o),
(222,470,c),
(195,388,l),
(223,29,ls),
(225,13,o),
(232,0,o),
(252,0,c),
(280,59,l)
);
},
{
closed = 1;
nodes = (
(270,0,o),
(278,10,o),
(284,20,cs),
(476,388,l),
(473,470,l),
(457,470,o),
(447,461,o),
(441,449,cs),
(242,69,l),
(251,0,l)
);
},
{
closed = 1;
nodes = (
(501,456,o),
(489,470,o),
(473,470,c),
(447,388,l),
(476,30,ls),
(478,14,o),
(487,0,o),
(507,0,cs),
(526,0,o),
(537,15,o),
(536,33,cs),
(503,436,ls)
);
}
);
vertWidth = 0;
width = 638;
},
{
layerId = m002;
shapes = (
{
closed = 1;
nodes = (
(211,470,l),
(185,470,o),
(171,467,o),
(153,432,cs),
(-31,80,ls),
(-50,43,o),
(-25,0,o),
(17,0,cs),
(36,0,o),
(58,11,o),
(71,37,cs),
(244,365,l)
);
},
{
closed = 1;
nodes = (
(265,423,ls),
(263,457,o),
(238,470,o),
(213,470,c),
(157,374,l),
(182,50,ls),
(184,13,o),
(210,0,o),
(236,0,c),
(291,75,l)
);
},
{
closed = 1;
nodes = (
(265,0,o),
(277,6,o),
(291,33,cs),
(465,365,l),
(443,470,l),
(412,470,o),
(391,462,o),
(377,435,cs),
(197,93,l),
(238,0,l)
);
},
{
closed = 1;
nodes = (
(494,462,o),
(474,470,o),
(442,470,c),
(387,374,l),
(415,51,ls),
(417,23,o),
(440,0,o),
(472,0,cs),
(506,0,o),
(530,26,o),
(527,59,cs),
(498,416,ls)
);
}
);
vertWidth = 0;
width = 608;
}
);
metricLeft = M;
metricRight = M;
},
{
color = 6;
glyphname = n.sc;
layers = (
{
layerId = m01;
shapes = (
{
closed = 1;
nodes = (
(150,447,ls),
(144,460,o),
(135,470,o),
(116,470,c),
(105,404,l),
(285,26,ls),
(291,14,o),
(301,0,o),
(317,0,c),
(334,62,l)
);
},
{
closed = 1;
nodes = (
(118,470,l),
(99,470,o),
(89,459,o),
(86,438,cs),
(14,34,ls),
(12,18,o),
(23,0,o),
(43,0,cs),
(63,0,o),
(71,15,o),
(74,31,cs),
(140,404,l)
);
},
{
closed = 1;
nodes = (
(336,0,o),
(346,14,o),
(348,26,cs),
(418,431,ls),
(422,453,o),
(412,469,o),
(392,469,cs),
(374,469,o),
(362,457,o),
(359,438,cs),
(293,62,l),
(318,0,l)
);
}
);
vertWidth = 0;
width = 434;
},
{
layerId = m002;
shapes = (
{
closed = 1;
nodes = (
(208,435,ls),
(195,462,o),
(172,470,o),
(149,470,c),
(109,381,l),
(273,38,ls),
(284,17,o),
(296,0,o),
(341,0,c),
(374,84,l)
);
},
{
closed = 1;
nodes = (
(147,470,l),
(120,470,o),
(102,463,o),
(94,419,cs),
(31,62,ls),
(25,30,o),
(50,0,o),
(86,0,cs),
(115,0,o),
(140,20,o),
(145,50,cs),
(204,387,l)
);
},
{
closed = 1;
nodes = (
(371,0,o),
(381,18,o),
(386,45,cs),
(448,405,ls),
(454,437,o),
(432,469,o),
(394,469,cs),
(366,469,o),
(340,450,o),
(335,419,cs),
(277,80,l),
(342,0,l)
);
}
);
vertWidth = 0;
width = 479;
}
);
metricLeft = N;
metricRight = N;
},
{
color = 6;
glyphname = o.sc;
layers = (
{
layerId = m01;
shapes = (
{
closed = 1;
nodes = (
(268,-2,o),
(402,183,o),
(411,311,cs),
(418,394,o),
(377,470,o),
(267,470,cs),
(163,470,o),
(102,400,o),
(71,296,cs),
(63,268,o),
(57,236,o),
(55,204,cs),
(46,110,o),
(69,-2,o),
(158,-2,cs)
);
},
{
closed = 1;
nodes = (
(119,61,o),
(109,135,o),
(114,196,cs),
(116,223,o),
(121,252,o),
(127,274,cs),
(152,365,o),
(190,407,o),
(264,407,cs),
(347,407,o),
(355,350,o),
(352,309,cs),
(341,203,o),
(215,61,o),
(157,61,cs)
);
}
);
vertWidth = 0;
width = 437;
},
{
layerId = m002;
shapes = (
{
closed = 1;
nodes = (
(305,-4,o),
(431,176,o),
(441,299,cs),
(448,386,o),
(400,470,o),
(284,470,cs),
(175,470,o),
(112,396,o),
(82,296,cs),
(75,270,o),
(68,239,o),
(67,208,cs),
(58,119,o),
(82,-4,o),
(188,-4,cs)
);
},
{
closed = 1;
nodes = (
(176,107,o),
(173,146,o),
(178,197,cs),
(181,221,o),
(184,245,o),
(189,261,cs),
(209,336,o),
(229,360,o),
(280,360,cs),
(329,360,o),
(333,335,o),
(329,302,cs),
(321,216,o),
(223,107,o),
(187,107,cs)
);
}
);
vertWidth = 0;
width = 485;
}
);
metricLeft = O;
metricRight = O;
},
{
color = 6;
glyphname = p.sc;
layers = (
{
layerId = m01;
shapes = (
{
closed = 1;
nodes = (
(197,220,o),
(343,211,o),
(343,336,cs),
(343,431,o),
(267,470,o),
(118,470,c),
(118,407,l),
(239,409,o),
(284,385,o),
(284,340,cs),
(284,274,o),
(176,283,o),
(100,283,c),
(89,220,l)
);
},
{
closed = 1;
nodes = (
(149,455,o),
(132,470,o),
(119,470,cs),
(97,470,o),
(89,456,o),
(86,438,cs),
(14,34,ls),
(12,18,o),
(23,0,o),
(43,0,cs),
(63,0,o),
(71,17,o),
(74,29,cs),
(145,434,ls)
);
}
);
vertWidth = 0;
width = 328;
},
{
layerId = m002;
shapes = (
{
closed = 1;
nodes = (
(172,179,o),
(352,165,o),
(380,324,cs),
(398,425,o),
(286,470,o),
(150,470,c),
(150,360,l),
(260,362,o),
(280,358,o),
(271,310,cs),
(264,276,o),
(185,264,o),
(110,264,c),
(91,179,l)
);
},
{
closed = 1;
nodes = (
(211,443,o),
(182,470,o),
(152,470,cs),
(121,470,o),
(99,453,o),
(93,419,cs),
(30,62,ls),
(24,30,o),
(49,0,o),
(84,0,cs),
(116,0,o),
(138,24,o),
(143,49,cs),
(206,406,ls)
);
}
);
vertWidth = 0;
width = 396;
}
);
metricLeft = P;
metricRight = P;
},
{
color = 6;
glyphname = q.sc;
layers = (
{
layerId = m01;
shapes = (
{
closed = 1;
nodes = (
(267,-2,o),
(397,164,o),
(407,295,cs),
(417,386,o),
(368,470,o),
(264,470,cs),
(160,470,o),
(101,405,o),
(70,296,cs),
(62,267,o),
(56,235,o),
(52,203,cs),
(45,108,o),
(68,-2,o),
(158,-2,cs)
);
},
{
closed = 1;
nodes = (
(223,143,o),
(203,146,o),
(189,134,cs),
(176,125,o),
(173,109,o),
(187,90,cs),
(258,-13,ls),
(268,-30,o),
(285,-37,o),
(299,-30,cs),
(314,-21,o),
(320,2,o),
(308,19,cs),
(235,125,ls)
);
},
{
closed = 1;
nodes = (
(114,61,o),
(107,132,o),
(112,191,cs),
(115,222,o),
(120,251,o),
(127,276,cs),
(152,364,o),
(185,407,o),
(259,407,cs),
(334,407,o),
(353,350,o),
(348,297,cs),
(337,192,o),
(226,61,o),
(158,61,cs)
);
}
);
vertWidth = 0;
width = 431;
},
{
layerId = m002;
shapes = (
{
closed = 1;
nodes = (
(307,-2,o),
(430,160,o),
(441,285,cs),
(450,379,o),
(397,470,o),
(284,470,cs),
(176,470,o),
(114,402,o),
(83,296,cs),
(75,268,o),
(70,238,o),
(67,209,cs),
(61,119,o),
(83,-2,o),
(190,-2,cs)
);
},
{
closed = 1;
nodes = (
(267,172,o),
(236,188,o),
(211,166,cs),
(188,149,o),
(189,121,o),
(209,91,cs),
(271,0,ls),
(290,-29,o),
(322,-36,o),
(345,-21,cs),
(372,-5,o),
(367,23,o),
(349,50,cs),
(286,144,ls)
);
},
{
closed = 1;
nodes = (
(178,105,o),
(175,144,o),
(178,194,cs),
(182,220,o),
(187,244,o),
(191,264,cs),
(213,337,o),
(229,360,o),
(279,360,cs),
(324,360,o),
(334,334,o),
(329,292,cs),
(318,192,o),
(235,105,o),
(190,105,cs)
);
}
);
vertWidth = 0;
width = 484;
}
);
metricLeft = Q;
metricRight = Q;
},
{
color = 6;
glyphname = r.sc;
layers = (
{
layerId = m01;
shapes = (
{
closed = 1;
nodes = (
(201,208,o),
(322,213,o),
(345,334,cs),
(361,430,o),
(267,470,o),
(119,470,c),
(119,407,l),
(244,409,o),
(293,386,o),
(285,342,cs),
(273,274,o),
(188,270,o),
(100,270,c),
(90,208,l)
);
},
{
closed = 1;
nodes = (
(90,223,l),
(236,18,ls),
(246,5,o),
(254,0,o),
(263,0,cs),
(291,0,o),
(301,31,o),
(286,51,cs),
(163,223,l)
);
},
{
closed = 1;
nodes = (
(150,453,o),
(143,470,o),
(120,470,cs),
(99,470,o),
(90,456,o),
(87,438,cs),
(17,39,ls),
(13,18,o),
(25,0,o),
(44,0,cs),
(67,0,o),
(75,17,o),
(77,33,cs),
(146,431,ls)
);
}
);
vertWidth = 0;
width = 347;
},
{
layerId = m002;
shapes = (
{
closed = 1;
nodes = (
(192,179,o),
(355,172,o),
(381,317,cs),
(402,431,o),
(289,470,o),
(152,470,c),
(152,360,l),
(282,360,o),
(273,337,o),
(270,318,cs),
(263,277,o),
(201,267,o),
(109,267,c),
(93,179,l)
);
},
{
closed = 1;
nodes = (
(106,204,l),
(233,27,ls),
(247,8,o),
(263,0,o),
(279,0,cs),
(328,0,o),
(353,51,o),
(326,88,cs),
(240,204,l)
);
},
{
closed = 1;
nodes = (
(213,444,o),
(188,470,o),
(153,470,cs),
(122,470,o),
(100,453,o),
(94,419,cs),
(32,67,ls),
(26,31,o),
(50,0,o),
(86,0,cs),
(119,0,o),
(140,21,o),
(145,52,cs),
(206,404,ls)
);
}
);
vertWidth = 0;
width = 415;
}
);
metricLeft = R;
metricRight = R;
},
{
color = 6;
glyphname = s.sc;
layers = (
{
layerId = m01;
shapes = (
{
closed = 1;
nodes = (
(149,0,o),
(277,37,o),
(277,139,cs),
(277,204,o),
(223,241,o),
(211,249,cs),
(194,261,o),
(178,272,o),
(165,282,cs),
(110,320,o),
(87,335,o),
(87,350,cs),
(87,380,o),
(150,407,o),
(200,407,cs),
(304,407,ls),
(321,407,o),
(334,423,o),
(334,440,cs),
(334,465,o),
(315,470,o),
(304,470,cs),
(201,470,ls),
(107,470,o),
(27,413,o),
(27,348,cs),
(27,301,o),
(69,272,o),
(131,230,cs),
(143,222,o),
(156,213,o),
(170,203,cs),
(188,190,o),
(217,169,o),
(217,138,cs),
(217,82,o),
(122,63,o),
(80,63,cs),
(-1,63,ls),
(-18,63,o),
(-31,46,o),
(-31,31,cs),
(-31,6,o),
(-11,0,o),
(-1,0,cs),
(80,0,ls)
);
}
);
vertWidth = 0;
width = 316;
},
{
layerId = m002;
shapes = (
{
closed = 1;
nodes = (
(182,0,o),
(322,37,o),
(322,150,cs),
(322,222,o),
(257,263,o),
(247,270,cs),
(233,280,o),
(222,287,o),
(208,297,cs),
(179,316,o),
(150,333,o),
(150,339,cs),
(150,347,o),
(182,360,o),
(220,360,cs),
(315,360,ls),
(347,360,o),
(371,387,o),
(371,416,cs),
(371,454,o),
(347,470,o),
(315,470,cs),
(220,470,ls),
(124,470,o),
(36,411,o),
(36,335,cs),
(36,279,o),
(86,248,o),
(141,208,cs),
(151,201,o),
(164,192,o),
(176,184,cs),
(191,173,o),
(206,163,o),
(206,149,cs),
(206,122,o),
(147,110,o),
(113,110,cs),
(40,110,ls),
(10,110,o),
(-15,82,o),
(-15,55,cs),
(-15,17,o),
(17,0,o),
(40,0,cs),
(113,0,ls)
);
}
);
vertWidth = 0;
width = 349;
}
);
metricLeft = S;
metricRight = S;
},
{
color = 6;
glyphname = t.sc;
layers = (
{
layerId = m01;
shapes = (
{
closed = 1;
nodes = (
(151,425,l),
(83,34,ls),
(81,18,o),
(90,0,o),
(112,0,cs),
(133,0,o),
(140,17,o),
(143,29,cs),
(211,425,l)
);
},
{
closed = 1;
nodes = (
(314,406,o),
(324,419,o),
(324,437,cs),
(324,455,o),
(314,469,o),
(295,469,cs),
(75,469,ls),
(55,469,o),
(44,455,o),
(44,437,cs),
(44,419,o),
(55,406,o),
(75,406,cs),
(295,406,ls)
);
}
);
vertWidth = 0;
width = 244;
},
{
layerId = m002;
shapes = (
{
closed = 1;
nodes = (
(132,372,l),
(77,62,ls),
(71,30,o),
(96,0,o),
(133,0,cs),
(165,0,o),
(187,21,o),
(191,48,cs),
(248,372,l)
);
},
{
closed = 1;
nodes = (
(327,359,o),
(350,383,o),
(350,413,cs),
(350,446,o),
(327,469,o),
(295,469,cs),
(101,469,ls),
(68,469,o),
(44,446,o),
(44,413,cs),
(44,383,o),
(68,359,o),
(101,359,cs),
(295,359,ls)
);
}
);
vertWidth = 0;
width = 277;
}
);
metricLeft = T;
metricRight = T;
},
{
color = 6;
glyphname = u.sc;
layers = (
{
layerId = m01;
shapes = (
{
closed = 1;
nodes = (
(335,362,l),
(321,302,o),
(295,270,o),
(282,248,cs),
(240,179,o),
(146,59,o),
(100,59,cs),
(83,59,o),
(87,90,o),
(95,134,cs),
(149,432,ls),
(152,450,o),
(143,468,o),
(124,469,cs),
(107,469,o),
(93,457,o),
(89,436,cs),
(36,140,ls),
(19,45,o),
(44,-2,o),
(94,-2,cs),
(158,-2,o),
(248,83,o),
(349,233,c),
(349,362,l)
);
},
{
closed = 1;
nodes = (
(412,453,o),
(400,469,o),
(379,469,cs),
(362,469,o),
(350,457,o),
(348,441,cs),
(277,34,ls),
(273,14,o),
(287,-1,o),
(305,-1,cs),
(321,-1,o),
(334,11,o),
(336,27,cs),
(409,435,ls)
);
}
);
vertWidth = 0;
width = 423;
},
{
layerId = m002;
shapes = (
{
closed = 1;
nodes = (
(328,375,l),
(320,314,o),
(298,276,o),
(284,253,cs),
(247,191,o),
(181,107,o),
(170,107,cs),
(164,107,o),
(169,141,o),
(175,176,cs),
(216,405,ls),
(222,437,o),
(201,468,o),
(166,470,cs),
(137,470,o),
(110,450,o),
(105,418,cs),
(57,156,ls),
(38,52,o),
(75,-2,o),
(139,-2,cs),
(213,-2,o),
(290,91,o),
(383,230,c),
(394,375,l)
);
},
{
closed = 1;
nodes = (
(453,441,o),
(428,470,o),
(391,470,cs),
(362,470,o),
(339,449,o),
(334,422,cs),
(271,62,ls),
(265,27,o),
(292,-1,o),
(326,-1,cs),
(354,-1,o),
(378,19,o),
(383,46,cs),
(447,407,ls)
);
}
);
vertWidth = 0;
width = 476;
}
);
metricLeft = U;
metricRight = U;
},
{
color = 6;
glyphname = v.sc;
layers = (
{
layerId = m01;
shapes = (
{
closed = 1;
nodes = (
(182,0,o),
(194,15,o),
(198,25,cs),
(407,425,ls),
(419,448,o),
(404,469,o),
(385,469,cs),
(366,469,o),
(358,459,o),
(349,443,cs),
(153,68,l),
(163,0,l)
);
},
{
closed = 1;
nodes = (
(162,440,ls),
(160,456,o),
(151,469,o),
(131,469,cs),
(110,469,o),
(101,453,o),
(102,436,cs),
(135,33,ls),
(137,15,o),
(149,0,o),
(164,0,c),
(192,68,l)
);
}
);
vertWidth = 0;
width = 377;
},
{
layerId = m002;
shapes = (
{
closed = 1;
nodes = (
(194,0,o),
(221,13,o),
(234,38,cs),
(418,391,ls),
(438,430,o),
(411,469,o),
(372,469,cs),
(345,469,o),
(324,455,o),
(312,432,cs),
(134,91,l),
(171,0,l)
);
},
{
closed = 1;
nodes = (
(204,418,ls),
(202,448,o),
(179,469,o),
(147,469,cs),
(112,469,o),
(91,442,o),
(91,412,c),
(121,55,ls),
(125,15,o),
(151,0,o),
(172,0,c),
(232,82,l)
);
}
);
vertWidth = 0;
width = 387;
}
);
metricLeft = V;
metricRight = V;
},
{
color = 6;
glyphname = w.sc;
layers = (
{
layerId = m01;
shapes = (
{
closed = 1;
nodes = (
(432,0,o),
(443,12,o),
(450,25,cs),
(659,425,ls),
(670,446,o),
(657,470,o),
(637,470,cs),
(621,470,o),
(608,459,o),
(600,443,cs),
(407,75,l),
(416,0,l)
);
},
{
closed = 1;
nodes = (
(162,438,ls),
(160,455,o),
(151,470,o),
(131,470,cs),
(110,470,o),
(101,453,o),
(102,436,cs),
(135,33,ls),
(137,17,o),
(147,0,o),
(165,0,c),
(191,75,l)
);
},
{
closed = 1;
nodes = (
(182,0,o),
(190,11,o),
(198,26,cs),
(393,400,l),
(383,470,l),
(367,470,o),
(355,455,o),
(349,444,cs),
(157,75,l),
(164,0,l)
);
},
{
closed = 1;
nodes = (
(415,440,ls),
(413,456,o),
(400,470,o),
(381,470,c),
(359,400,l),
(387,26,ls),
(388,12,o),
(400,0,o),
(417,0,c),
(444,75,l)
);
}
);
vertWidth = 0;
width = 627;
},
{
layerId = m002;
shapes = (
{
closed = 1;
nodes = (
(425,0,o),
(441,10,o),
(455,36,cs),
(640,391,ls),
(661,429,o),
(634,470,o),
(594,470,cs),
(569,470,o),
(546,455,o),
(535,432,cs),
(360,99,l),
(399,0,l)
);
},
{
closed = 1;
nodes = (
(204,417,ls),
(202,450,o),
(176,470,o),
(146,470,cs),
(108,470,o),
(89,440,o),
(91,411,cs),
(120,55,ls),
(122,18,o),
(133,0,o),
(162,0,c),
(230,90,l)
);
},
{
closed = 1;
nodes = (
(191,0,o),
(217,11,o),
(232,37,cs),
(409,377,l),
(369,470,l),
(346,470,o),
(329,461,o),
(314,432,cs),
(138,99,l),
(163,0,l)
);
},
{
closed = 1;
nodes = (
(426,417,l),
(425,455,o),
(399,470,o),
(371,470,c),
(318,385,l),
(343,48,ls),
(346,11,o),
(375,0,o),
(398,0,c),
(454,90,l)
);
}
);
vertWidth = 0;
width = 608;
}
);
metricLeft = W;
metricRight = W;
},
{
color = 6;
glyphname = x.sc;
layers = (
{
layerId = m01;
shapes = (
{
closed = 1;
nodes = (
(372,434,o),
(373,456,o),
(360,466,cs),
(347,474,o),
(324,470,o),
(311,455,cs),
(-25,50,ls),
(-37,36,o),
(-34,15,o),
(-23,6,cs),
(-8,-4,o),
(12,-4,o),
(24,12,cs),
(360,417,l)
);
},
{
closed = 1;
nodes = (
(91,467,o),
(75,474,o),
(61,468,cs),
(44,463,o),
(36,443,o),
(45,423,cs),
(236,21,ls),
(246,1,o),
(265,-5,o),
(282,4,cs),
(295,12,o),
(301,29,o),
(293,44,cs),
(101,448,ls)
);
}
);
vertWidth = 0;
width = 333;
},
{
layerId = m002;
shapes = (
{
closed = 1;
nodes = (
(397,403,o),
(398,442,o),
(368,462,cs),
(346,478,o),
(305,472,o),
(285,447,cs),
(-11,89,ls),
(-32,63,o),
(-29,31,o),
(-6,12,cs),
(19,-7,o),
(59,-4,o),
(81,21,cs),
(378,380,ls)
);
},
{
closed = 1;
nodes = (
(134,466,o),
(102,478,o),
(76,466,c),
(45,456,o),
(30,423,o),
(45,390,cs),
(215,34,ls),
(230,1,o),
(272,-10,o),
(299,7,cs),
(323,24,o),
(334,50,o),
(321,77,cs),
(150,435,ls)
);
}
);
vertWidth = 0;
width = 353;
}
);
metricLeft = X;
metricRight = X;
},
{
color = 6;
glyphname = y.sc;
layers = (
{
layerId = m01;
shapes = (
{
closed = 1;
nodes = (
(422,417,ls),
(436,435,o),
(434,454,o),
(421,463,cs),
(406,475,o),
(388,470,o),
(375,454,cs),
(210,255,l),
(246,203,l)
);
},
{
closed = 1;
nodes = (
(204,247,l),
(166,34,ls),
(163,17,o),
(175,0,o),
(195,0,cs),
(217,0,o),
(225,17,o),
(227,29,cs),
(264,247,l)
);
},
{
closed = 1;
nodes = (
(255,255,l),
(160,448,ls),
(152,465,o),
(138,475,o),
(118,468,cs),
(102,462,o),
(97,442,o),
(106,424,cs),
(210,208,l)
);
}
);
vertWidth = 0;
width = 396;
},
{
layerId = m002;
shapes = (
{
closed = 1;
nodes = (
(429,380,l),
(448,406,o),
(449,437,o),
(423,457,cs),
(400,476,o),
(362,474,o),
(339,447,cs),
(179,254,l),
(247,159,l)
);
},
{
closed = 1;
nodes = (
(188,273,l),
(150,62,ls),
(144,29,o),
(169,0,o),
(204,0,cs),
(238,0,o),
(257,23,o),
(263,48,c),
(299,273,l)
);
},
{
closed = 1;
nodes = (
(293,248,l),
(201,435,ls),
(185,466,o),
(153,478,o),
(125,466,cs),
(93,454,o),
(84,418,o),
(97,391,cs),
(209,162,l)
);
}
);
vertWidth = 0;
width = 403;
}
);
metricLeft = Y;
metricRight = Y;
},
{
color = 6;
glyphname = z.sc;
layers = (
{
layerId = m01;
shapes = (
{
closed = 1;
nodes = (
(394,428,o),
(396,443,o),
(390,455,cs),
(385,462,o),
(374,469,o),
(360,469,cs),
(352,469,o),
(343,460,o),
(339,455,cs),
(1,48,ls),
(-5,39,o),
(-11,27,o),
(-5,15,cs),
(0,6,o),
(11,0,o),
(29,0,cs),
(38,0,o),
(45,7,o),
(50,12,cs),
(385,417,ls)
);
},
{
closed = 1;
nodes = (
(290,0,ls),
(310,0,o),
(321,13,o),
(321,31,cs),
(321,49,o),
(310,63,o),
(290,63,cs),
(82,63,l),
(27,0,l)
);
},
{
closed = 1;
nodes = (
(362,469,l),
(96,469,ls),
(76,469,o),
(65,453,o),
(65,437,cs),
(65,422,o),
(76,406,o),
(96,406,cs),
(309,406,l)
);
}
);
vertWidth = 0;
width = 366;
},
{
layerId = m002;
shapes = (
{
closed = 1;
nodes = (
(396,396,o),
(396,421,o),
(386,442,cs),
(377,459,o),
(355,469,o),
(333,469,cs),
(321,469,o),
(298,459,o),
(290,451,c),
(-10,89,ls),
(-21,74,o),
(-27,52,o),
(-18,31,cs),
(-10,12,o),
(12,0,o),
(39,0,cs),
(58,0,o),
(75,10,o),
(84,20,cs),
(380,378,ls)
);
},
{
closed = 1;
nodes = (
(271,0,ls),
(304,0,o),
(328,24,o),
(328,55,cs),
(328,86,o),
(304,110,o),
(271,110,cs),
(133,110,l),
(37,0,l)
);
},
{
closed = 1;
nodes = (
(335,469,l),
(99,469,ls),
(64,469,o),
(42,442,o),
(42,413,cs),
(42,385,o),
(65,359,o),
(99,359,cs),
(241,359,l)
);
}
);
vertWidth = 0;
width = 366;
}
);
metricLeft = Z;
metricRight = Z;
},
{
color = 6;
glyphname = zero;
layers = (
{
layerId = m01;
shapes = (
{
closed = 1;
nodes = (
(302,-4,o),
(503,271,o),
(503,478,cs),
(503,567,o),
(468,675,o),
(342,675,cs),
(118,675,o),
(26,333,o),
(26,190,cs),
(26,96,o),
(67,-5,o),
(156,-5,cs)
);
},
{
closed = 1;
nodes = (
(118,56,o),
(88,100,o),
(88,184,cs),
(88,331,o),
(182,614,o),
(345,614,cs),
(422,614,o),
(441,550,o),
(441,481,cs),
(441,252,o),
(232,56,o),
(154,56,cs)
);
}
);
vertWidth = 0;
width = 529;
},
{
layerId = m002;
shapes = (
{
closed = 1;
nodes = (
(337,-4,o),
(533,265,o),
(533,469,cs),
(533,560,o),
(495,675,o),
(353,675,cs),
(115,675,o),
(26,345,o),
(26,204,cs),
(26,108,o),
(70,-5,o),
(177,-5,cs)
);
},
{
closed = 1;
nodes = (
(158,105,o),
(144,127,o),
(144,200,cs),
(144,334,o),
(225,565,o),
(355,565,cs),
(405,565,o),
(416,533,o),
(416,473,cs),
(416,267,o),
(236,105,o),
(177,105,cs)
);
}
);
vertWidth = 0;
width = 560;
}
);
unicode = 48;
},
{
color = 6;
glyphname = one;
layers = (
{
layerId = m01;
shapes = (
{
closed = 1;
nodes = (
(270,665,o),
(257,675,o),
(241,675,cs),
(226,675,o),
(209,666,o),
(206,645,cs),
(97,33,ls),
(94,11,o),
(108,0,o),
(124,0,cs),
(138,0,o),
(153,7,o),
(157,27,cs),
(266,645,ls)
);
}
);
vertWidth = 0;
width = 381;
},
{
layerId = m002;
shapes = (
{
closed = 1;
nodes = (
(308,651,o),
(279,675,o),
(247,675,cs),
(220,675,o),
(189,658,o),
(183,625,cs),
(83,61,ls),
(76,21,o),
(107,0,o),
(139,0,cs),
(165,0,o),
(195,14,o),
(201,46,cs),
(302,615,ls)
);
}
);
vertWidth = 0;
width = 400;
}
);
unicode = 49;
},
{
color = 6;
glyphname = two;
layers = (
{
layerId = m01;
shapes = (
{
closed = 1;
nodes = (
(58,58,l),
(127,137,o),
(290,312,o),
(305,330,cs),
(392,436,o),
(432,508,o),
(432,562,cs),
(432,600,o),
(412,628,o),
(373,652,cs),
(347,668,o),
(315,675,o),
(282,675,cs),
(208,675,o),
(126,643,o),
(75,600,cs),
(46,576,o),
(51,561,o),
(61,550,cs),
(70,539,o),
(89,536,o),
(119,560,cs),
(160,594,o),
(227,614,o),
(282,614,cs),
(307,614,o),
(329,609,o),
(346,600,cs),
(362,589,o),
(369,575,o),
(369,556,cs),
(369,510,o),
(326,446,o),
(280,394,cs),
(-13,65,ls),
(-40,36,o),
(-25,0,o),
(7,0,c)
);
},
{
closed = 1;
nodes = (
(309,0,ls),
(333,0,o),
(340,15,o),
(340,30,cs),
(340,44,o),
(333,59,o),
(309,59,cs),
(7,59,l),
(7,0,l)
);
}
);
vertWidth = 0;
width = 451;
},
{
layerId = m002;
shapes = (
{
closed = 1;
nodes = (
(127,58,l),
(192,133,o),
(347,298,o),
(360,314,cs),
(444,418,o),
(487,491,o),
(487,546,cs),
(487,589,o),
(463,621,o),
(417,650,cs),
(388,668,o),
(353,675,o),
(315,675,cs),
(238,675,o),
(151,642,o),
(100,599,cs),
(59,565,o),
(67,539,o),
(87,516,cs),
(101,500,o),
(137,491,o),
(182,526,cs),
(219,556,o),
(271,573,o),
(312,573,cs),
(331,573,o),
(348,569,o),
(360,562,cs),
(367,557,o),
(371,550,o),
(371,541,cs),
(371,510,o),
(336,456,o),
(292,407,cs),
(4,83,l),
(-27,49,o),
(-10,0,o),
(38,0,c)
);
},
{
closed = 1;
nodes = (
(341,0,ls),
(377,0,o),
(400,17,o),
(400,49,cs),
(400,77,o),
(379,102,o),
(341,102,cs),
(37,102,l),
(37,0,l)
);
}
);
vertWidth = 0;
width = 511;
},
{
associatedMasterId = m01;
layerId = "2289F6C3-EA17-4427-A9F7-39E6DE0574E1";
name = background;
shapes = (
{
closed = 1;
nodes = (
(118,58,l),
(185,137,o),
(337,312,o),
(353,330,cs),
(501,512,o),
(514,595,o),
(421,652,cs),
(339,702,o),
(197,663,o),
(122,600,cs),
(94,576,o),
(99,561,o),
(108,550,cs),
(118,539,o),
(137,536,o),
(166,560,cs),
(228,609,o),
(342,631,o),
(393,600,cs),
(453,564,o),
(390,467,o),
(328,394,cs),
(297,358,o),
(175,220,o),
(14,42,cs),
(-6,19,o),
(7,0,o),
(33,0,c),
(58,0,l)
);
},
{
closed = 1;
nodes = (
(356,0,ls),
(380,0,o),
(387,15,o),
(387,30,cs),
(387,44,o),
(380,59,o),
(356,59,cs),
(53,59,l),
(53,0,l)
);
}
);
vertWidth = 0;
width = 594;
}
);
unicode = 50;
},
{
color = 6;
glyphname = three;
layers = (
{
layerId = m01;
shapes = (
{
closed = 1;
nodes = (
(-19,64,o),
(-18,50,o),
(7,30,cs),
(36,7,o),
(74,-5,o),
(114,-5,cs),
(249,-5,o),
(419,116,o),
(419,268,cs),
(419,360,o),
(359,421,o),
(260,421,cs),
(217,421,o),
(209,424,o),
(100,377,c),
(128,329,l),
(191,365,o),
(230,366,o),
(264,366,cs),
(334,366,o),
(360,316,o),
(360,267,cs),
(360,149,o),
(220,56,o),
(115,56,cs),
(87,56,o),
(62,62,o),
(38,80,cs),
(19,94,o),
(0,93,o),
(-10,78,cs)
);
},
{
closed = 1;
nodes = (
(87,546,o),
(106,541,o),
(121,551,cs),
(194,600,o),
(261,620,o),
(305,620,cs),
(341,620,o),
(356,609,o),
(356,588,cs),
(356,546,o),
(216,444,o),
(100,377,cs),
(80,365,o),
(76,349,o),
(83,335,cs),
(90,322,o),
(109,318,o),
(128,329,cs),
(280,415,o),
(416,519,o),
(416,593,cs),
(416,644,o),
(368,675,o),
(298,675,cs),
(241,675,o),
(169,655,o),
(97,607,cs),
(68,588,o),
(74,568,o),
(80,558,cs)
);
}
);
vertWidth = 0;
width = 480;
},
{
layerId = m002;
shapes = (
{
closed = 1;
nodes = (
(-26,90,o),
(-29,64,o),
(11,33,cs),
(42,8,o),
(86,-5,o),
(129,-5,cs),
(290,-5,o),
(461,149,o),
(461,302,cs),
(461,390,o),
(396,438,o),
(299,438,cs),
(248,438,o),
(187,428,o),
(113,388,c),
(175,304,l),
(208,327,o),
(253,335,o),
(286,335,cs),
(323,335,o),
(346,320,o),
(346,285,cs),
(346,190,o),
(232,102,o),
(131,102,cs),
(109,102,o),
(94,107,o),
(78,119,cs),
(42,147,o),
(0,134,o),
(-13,110,cs)
);
},
{
closed = 1;
nodes = (
(100,503,o),
(135,494,o),
(163,512,cs),
(228,556,o),
(287,573,o),
(324,573,cs),
(337,573,o),
(343,569,o),
(343,562,cs),
(343,543,o),
(196,444,o),
(113,388,cs),
(81,367,o),
(77,345,o),
(89,321,cs),
(102,296,o),
(143,283,o),
(175,304,cs),
(312,393,o),
(457,506,o),
(457,594,cs),
(457,651,o),
(397,675,o),
(316,675,cs),
(252,675,o),
(179,653,o),
(108,606,cs),
(69,581,o),
(71,551,o),
(84,529,cs)
);
}
);
vertWidth = 0;
width = 518;
},
{
associatedMasterId = m01;
layerId = "D5837476-B911-47A8-8C16-63685508A3DF";
name = background;
shapes = (
{
closed = 1;
nodes = (
(201,352,o),
(245,362,o),
(278,362,cs),
(348,362,o),
(372,316,o),
(372,267,cs),
(372,149,o),
(232,56,o),
(127,56,cs),
(99,56,o),
(72,63,o),
(52,78,cs),
(24,100,o),
(7,86,o),
(1,77,cs),
(-5,69,o),
(-11,53,o),
(19,30,cs),
(48,6,o),
(86,-5,o),
(126,-5,cs),
(261,-5,o),
(431,116,o),
(431,268,cs),
(431,360,o),
(371,421,o),
(272,421,cs),
(229,421,o),
(179,410,o),
(125,385,c),
(144,327,l)
);
},
{
closed = 1;
nodes = (
(287,422,o),
(428,519,o),
(428,593,cs),
(428,644,o),
(380,675,o),
(310,675,cs),
(253,675,o),
(181,655,o),
(109,607,cs),
(80,588,o),
(86,568,o),
(91,558,cs),
(99,546,o),
(118,541,o),
(133,551,cs),
(206,600,o),
(273,620,o),
(317,620,cs),
(349,620,o),
(368,609,o),
(368,593,cs),
(368,554,o),
(208,437,o),
(108,375,cs),
(88,362,o),
(91,342,o),
(96,333,cs),
(102,321,o),
(124,312,o),
(141,324,cs)
);
}
);
vertWidth = 0;
width = 594;
},
{
associatedMasterId = m002;
layerId = "72DCB3B5-02A1-4512-91A5-D0E1AFCD3C46";
name = background;
shapes = (
{
closed = 1;
nodes = (
(-27,90,o),
(-30,64,o),
(10,33,cs),
(40,8,o),
(84,-5,o),
(128,-5,cs),
(271,-5,o),
(431,114,o),
(459,272,cs),
(476,372,o),
(407,450,o),
(298,450,cs),
(247,450,o),
(183,435,o),
(109,396,c),
(173,304,l),
(207,327,o),
(252,335,o),
(285,335,cs),
(331,335,o),
(350,311,o),
(343,271,cs),
(326,172,o),
(219,102,o),
(129,102,cs),
(108,102,o),
(93,107,o),
(77,119,cs),
(40,147,o),
(-1,134,o),
(-14,110,cs)
);
},
{
closed = 1;
nodes = (
(99,503,o),
(132,504,o),
(159,522,cs),
(225,565,o),
(284,580,o),
(321,580,cs),
(329,580,o),
(341,579,o),
(340,571,cs),
(336,552,o),
(198,455,o),
(109,396,cs),
(77,374,o),
(76,345,o),
(88,321,cs),
(101,296,o),
(141,283,o),
(173,304,cs),
(304,392,o),
(440,487,o),
(455,571,cs),
(467,636,o),
(396,675,o),
(315,675,cs),
(251,675,o),
(178,653,o),
(107,606,cs),
(68,581,o),
(70,551,o),
(83,529,cs)
);
}
);
vertWidth = 0;
width = 594;
}
);
unicode = 51;
},
{
color = 6;
glyphname = four;
layers = (
{
layerId = m01;
shapes = (
{
closed = 1;
nodes = (
(29,175,o),
(39,160,o),
(61,160,cs),
(81,160,o),
(88,176,o),
(91,190,cs),
(195,642,ls),
(200,663,o),
(184,675,o),
(170,675,cs),
(156,675,o),
(140,668,o),
(135,646,cs),
(32,192,ls)
);
},
{
closed = 1;
nodes = (
(276,-1,o),
(292,7,o),
(297,31,cs),
(356,359,ls),
(360,379,o),
(347,391,o),
(333,393,cs),
(317,396,o),
(301,387,o),
(297,367,cs),
(238,37,ls),
(233,13,o),
(246,1,o),
(261,0,cs)
);
},
{
closed = 1;
nodes = (
(472,202,o),
(460,214,o),
(441,214,cs),
(61,214,l),
(61,160,l),
(441,160,ls),
(460,160,o),
(472,173,o),
(472,188,cs)
);
}
);
vertWidth = 0;
width = 480;
},
{
layerId = m002;
shapes = (
{
closed = 1;
nodes = (
(18,172,o),
(44,145,o),
(82,145,cs),
(113,145,o),
(137,166,o),
(144,195,cs),
(242,617,ls),
(251,655,o),
(219,675,o),
(188,675,cs),
(160,675,o),
(131,659,o),
(124,626,cs),
(26,210,ls)
);
},
{
closed = 1;
nodes = (
(316,0,o),
(337,19,o),
(343,52,cs),
(396,343,ls),
(402,378,o),
(386,399,o),
(358,405,cs),
(329,410,o),
(293,392,o),
(287,359,cs),
(235,70,ls),
(228,31,o),
(252,0,o),
(283,0,cs)
);
},
{
closed = 1;
nodes = (
(524,228,o),
(499,252,o),
(466,252,cs),
(82,252,l),
(82,145,l),
(466,145,ls),
(499,145,o),
(524,170,o),
(524,200,cs)
);
}
);
vertWidth = 0;
width = 536;
},
{
associatedMasterId = m01;
layerId = "AAB36A12-CCC4-41A9-8529-B05CAD544CA6";
name = background;
shapes = (
{
closed = 1;
nodes = (
(192,663,o),
(178,675,o),
(164,675,cs),
(150,675,o),
(133,668,o),
(129,646,cs),
(48,189,ls),
(45,175,o),
(56,160,o),
(77,160,cs),
(97,160,o),
(106,176,o),
(108,190,cs),
(189,642,ls)
);
},
{
closed = 1;
nodes = (
(326,355,o),
(312,367,o),
(298,369,cs),
(283,372,o),
(266,364,o),
(263,343,cs),
(207,37,ls),
(202,13,o),
(215,1,o),
(230,0,cs),
(245,-1,o),
(261,7,o),
(266,31,cs),
(322,335,ls)
);
},
{
closed = 1;
nodes = (
(434,160,ls),
(453,160,o),
(465,173,o),
(465,188,cs),
(465,202,o),
(453,214,o),
(434,214,cs),
(78,214,l),
(78,160,l)
);
}
);
vertWidth = 0;
width = 594;
}
);
unicode = 52;
},
{
color = 6;
glyphname = five;
layers = (
{
layerId = m01;
shapes = (
{
closed = 1;
nodes = (
(277,-4,o),
(403,114,o),
(403,261,cs),
(403,354,o),
(329,421,o),
(221,421,cs),
(172,421,o),
(139,412,o),
(97,398,c),
(91,340,l),
(131,354,o),
(171,361,o),
(225,361,cs),
(295,361,o),
(343,317,o),
(343,251,cs),
(343,166,o),
(259,56,o),
(126,56,cs),
(90,56,o),
(59,74,o),
(42,93,cs),
(29,106,o),
(11,113,o),
(-5,95,cs),
(-19,80,o),
(-10,59,o),
(4,46,cs),
(29,21,o),
(76,-4,o),
(126,-4,cs)
);
},
{
closed = 1;
nodes = (
(61,350,o),
(78,336,o),
(91,340,c),
(122,368,l),
(185,643,l),
(165,675,l),
(146,675,o),
(128,661,o),
(125,643,cs),
(64,368,ls)
);
},
{
closed = 1;
nodes = (
(473,662,o),
(466,675,o),
(442,675,cs),
(165,675,l),
(165,621,l),
(442,621,ls),
(466,621,o),
(473,633,o),
(473,647,cs)
);
}
);
vertWidth = 0;
width = 478;
},
{
layerId = m002;
shapes = (
{
closed = 1;
nodes = (
(322,-4,o),
(436,149,o),
(436,257,cs),
(436,354,o),
(353,442,o),
(221,442,cs),
(181,442,o),
(137,432,o),
(88,413,c),
(114,314,l),
(153,326,o),
(192,334,o),
(225,334,cs),
(296,334,o),
(317,295,o),
(317,255,cs),
(317,195,o),
(249,99,o),
(157,99,cs),
(135,99,o),
(108,107,o),
(94,118,cs),
(70,135,o),
(43,126,o),
(27,107,cs),
(12,87,o),
(8,57,o),
(32,37,cs),
(63,11,o),
(107,-4,o),
(156,-4,cs)
);
},
{
closed = 1;
nodes = (
(50,334,o),
(84,305,o),
(114,314,c),
(173,361,l),
(232,628,l),
(201,678,l),
(151,678,o),
(125,664,o),
(116,627,cs),
(58,371,ls)
);
},
{
closed = 1;
nodes = (
(504,661,o),
(481,678,o),
(446,678,cs),
(201,678,l),
(183,579,l),
(446,579,ls),
(484,579,o),
(504,600,o),
(504,628,cs)
);
}
);
vertWidth = 0;
width = 481;
},
{
associatedMasterId = m01;
layerId = "8A4306C3-55A0-41EE-8493-142ACB7C0448";
name = background;
shapes = (
{
closed = 1;
nodes = (
(158,355,o),
(191,361,o),
(221,361,cs),
(315,361,o),
(355,299,o),
(355,251,cs),
(355,177,o),
(265,56,o),
(150,56,cs),
(120,56,o),
(94,64,o),
(77,80,cs),
(69,88,o),
(61,90,o),
(52,90,cs),
(37,90,o),
(24,80,o),
(24,64,cs),
(24,55,o),
(29,44,o),
(39,33,cs),
(64,10,o),
(103,-4,o),
(150,-4,cs),
(305,-4,o),
(415,149,o),
(415,252,cs),
(415,341,o),
(339,421,o),
(217,421,cs),
(184,421,o),
(151,415,o),
(109,400,c),
(114,342,l)
);
},
{
closed = 1;
nodes = (
(165,675,l),
(153,675,o),
(144,672,o),
(138,668,cs),
(132,663,o),
(127,655,o),
(125,643,cs),
(76,368,ls),
(72,350,o),
(88,340,o),
(103,340,cs),
(118,340,o),
(133,349,o),
(137,368,cs),
(185,643,l)
);
},
{
closed = 1;
nodes = (
(454,621,ls),
(478,621,o),
(485,633,o),
(485,647,cs),
(485,662,o),
(478,675,o),
(454,675,cs),
(164,675,l),
(164,621,l)
);
}
);
vertWidth = 0;
width = 594;
}
);
unicode = 53;
},
{
color = 6;
glyphname = six;
layers = (
{
layerId = m01;
shapes = (
{
closed = 1;
nodes = (
(393,683,o),
(373,682,o),
(354,671,cs),
(301,640,o),
(197,546,o),
(131,454,cs),
(68,367,o),
(25,248,o),
(25,135,c),
(86,160,l),
(86,271,o),
(120,346,o),
(177,425,cs),
(238,510,o),
(326,579,o),
(387,624,cs),
(405,637,o),
(412,655,o),
(403,669,cs)
);
},
{
closed = 1;
nodes = (
(285,0,o),
(413,177,o),
(413,305,cs),
(413,381,o),
(368,419,o),
(283,419,cs),
(179,419,o),
(107,364,o),
(65,290,c),
(25,135,l),
(25,59,o),
(77,0,o),
(164,0,cs)
);
},
{
closed = 1;
nodes = (
(115,59,o),
(86,100,o),
(86,160,cs),
(86,255,o),
(158,360,o),
(280,360,cs),
(329,360,o),
(354,343,o),
(354,298,cs),
(354,206,o),
(245,59,o),
(162,59,cs)
);
}
);
vertWidth = 0;
width = 473;
},
{
layerId = m002;
shapes = (
{
closed = 1;
nodes = (
(404,684,o),
(373,690,o),
(343,675,c),
(286,642,o),
(190,555,o),
(131,470,cs),
(65,379,o),
(12,293,o),
(12,140,c),
(125,166,l),
(125,274,o),
(163,315,o),
(228,412,c),
(278,482,o),
(326,530,o),
(406,587,cs),
(442,613,o),
(440,643,o),
(422,664,cs)
);
},
{
closed = 1;
nodes = (
(291,-1,o),
(412,170,o),
(412,293,cs),
(412,375,o),
(359,419,o),
(268,419,cs),
(182,419,o),
(86,361,o),
(49,289,c),
(12,140,l),
(12,57,o),
(68,-1,o),
(164,-1,cs)
);
},
{
closed = 1;
nodes = (
(140,103,o),
(125,118,o),
(125,166,cs),
(125,242,o),
(175,321,o),
(266,321,cs),
(293,321,o),
(301,309,o),
(301,287,cs),
(301,214,o),
(219,103,o),
(162,103,cs)
);
}
);
vertWidth = 0;
width = 457;
},
{
associatedMasterId = m01;
layerId = "B5968A0D-F3E5-460A-AC2C-2F99A4DA6DEA";
name = background;
shapes = (
{
closed = 1;
nodes = (
(83,248,o),
(124,342,o),
(207,460,cs),
(239,505,o),
(293,560,o),
(383,621,cs),
(396,630,o),
(400,642,o),
(400,651,cs),
(399,664,o),
(390,675,o),
(374,675,cs),
(367,675,o),
(359,672,o),
(349,668,cs),
(293,636,o),
(195,546,o),
(154,489,cs),
(74,375,o),
(25,253,o),
(25,134,c),
(83,134,l)
);
},
{
closed = 1;
nodes = (
(25,63,o),
(82,0,o),
(163,0,cs),
(284,0,o),
(412,177,o),
(412,305,cs),
(412,381,o),
(367,419,o),
(282,419,cs),
(178,419,o),
(106,364,o),
(64,290,c),
(25,135,l)
);
},
{
closed = 1;
nodes = (
(121,59,o),
(84,93,o),
(84,160,cs),
(84,255,o),
(157,360,o),
(279,360,cs),
(328,360,o),
(353,343,o),
(353,298,cs),
(353,206,o),
(244,59,o),
(160,59,cs)
);
}
);
vertWidth = 0;
width = 594;
},
{
associatedMasterId = m002;
layerId = "1651019C-8C5D-42A0-851B-884A7B05576C";
name = background;
shapes = (
{
closed = 1;
nodes = (
(108,232,o),
(166,326,o),
(247,441,cs),
(278,484,o),
(327,531,o),
(406,587,cs),
(426,601,o),
(436,619,o),
(436,638,cs),
(435,664,o),
(411,684,o),
(381,684,cs),
(369,684,o),
(356,681,o),
(343,675,c),
(286,642,o),
(190,555,o),
(151,500,cs),
(65,379,o),
(29,331,o),
(12,140,c),
(125,135,l)
);
},
{
closed = 1;
nodes = (
(0,100,o),
(68,-1,o),
(164,-1,cs),
(291,-1,o),
(412,170,o),
(412,293,cs),
(412,375,o),
(359,421,o),
(268,421,cs),
(160,421,o),
(69,366,o),
(49,289,cs),
(13,150,ls)
);
},
{
closed = 1;
nodes = (
(140,103,o),
(125,118,o),
(125,166,cs),
(125,242,o),
(175,316,o),
(266,316,cs),
(293,316,o),
(301,309,o),
(301,287,cs),
(301,214,o),
(219,103,o),
(162,103,cs)
);
},
{
closed = 1;
nodes = (
(108,232,o),
(166,326,o),
(247,441,cs),
(278,484,o),
(327,531,o),
(406,587,cs),
(426,601,o),
(436,619,o),
(436,638,cs),
(435,664,o),
(411,684,o),
(381,684,cs),
(369,684,o),
(356,681,o),
(343,675,c),
(286,642,o),
(190,555,o),
(151,500,cs),
(65,379,o),
(29,331,o),
(12,140,c),
(125,135,l)
);
},
{
closed = 1;
nodes = (
(0,100,o),
(68,-1,o),
(164,-1,cs),
(291,-1,o),
(412,170,o),
(412,293,cs),
(412,375,o),
(359,421,o),
(268,421,cs),
(160,421,o),
(69,366,o),
(49,289,cs),
(13,150,ls)
);
},
{
closed = 1;
nodes = (
(140,103,o),
(125,118,o),
(125,166,cs),
(125,242,o),
(175,316,o),
(266,316,cs),
(293,316,o),
(301,309,o),
(301,287,cs),
(301,214,o),
(219,103,o),
(162,103,cs)
);
},
{
closed = 1;
nodes = (
(108,232,o),
(166,326,o),
(247,441,cs),
(278,484,o),
(327,531,o),
(406,587,cs),
(426,601,o),
(436,619,o),
(436,638,cs),
(435,664,o),
(411,684,o),
(381,684,cs),
(369,684,o),
(356,681,o),
(343,675,c),
(286,642,o),
(190,555,o),
(151,500,cs),
(65,379,o),
(29,331,o),
(12,140,c),
(125,135,l)
);
},
{
closed = 1;
nodes = (
(0,100,o),
(68,-1,o),
(164,-1,cs),
(291,-1,o),
(412,170,o),
(412,293,cs),
(412,375,o),
(359,421,o),
(268,421,cs),
(160,421,o),
(69,366,o),
(49,289,cs),
(13,150,ls)
);
},
{
closed = 1;
nodes = (
(140,103,o),
(125,118,o),
(125,166,cs),
(125,242,o),
(175,316,o),
(266,316,cs),
(293,316,o),
(301,309,o),
(301,287,cs),
(301,214,o),
(219,103,o),
(162,103,cs)
);
}
);
vertWidth = 0;
width = 594;
}
);
unicode = 54;
},
{
color = 6;
glyphname = seven;
layers = (
{
layerId = m01;
shapes = (
{
closed = 1;
nodes = (
(217,0,o),
(233,10,o),
(238,31,cs),
(358,640,ls),
(362,662,o),
(352,675,o),
(330,675,c),
(301,652,l),
(179,39,ls),
(175,14,o),
(188,0,o),
(203,0,cs)
);
},
{
closed = 1;
nodes = (
(6,634,o),
(17,621,o),
(38,621,cs),
(330,621,l),
(330,675,l),
(38,675,ls),
(17,675,o),
(6,662,o),
(6,649,cs)
);
}
);
vertWidth = 0;
width = 397;
},
{
layerId = m002;
shapes = (
{
closed = 1;
nodes = (
(287,0,o),
(317,18,o),
(323,50,cs),
(423,615,ls),
(430,655,o),
(411,675,o),
(369,675,c),
(310,638,l),
(208,59,ls),
(202,24,o),
(228,0,o),
(260,0,cs)
);
},
{
closed = 1;
nodes = (
(33,598,o),
(57,580,o),
(93,580,cs),
(369,580,l),
(369,675,l),
(93,675,ls),
(57,675,o),
(33,655,o),
(33,626,cs)
);
}
);
vertWidth = 0;
width = 480;
},
{
associatedMasterId = m01;
layerId = "08DE366F-5677-4CB5-B33F-3BA18852202A";
name = background;
shapes = (
{
closed = 1;
nodes = (
(361,661,o),
(354,675,o),
(330,675,cs),
(317,675,o),
(303,665,o),
(301,652,cs),
(190,31,ls),
(187,10,o),
(200,0,o),
(215,0,cs),
(229,0,o),
(246,10,o),
(249,31,cs),
(359,646,ls)
);
},
{
closed = 1;
nodes = (
(331,675,l),
(38,675,ls),
(17,675,o),
(6,662,o),
(6,649,cs),
(6,634,o),
(17,621,o),
(38,621,cs),
(331,621,l)
);
}
);
vertWidth = 0;
width = 594;
}
);
unicode = 55;
},
{
color = 6;
glyphname = eight;
layers = (
{
layerId = m01;
shapes = (
{
closed = 1;
nodes = (
(238,53,o),
(292,125,o),
(292,177,cs),
(292,213,o),
(254,274,o),
(214,318,cs),
(176,359,ls),
(134,403,o),
(75,459,o),
(75,525,cs),
(75,628,o),
(178,675,o),
(265,675,cs),
(335,675,o),
(423,644,o),
(423,580,cs),
(423,512,o),
(327,436,o),
(207,352,cs),
(96,273,o),
(71,211,o),
(71,165,cs),
(71,107,o),
(110,53,o),
(170,53,cs)
);
},
{
closed = 1;
nodes = (
(48,-5,o),
(13,88,o),
(13,157,cs),
(13,220,o),
(43,310,o),
(176,404,cs),
(248,455,o),
(367,549,o),
(367,580,cs),
(367,602,o),
(296,615,o),
(253,615,cs),
(204,615,o),
(135,599,o),
(135,531,cs),
(135,481,o),
(172,443,o),
(209,404,cs),
(245,367,ls),
(304,305,o),
(353,235,o),
(353,177,cs),
(353,100,o),
(286,-5,o),
(163,-5,cs)
);
}
);
vertWidth = 0;
width = 434;
},
{
layerId = m002;
shapes = (
{
closed = 1;
nodes = (
(248,96,o),
(285,135,o),
(285,176,cs),
(285,227,o),
(234,280,o),
(206,312,cs),
(173,347,ls),
(150,373,o),
(81,422,o),
(81,508,cs),
(81,625,o),
(198,676,o),
(290,676,cs),
(364,676,o),
(468,640,o),
(468,561,cs),
(468,481,o),
(342,397,o),
(260,337,cs),
(159,264,o),
(137,210,o),
(137,176,cs),
(137,128,o),
(160,96,o),
(200,96,cs)
);
},
{
closed = 1;
nodes = (
(62,-5,o),
(21,95,o),
(21,168,cs),
(21,234,o),
(64,330,o),
(177,412,cs),
(242,460,o),
(355,542,o),
(355,560,cs),
(355,577,o),
(309,580,o),
(271,580,cs),
(229,580,o),
(197,558,o),
(197,514,cs),
(197,463,o),
(238,436,o),
(261,412,cs),
(293,381,ls),
(346,330,o),
(402,260,o),
(402,187,cs),
(402,103,o),
(330,-5,o),
(194,-5,cs)
);
}
);
vertWidth = 0;
width = 475;
},
{
associatedMasterId = m01;
layerId = "4F5DD8FE-C57C-4AC7-80A5-4AD7BA33A64C";
name = background;
shapes = (
{
closed = 1;
nodes = (
(185,386,l),
(78,308,o),
(49,220,o),
(49,157,cs),
(49,88,o),
(83,-5,o),
(198,-5,cs),
(322,-5,o),
(388,100,o),
(388,177,cs),
(388,247,o),
(334,316,o),
(282,365,cs),
(264,381,l)
);
},
{
closed = 1;
nodes = (
(279,283,o),
(328,226,o),
(328,177,cs),
(328,125,o),
(273,53,o),
(206,53,cs),
(146,53,o),
(107,107,o),
(107,165,cs),
(107,211,o),
(132,274,o),
(223,339,c),
(238,324,ls)
);
},
{
closed = 1;
nodes = (
(362,437,o),
(459,512,o),
(459,580,cs),
(459,644,o),
(371,675,o),
(301,675,cs),
(214,675,o),
(110,628,o),
(110,525,cs),
(110,459,o),
(154,416,o),
(185,384,c),
(236,415,l),
(209,441,o),
(171,481,o),
(171,531,cs),
(171,599,o),
(240,615,o),
(289,615,cs),
(331,615,o),
(403,602,o),
(403,580,cs),
(403,549,o),
(273,438,o),
(184,383,c),
(266,371,l)
);
}
);
vertWidth = 0;
width = 594;
}
);
unicode = 56;
},
{
color = 6;
glyphname = nine;
layers = (
{
layerId = m01;
shapes = (
{
closed = 1;
nodes = (
(48,285,o),
(71,254,o),
(110,254,cs),
(188,254,o),
(295,341,o),
(436,627,c),
(390,627,l),
(255,404,o),
(158,315,o),
(124,315,cs),
(110,315,o),
(107,328,o),
(107,352,cs),
(107,397,o),
(128,504,o),
(159,550,cs),
(195,604,o),
(255,615,o),
(296,615,cs),
(394,615,l),
(407,615,l),
(407,675,l),
(296,675,ls),
(228,675,o),
(158,655,o),
(113,587,cs),
(75,530,o),
(48,415,o),
(48,346,cs)
);
},
{
closed = 1;
nodes = (
(320,0,o),
(335,10,o),
(339,29,cs),
(460,649,ls),
(462,663,o),
(455,675,o),
(441,675,cs),
(384,675,l),
(384,569,l),
(279,29,ls),
(276,10,o),
(290,0,o),
(304,0,cs)
);
}
);
vertWidth = 0;
width = 484;
},
{
layerId = m002;
shapes = (
{
closed = 1;
nodes = (
(39,268,o),
(78,233,o),
(128,233,cs),
(233,233,o),
(421,522,o),
(468,626,c),
(373,626,l),
(340,569,o),
(184,359,o),
(168,359,cs),
(162,359,o),
(160,374,o),
(160,380,cs),
(160,407,o),
(173,485,o),
(200,523,cs),
(227,565,o),
(268,571,o),
(303,571,cs),
(396,571,l),
(425,571,l),
(425,675,l),
(303,675,ls),
(233,675,o),
(154,658,o),
(106,586,cs),
(67,526,o),
(39,413,o),
(39,346,cs)
);
},
{
closed = 1;
nodes = (
(349,-6,o),
(381,12,o),
(387,43,cs),
(486,601,ls),
(497,659,o),
(479,675,o),
(440,675,cs),
(358,675,l),
(358,557,l),
(268,51,ls),
(261,13,o),
(296,-6,o),
(322,-6,cs)
);
}
);
vertWidth = 0;
width = 529;
},
{
associatedMasterId = m01;
layerId = "E5B1F992-8E7B-45A5-B210-A6D52BF533F5";
name = background;
shapes = (
{
closed = 1;
nodes = (
(384,617,l),
(350,561,o),
(311,503,o),
(263,441,cs),
(190,350,o),
(146,315,o),
(124,315,cs),
(107,315,o),
(107,333,o),
(107,352,cs),
(107,397,o),
(128,504,o),
(159,550,cs),
(195,604,o),
(255,615,o),
(296,615,cs),
(304,615,o),
(385,615,o),
(394,615,c),
(407,615,l),
(407,618,o),
(407,671,o),
(407,675,c),
(393,675,o),
(320,675,o),
(296,675,cs),
(228,675,o),
(158,655,o),
(113,587,cs),
(75,530,o),
(48,415,o),
(48,346,cs),
(48,285,o),
(71,254,o),
(110,254,cs),
(179,254,o),
(241,318,o),
(290,379,cs),
(348,453,o),
(405,544,o),
(432,606,cs),
(437,617,l)
);
},
{
closed = 1;
nodes = (
(462,663,o),
(455,675,o),
(441,675,c),
(384,675,l),
(384,569,l),
(291,29,ls),
(289,10,o),
(302,0,o),
(316,0,cs),
(331,0,o),
(347,10,o),
(350,29,cs),
(460,649,ls)
);
}
);
vertWidth = 0;
width = 594;
},
{
associatedMasterId = m002;
layerId = "FD7543B8-B2A8-487E-A6A9-2E2D6CF92D33";
name = background;
shapes = (
{
closed = 1;
nodes = (
(39,268,o),
(78,233,o),
(128,233,cs),
(209,233,o),
(274,303,o),
(321,360,cs),
(377,431,o),
(432,522,o),
(459,579,cs),
(480,626,l),
(367,626,l),
(334,569,o),
(304,512,o),
(257,451,cs),
(189,367,o),
(172,359,o),
(168,359,cs),
(162,359,o),
(160,374,o),
(160,380,cs),
(160,407,o),
(173,485,o),
(200,523,cs),
(227,565,o),
(268,571,o),
(303,571,cs),
(310,571,o),
(386,571,o),
(396,571,cs),
(437,571,l),
(437,601,o),
(437,649,o),
(437,675,c),
(410,675,o),
(328,675,o),
(303,675,cs),
(233,675,o),
(154,658,o),
(106,586,cs),
(67,526,o),
(39,413,o),
(39,346,cs)
);
},
{
closed = 1;
nodes = (
(349,-6,o),
(381,12,o),
(387,43,cs),
(491,628,ls),
(497,659,o),
(479,675,o),
(440,675,cs),
(355,675,l),
(358,557,l),
(268,51,ls),
(261,13,o),
(296,-6,o),
(322,-6,cs)
);
}
);
vertWidth = 0;
width = 594;
}
);
unicode = 57;
},
{
color = 6;
glyphname = zero.sc;
layers = (
{
layerId = m01;
shapes = (
{
closed = 1;
nodes = (
(226,0,o),
(361,187,o),
(361,328,cs),
(361,390,o),
(337,470,o),
(245,470,cs),
(88,470,o),
(26,233,o),
(26,137,cs),
(26,72,o),
(53,-1,o),
(121,-1,cs)
);
},
{
closed = 1;
nodes = (
(102,56,o),
(86,80,o),
(86,132,cs),
(86,229,o),
(146,413,o),
(247,413,cs),
(291,413,o),
(302,374,o),
(302,330,cs),
(302,181,o),
(169,56,o),
(121,56,cs)
);
}
);
vertWidth = 0;
width = 387;
},
{
layerId = m002;
shapes = (
{
closed = 1;
nodes = (
(253,0,o),
(381,181,o),
(381,317,cs),
(381,379,o),
(354,470,o),
(248,470,cs),
(84,470,o),
(26,239,o),
(26,149,cs),
(26,84,o),
(56,-1,o),
(139,-1,cs)
);
},
{
closed = 1;
nodes = (
(135,103,o),
(132,112,o),
(132,144,cs),
(132,227,o),
(178,366,o),
(251,366,cs),
(267,366,o),
(273,352,o),
(273,320,cs),
(273,197,o),
(170,103,o),
(145,103,c)
);
}
);
vertWidth = 0;
width = 407;
}
);
metricLeft = zero;
metricRight = zero;
},
{
color = 6;
glyphname = one.sc;
layers = (
{
layerId = m01;
shapes = (
{
closed = 1;
nodes = (
(234,460,o),
(219,470,o),
(204,470,cs),
(190,470,o),
(173,462,o),
(170,443,cs),
(97,31,ls),
(94,10,o),
(109,0,o),
(125,0,cs),
(137,0,o),
(153,6,o),
(157,25,cs),
(230,441,ls)
);
}
);
vertWidth = 0;
width = 346;
},
{
layerId = m002;
shapes = (
{
closed = 1;
nodes = (
(268,460,o),
(232,470,o),
(213,470,cs),
(194,470,o),
(156,462,o),
(149,422,cs),
(83,51,ls),
(76,10,o),
(113,0,o),
(133,0,cs),
(150,0,o),
(188,6,o),
(195,45,cs),
(261,419,ls)
);
}
);
vertWidth = 0;
width = 360;
}
);
metricLeft = one;
metricRight = one;
},
{
color = 6;
glyphname = two.sc;
layers = (
{
layerId = m01;
shapes = (
{
closed = 1;
nodes = (
(65,40,l),
(110,94,o),
(214,213,o),
(225,226,cs),
(329,350,o),
(339,412,o),
(268,454,cs),
(209,491,o),
(107,462,o),
(56,418,cs),
(32,398,o),
(36,384,o),
(45,372,cs),
(53,362,o),
(74,359,o),
(97,379,cs),
(138,412,o),
(208,425,o),
(240,405,cs),
(272,386,o),
(234,327,o),
(194,278,cs),
(173,253,o),
(89,160,o),
(-18,40,cs),
(-38,18,o),
(-23,0,o),
(2,0,cs),
(23,0,l)
);
},
{
closed = 1;
nodes = (
(220,0,ls),
(244,0,o),
(251,17,o),
(251,29,cs),
(251,40,o),
(244,57,o),
(220,57,cs),
(17,57,l),
(17,0,l)
);
}
);
vertWidth = 0;
width = 333;
},
{
layerId = m002;
shapes = (
{
closed = 1;
nodes = (
(122,45,l),
(162,93,o),
(254,198,o),
(263,209,cs),
(364,330,o),
(377,403,o),
(295,453,cs),
(229,492,o),
(124,462,o),
(71,417,cs),
(38,388,o),
(39,362,o),
(58,339,cs),
(75,320,o),
(115,314,o),
(147,342,cs),
(178,367,o),
(220,374,o),
(233,366,cs),
(242,360,o),
(223,331,o),
(190,290,cs),
(171,267,o),
(97,187,o),
(4,81,cs),
(-31,42,o),
(-2,0,o),
(44,0,cs),
(74,0,l)
);
},
{
closed = 1;
nodes = (
(236,0,ls),
(272,0,o),
(293,26,o),
(293,52,cs),
(293,78,o),
(272,105,o),
(236,105,cs),
(63,105,l),
(63,0,l)
);
}
);
vertWidth = 0;
width = 372;
}
);
metricLeft = two;
metricRight = two;
},
{
color = 6;
glyphname = three.sc;
layers = (
{
layerId = m01;
shapes = (
{
closed = 1;
nodes = (
(129,233,o),
(159,241,o),
(182,241,cs),
(223,241,o),
(235,217,o),
(235,187,cs),
(235,110,o),
(149,53,o),
(81,53,cs),
(63,53,o),
(50,57,o),
(37,68,cs),
(13,84,o),
(-6,70,o),
(-10,64,cs),
(-17,56,o),
(-23,43,o),
(4,21,cs),
(24,5,o),
(52,-4,o),
(81,-4,cs),
(176,-4,o),
(295,81,o),
(295,187,cs),
(295,253,o),
(251,297,o),
(178,297,cs),
(146,297,o),
(108,289,o),
(69,268,c),
(87,214,l)
);
},
{
closed = 1;
nodes = (
(195,284,o),
(292,353,o),
(292,406,cs),
(292,446,o),
(253,470,o),
(203,470,cs),
(164,470,o),
(112,455,o),
(64,424,cs),
(40,409,o),
(44,390,o),
(50,381,c),
(55,369,o),
(75,361,o),
(90,372,cs),
(139,405,o),
(181,417,o),
(208,417,cs),
(227,417,o),
(233,413,o),
(233,406,cs),
(233,385,o),
(129,307,o),
(63,265,cs),
(45,253,o),
(49,235,o),
(51,227,cs),
(56,216,o),
(78,206,o),
(96,217,cs)
);
}
);
vertWidth = 0;
width = 355;
},
{
layerId = m002;
shapes = (
{
closed = 1;
nodes = (
(137,207,o),
(160,215,o),
(178,215,cs),
(194,215,o),
(201,209,o),
(201,189,cs),
(201,141,o),
(145,102,o),
(102,102,cs),
(83,102,o),
(77,107,o),
(69,113,cs),
(40,133,o),
(1,118,o),
(-11,100,cs),
(-25,78,o),
(-31,51,o),
(4,23,cs),
(26,5,o),
(61,-5,o),
(94,-5,cs),
(192,-5,o),
(312,84,o),
(312,194,cs),
(312,267,o),
(261,314,o),
(181,314,cs),
(143,314,o),
(101,301,o),
(64,284,c),
(128,201,l)
);
},
{
closed = 1;
nodes = (
(214,259,o),
(311,322,o),
(311,386,cs),
(311,432,o),
(268,470,o),
(202,470,cs),
(162,470,o),
(108,454,o),
(63,424,cs),
(30,403,o),
(29,373,o),
(39,352,cs),
(51,326,o),
(87,320,o),
(113,339,cs),
(153,366,o),
(183,383,o),
(197,386,cs),
(206,388,o),
(208,386,o),
(202,378,cs),
(194,365,o),
(125,315,o),
(63,284,cs),
(37,271,o),
(32,242,o),
(40,221,cs),
(50,195,o),
(95,178,o),
(126,200,cs)
);
}
);
vertWidth = 0;
width = 369;
}
);
metricLeft = three;
metricRight = three;
},
{
color = 6;
glyphname = four.sc;
layers = (
{
layerId = m01;
shapes = (
{
closed = 1;
nodes = (
(150,460,o),
(134,470,o),
(119,470,cs),
(107,470,o),
(90,463,o),
(87,444,cs),
(31,138,l),
(30,122,o),
(40,108,o),
(61,108,cs),
(80,108,o),
(89,122,o),
(90,135,c),
(146,438,ls)
);
},
{
closed = 1;
nodes = (
(238,251,o),
(225,263,o),
(213,266,cs),
(197,268,o),
(179,260,o),
(176,240,cs),
(138,34,ls),
(134,13,o),
(147,0,o),
(164,0,cs),
(176,0,o),
(194,7,o),
(197,27,cs),
(234,232,ls)
);
},
{
closed = 1;
nodes = (
(301,108,ls),
(320,108,o),
(331,122,o),
(331,135,cs),
(331,149,o),
(320,160,o),
(301,160,cs),
(52,160,l),
(52,108,l)
);
}
);
vertWidth = 0;
width = 340;
},
{
layerId = m002;
shapes = (
{
closed = 1;
nodes = (
(195,447,o),
(165,470,o),
(134,470,cs),
(109,470,o),
(82,455,o),
(76,425,cs),
(26,153,ls),
(20,122,o),
(48,95,o),
(82,95,cs),
(113,95,o),
(133,118,o),
(138,145,cs),
(188,410,ls)
);
},
{
closed = 1;
nodes = (
(301,259,o),
(278,286,o),
(254,289,cs),
(225,292,o),
(189,279,o),
(183,245,cs),
(150,63,ls),
(144,27,o),
(169,0,o),
(200,0,cs),
(225,0,o),
(255,14,o),
(261,46,cs),
(295,227,ls)
);
},
{
closed = 1;
nodes = (
(318,95,ls),
(350,95,o),
(375,120,o),
(375,147,cs),
(375,175,o),
(350,196,o),
(318,196,cs),
(78,196,l),
(78,95,l)
);
}
);
vertWidth = 0;
width = 387;
}
);
metricLeft = four;
metricRight = four;
},
{
color = 6;
glyphname = five.sc;
layers = (
{
layerId = m01;
shapes = (
{
closed = 1;
nodes = (
(86,238,o),
(108,242,o),
(131,242,cs),
(188,242,o),
(210,207,o),
(210,177,cs),
(210,129,o),
(154,52,o),
(83,52,cs),
(64,52,o),
(50,59,o),
(40,68,cs),
(33,75,o),
(24,77,o),
(17,77,cs),
(2,77,o),
(-12,67,o),
(-12,52,cs),
(-12,45,o),
(-7,34,o),
(1,25,c),
(20,8,o),
(49,-5,o),
(83,-5,cs),
(192,-5,o),
(270,106,o),
(270,178,cs),
(270,241,o),
(215,299,o),
(127,299,cs),
(102,299,o),
(77,295,o),
(45,284,c),
(50,228,l)
);
},
{
closed = 1;
nodes = (
(97,469,l),
(90,473,o),
(75,468,o),
(69,462,c),
(62,459,o),
(58,450,o),
(56,442,c),
(23,257,ls),
(19,240,o),
(33,229,o),
(51,229,cs),
(64,229,o),
(81,238,o),
(83,254,cs),
(115,441,l)
);
},
{
closed = 1;
nodes = (
(286,418,ls),
(308,418,o),
(316,430,o),
(316,443,cs),
(316,455,o),
(309,470,o),
(286,470,cs),
(82,470,l),
(82,418,l)
);
}
);
vertWidth = 0;
width = 321;
},
{
layerId = m002;
shapes = (
{
closed = 1;
nodes = (
(134,210,o),
(150,217,o),
(177,214,cs),
(202,210,o),
(213,203,o),
(213,179,cs),
(213,150,o),
(177,101,o),
(141,101,cs),
(119,101,o),
(113,106,o),
(106,110,cs),
(97,116,o),
(83,122,o),
(62,122,cs),
(43,122,o),
(15,101,o),
(15,80,cs),
(15,62,o),
(20,44,o),
(34,31,cs),
(55,12,o),
(89,-5,o),
(129,-5,cs),
(245,-5,o),
(324,109,o),
(324,185,cs),
(324,255,o),
(263,320,o),
(169,320,cs),
(137,320,o),
(101,310,o),
(94,308,c),
(112,204,l)
);
},
{
closed = 1;
nodes = (
(164,463,l),
(139,476,o),
(110,470,o),
(96,457,cs),
(86,449,o),
(78,436,o),
(76,423,cs),
(46,259,ls),
(40,227,o),
(68,203,o),
(101,203,cs),
(126,203,o),
(154,220,o),
(159,247,cs),
(189,422,l)
);
},
{
closed = 1;
nodes = (
(309,369,ls),
(343,369,o),
(365,392,o),
(365,419,cs),
(365,446,o),
(345,470,o),
(309,470,cs),
(135,470,l),
(135,369,l)
);
}
);
vertWidth = 0;
width = 342;
}
);
metricLeft = five;
metricRight = five;
},
{
color = 6;
glyphname = six.sc;
layers = (
{
layerId = m01;
shapes = (
{
closed = 1;
nodes = (
(81,164,o),
(108,227,o),
(164,308,cs),
(185,339,o),
(221,379,o),
(280,419,cs),
(291,425,o),
(296,436,o),
(296,447,cs),
(296,460,o),
(285,470,o),
(268,470,cs),
(263,470,o),
(255,469,o),
(247,465,cs),
(208,442,o),
(141,375,o),
(113,337,cs),
(57,257,o),
(23,169,o),
(25,86,c),
(83,86,l)
);
},
{
closed = 1;
nodes = (
(25,43,o),
(67,-5,o),
(127,-5,cs),
(214,-5,o),
(303,119,o),
(303,208,cs),
(303,265,o),
(268,293,o),
(207,293,cs),
(133,293,o),
(80,252,o),
(51,201,c),
(25,96,l)
);
},
{
closed = 1;
nodes = (
(102,52,o),
(83,69,o),
(83,112,cs),
(83,172,o),
(128,236,o),
(206,236,cs),
(234,236,o),
(245,229,o),
(245,204,cs),
(245,144,o),
(176,52,o),
(126,52,cs)
);
}
);
vertWidth = 0;
width = 362;
},
{
layerId = m002;
shapes = (
{
closed = 1;
nodes = (
(108,158,o),
(135,208,o),
(190,287,cs),
(208,314,o),
(235,340,o),
(284,373,cs),
(301,384,o),
(311,402,o),
(311,421,cs),
(311,447,o),
(287,470,o),
(258,470,cs),
(247,470,o),
(234,467,o),
(222,459,cs),
(182,435,o),
(122,380,o),
(96,345,cs),
(37,260,o),
(11,188,o),
(12,109,c),
(118,109,l)
);
},
{
closed = 1;
nodes = (
(11,56,o),
(59,-5,o),
(132,-5,cs),
(229,-5,o),
(317,125,o),
(317,214,cs),
(317,280,o),
(273,317,o),
(202,317,cs),
(122,317,o),
(64,268,o),
(37,217,c),
(12,115,l)
);
},
{
closed = 1;
nodes = (
(128,100,o),
(122,112,o),
(122,134,cs),
(122,175,o),
(150,213,o),
(190,213,cs),
(204,213,o),
(207,208,o),
(207,194,cs),
(207,158,o),
(164,100,o),
(140,100,cs)
);
}
);
vertWidth = 0;
width = 340;
}
);
metricLeft = six;
metricRight = six;
},
{
color = 6;
glyphname = seven.sc;
layers = (
{
layerId = m01;
shapes = (
{
closed = 1;
nodes = (
(265,455,o),
(257,470,o),
(233,470,cs),
(222,470,o),
(207,462,o),
(204,448,cs),
(131,31,ls),
(127,10,o),
(140,0,o),
(156,0,cs),
(169,0,o),
(185,8,o),
(189,29,cs),
(261,442,l)
);
},
{
closed = 1;
nodes = (
(244,470,l),
(37,470,ls),
(17,470,o),
(6,456,o),
(6,444,cs),
(6,431,o),
(17,417,o),
(37,417,cs),
(244,417,l)
);
}
);
vertWidth = 0;
width = 299;
},
{
layerId = m002;
shapes = (
{
closed = 1;
nodes = (
(323,442,o),
(303,470,o),
(264,470,cs),
(240,470,o),
(214,454,o),
(209,426,cs),
(144,59,ls),
(137,23,o),
(164,0,o),
(195,0,cs),
(220,0,o),
(248,17,o),
(254,48,cs),
(318,413,ls)
);
},
{
closed = 1;
nodes = (
(265,470,l),
(90,470,ls),
(57,470,o),
(33,447,o),
(33,421,cs),
(33,393,o),
(57,368,o),
(90,368,cs),
(265,368,l)
);
}
);
vertWidth = 0;
width = 375;
}
);
metricLeft = seven;
metricRight = seven;
},
{
color = 6;
glyphname = eight.sc;
layers = (
{
layerId = m01;
shapes = (
{
closed = 1;
nodes = (
(110,274,l),
(34,219,o),
(13,157,o),
(13,112,cs),
(13,63,o),
(39,-5,o),
(122,-5,cs),
(211,-5,o),
(260,70,o),
(260,126,cs),
(260,175,o),
(221,222,o),
(185,258,cs),
(171,272,l)
);
},
{
closed = 1;
nodes = (
(170,191,o),
(201,156,o),
(201,126,cs),
(201,94,o),
(168,52,o),
(127,52,cs),
(93,52,o),
(71,81,o),
(71,118,cs),
(71,147,o),
(86,183,o),
(139,222,c),
(143,219,ls)
);
},
{
closed = 1;
nodes = (
(238,292,o),
(307,346,o),
(307,396,cs),
(307,444,o),
(241,470,o),
(191,470,cs),
(129,470,o),
(55,435,o),
(55,359,cs),
(55,308,o),
(93,273,o),
(113,254,c),
(163,284,l),
(144,302,o),
(114,327,o),
(114,364,cs),
(114,403,o),
(152,413,o),
(183,413,cs),
(211,413,o),
(251,404,o),
(251,396,cs),
(251,377,o),
(157,299,o),
(101,270,c),
(170,247,l)
);
}
);
vertWidth = 0;
width = 317;
},
{
layerId = m002;
shapes = (
{
closed = 1;
nodes = (
(131,291,l),
(49,234,o),
(21,172,o),
(21,126,cs),
(21,76,o),
(50,-4,o),
(145,-4,cs),
(241,-4,o),
(292,78,o),
(292,139,cs),
(292,190,o),
(247,234,o),
(214,267,cs),
(194,287,l)
);
},
{
closed = 1;
nodes = (
(151,197,o),
(197,163,o),
(197,139,cs),
(197,118,o),
(171,93,o),
(149,93,cs),
(132,93,o),
(116,106,o),
(116,131,cs),
(116,153,o),
(134,175,o),
(157,191,c),
(156,192,ls)
);
},
{
closed = 1;
nodes = (
(251,265,o),
(334,317,o),
(334,377,cs),
(334,438,o),
(259,470,o),
(206,470,cs),
(141,470,o),
(58,429,o),
(58,345,cs),
(58,289,o),
(100,252,o),
(132,221,c),
(214,267,l),
(198,295,o),
(153,316,o),
(153,349,cs),
(153,366,o),
(175,386,o),
(198,386,cs),
(216,386,o),
(238,383,o),
(238,375,cs),
(238,367,o),
(202,345,o),
(100,267,c),
(187,222,l)
);
}
);
vertWidth = 0;
width = 341;
}
);
metricLeft = eight;
metricRight = eight;
},
{
color = 6;
glyphname = nine.sc;
layers = (
{
layerId = m01;
shapes = (
{
closed = 1;
nodes = (
(278,431,l),
(253,392,o),
(228,350,o),
(195,309,cs),
(146,249,o),
(120,227,o),
(108,227,cs),
(106,227,o),
(106,232,o),
(106,244,cs),
(106,272,o),
(121,343,o),
(140,373,cs),
(163,406,o),
(198,413,o),
(225,413,cs),
(230,413,o),
(284,413,o),
(291,413,cs),
(309,413,l),
(309,423,o),
(309,462,o),
(309,470,c),
(301,470,o),
(244,470,o),
(225,470,cs),
(176,470,o),
(126,455,o),
(93,407,cs),
(67,366,o),
(48,287,o),
(48,240,cs),
(48,195,o),
(68,170,o),
(99,170,cs),
(151,170,o),
(194,216,o),
(228,258,cs),
(267,308,o),
(309,368,o),
(326,412,cs),
(333,431,l)
);
},
{
closed = 1;
nodes = (
(347,460,o),
(336,470,o),
(322,470,cs),
(274,470,l),
(274,392,l),
(211,27,ls),
(208,8,o),
(223,0,o),
(239,0,cs),
(252,0,o),
(266,7,o),
(270,25,cs),
(343,442,ls)
);
}
);
vertWidth = 0;
width = 368;
},
{
layerId = m002;
shapes = (
{
closed = 1;
nodes = (
(264,415,l),
(260,391,o),
(228,356,o),
(211,334,cs),
(188,303,o),
(172,290,o),
(166,284,cs),
(159,277,o),
(151,270,o),
(139,270,cs),
(129,270,o),
(147,331,o),
(168,361,cs),
(181,380,o),
(214,378,o),
(233,378,cs),
(239,378,o),
(285,378,o),
(292,378,cs),
(322,378,l),
(322,418,o),
(322,444,o),
(322,470,c),
(293,470,o),
(251,470,o),
(233,470,cs),
(184,470,o),
(121,459,o),
(84,407,cs),
(57,365,o),
(43,285,o),
(39,240,cs),
(36,187,o),
(77,160,o),
(121,160,cs),
(172,160,o),
(221,219,o),
(252,257,cs),
(289,303,o),
(343,360,o),
(349,381,cs),
(359,415,l)
);
},
{
closed = 1;
nodes = (
(374,447,o),
(349,470,o),
(320,470,cs),
(247,470,l),
(252,377,l),
(195,55,ls),
(189,18,o),
(219,0,o),
(246,0,cs),
(270,0,o),
(298,15,o),
(303,44,cs),
(368,413,ls)
);
}
);
vertWidth = 0;
width = 409;
}
);
metricLeft = nine;
metricRight = nine;
},
{
color = 6;
glyphname = .notdef;
layers = (
{
layerId = m01;
shapes = (
{
closed = 1;
nodes = (
(556,0,o),
(569,14,o),
(573,32,cs),
(708,800,ls),
(712,819,o),
(703,832,o),
(687,832,cs),
(216,832,ls),
(196,832,o),
(183,819,o),
(179,800,cs),
(44,32,ls),
(40,14,o),
(50,0,o),
(72,0,cs),
(543,0,ls)
);
},
{
closed = 1;
nodes = (
(236,778,l),
(644,778,l),
(517,53,l),
(108,53,l)
);
}
);
vertWidth = 0;
width = 743;
},
{
layerId = m002;
shapes = (
{
closed = 1;
nodes = (
(609,0,o),
(637,31,o),
(642,58,cs),
(769,783,ls),
(775,816,o),
(757,832,o),
(713,832,c),
(261,832,l),
(228,832,o),
(203,816,o),
(197,783,cs),
(70,58,ls),
(64,25,o),
(81,0,o),
(127,0,cs),
(580,0,ls)
);
},
{
closed = 1;
nodes = (
(308,719,l),
(637,719,l),
(530,113,l),
(201,113,l)
);
}
);
vertWidth = 0;
width = 828;
}
);
},
{
color = 6;
glyphname = period;
kernLeft = period_left;
kernRight = period_right;
layers = (
{
layerId = m01;
shapes = (
{
closed = 1;
nodes = (
(94,-14,o),
(115,7,o),
(115,32,cs),
(115,56,o),
(94,76,o),
(70,76,cs),
(45,76,o),
(26,56,o),
(26,32,cs),
(26,8,o),
(45,-14,o),
(70,-14,cs)
);
}
);
vertWidth = 0;
width = 240;
},
{
layerId = m002;
shapes = (
{
closed = 1;
nodes = (
(157,-13,o),
(192,23,o),
(192,64,cs),
(192,105,o),
(157,139,o),
(116,139,cs),
(74,139,o),
(40,105,o),
(40,64,cs),
(40,24,o),
(74,-13,o),
(116,-13,cs)
);
}
);
vertWidth = 0;
width = 390;
}
);
unicode = 46;
},
{
color = 6;
glyphname = comma;
kernLeft = period_left;
kernRight = period_right;
layers = (
{
layerId = m01;
shapes = (
{
closed = 1;
nodes = (
(61,-122,o),
(78,-114,o),
(82,-93,cs),
(103,25,ls),
(107,46,o),
(94,58,o),
(78,59,cs),
(63,62,o),
(48,53,o),
(44,33,cs),
(24,-84,ls),
(20,-106,o),
(32,-118,o),
(46,-120,cs)
);
}
);
vertWidth = 0;
width = 240;
},
{
layerId = m002;
shapes = (
{
closed = 1;
nodes = (
(122,-125,o),
(158,-107,o),
(164,-71,cs),
(185,46,ls),
(191,84,o),
(166,108,o),
(134,112,cs),
(105,115,o),
(72,99,o),
(67,64,cs),
(46,-53,ls),
(40,-90,o),
(64,-115,o),
(94,-120,cs)
);
}
);
vertWidth = 0;
width = 379;
}
);
unicode = 44;
},
{
color = 6;
glyphname = colon;
kernLeft = colon_left;
kernRight = colon_right;
layers = (
{
layerId = m01;
shapes = (
{
closed = 1;
nodes = (
(109,-13,o),
(131,8,o),
(131,33,cs),
(131,57,o),
(109,77,o),
(84,77,cs),
(59,77,o),
(40,57,o),
(40,33,cs),
(40,10,o),
(59,-13,o),
(84,-13,cs)
);
},
{
closed = 1;
nodes = (
(154,279,o),
(176,302,o),
(176,326,cs),
(176,350,o),
(154,369,o),
(131,369,cs),
(106,369,o),
(87,349,o),
(87,326,cs),
(87,303,o),
(106,279,o),
(131,279,cs)
);
}
);
vertWidth = 0;
width = 291;
},
{
layerId = m002;
shapes = (
{
closed = 1;
nodes = (
(157,-12,o),
(192,24,o),
(192,65,cs),
(192,107,o),
(157,140,o),
(115,140,cs),
(72,140,o),
(40,106,o),
(40,65,cs),
(40,25,o),
(72,-12,o),
(115,-12,cs)
);
},
{
closed = 1;
nodes = (
(203,267,o),
(239,304,o),
(239,346,cs),
(239,386,o),
(203,419,o),
(163,419,cs),
(120,419,o),
(87,384,o),
(87,345,cs),
(87,305,o),
(120,267,o),
(162,267,cs)
);
}
);
vertWidth = 0;
width = 390;
},
{
associatedMasterId = m01;
layerId = "91A00DA1-DFBA-4F9F-8518-7DECF8D34E4E";
name = background;
shapes = (
{
closed = 1;
nodes = (
(109,-36,o),
(131,-14,o),
(131,11,cs),
(131,34,o),
(109,55,o),
(84,55,cs),
(59,55,o),
(40,34,o),
(40,11,cs),
(40,-13,o),
(59,-36,o),
(84,-36,cs)
);
},
{
closed = 1;
nodes = (
(151,208,o),
(172,230,o),
(172,254,cs),
(172,279,o),
(151,298,o),
(127,298,cs),
(102,298,o),
(83,278,o),
(83,254,cs),
(83,232,o),
(102,208,o),
(127,208,cs)
);
}
);
vertWidth = 0;
width = 594;
}
);
unicode = 58;
},
{
color = 6;
glyphname = semicolon;
kernLeft = colon_left;
kernRight = colon_right;
layers = (
{
layerId = m01;
shapes = (
{
closed = 1;
nodes = (
(78,-122,o),
(94,-113,o),
(97,-93,cs),
(119,25,ls),
(122,46,o),
(109,58,o),
(94,59,cs),
(78,62,o),
(63,53,o),
(59,33,cs),
(39,-84,ls),
(36,-107,o),
(50,-120,o),
(65,-121,cs)
);
},
{
closed = 1;
nodes = (
(154,279,o),
(176,302,o),
(176,326,cs),
(176,350,o),
(154,369,o),
(131,369,cs),
(106,369,o),
(87,349,o),
(87,326,cs),
(87,303,o),
(106,279,o),
(131,279,cs)
);
}
);
vertWidth = 0;
width = 291;
},
{
layerId = m002;
shapes = (
{
closed = 1;
nodes = (
(131,-124,o),
(162,-106,o),
(168,-71,cs),
(189,46,ls),
(196,84,o),
(170,108,o),
(138,112,cs),
(108,115,o),
(76,99,o),
(70,64,cs),
(50,-53,ls),
(43,-93,o),
(71,-119,o),
(103,-121,cs)
);
},
{
closed = 1;
nodes = (
(210,258,o),
(246,296,o),
(246,335,cs),
(246,378,o),
(210,410,o),
(170,410,cs),
(127,410,o),
(96,375,o),
(96,335,cs),
(96,298,o),
(127,258,o),
(170,258,cs)
);
}
);
vertWidth = 0;
width = 388;
}
);
unicode = 59;
},
{
color = 6;
glyphname = ellipsis;
layers = (
{
layerId = m01;
shapes = (
{
closed = 1;
nodes = (
(369,-36,o),
(391,-14,o),
(391,11,cs),
(391,34,o),
(369,55,o),
(346,55,cs),
(321,55,o),
(302,34,o),
(302,11,cs),
(302,-13,o),
(321,-36,o),
(346,-36,cs)
);
},
{
closed = 1;
nodes = (
(108,-36,o),
(129,-14,o),
(129,11,cs),
(129,34,o),
(108,55,o),
(84,55,cs),
(59,55,o),
(40,34,o),
(40,11,cs),
(40,-13,o),
(59,-36,o),
(84,-36,cs)
);
},
{
closed = 1;
nodes = (
(239,-36,o),
(260,-14,o),
(260,11,cs),
(260,34,o),
(239,55,o),
(215,55,cs),
(190,55,o),
(171,34,o),
(171,11,cs),
(171,-13,o),
(190,-36,o),
(215,-36,cs)
);
}
);
vertWidth = 0;
width = 563;
},
{
layerId = m002;
shapes = (
{
closed = 1;
nodes = (
(504,-37,o),
(536,-7,o),
(536,30,cs),
(536,67,o),
(504,94,o),
(469,94,cs),
(436,94,o),
(405,68,o),
(405,30,cs),
(405,-7,o),
(436,-37,o),
(470,-37,cs)
);
},
{
closed = 1;
nodes = (
(159,-37,o),
(191,-7,o),
(191,30,cs),
(191,67,o),
(159,94,o),
(125,94,cs),
(91,94,o),
(61,68,o),
(61,30,cs),
(61,-7,o),
(91,-37,o),
(126,-37,cs)
);
},
{
closed = 1;
nodes = (
(331,-36,o),
(364,-7,o),
(364,30,cs),
(364,67,o),
(331,94,o),
(298,94,cs),
(264,94,o),
(233,67,o),
(233,30,cs),
(233,-7,o),
(264,-36,o),
(298,-36,cs)
);
}
);
vertWidth = 0;
width = 733;
}
);
unicode = 8230;
},
{
color = 6;
glyphname = exclam;
layers = (
{
layerId = m01;
shapes = (
{
closed = 1;
nodes = (
(240,764,o),
(228,772,o),
(214,772,cs),
(198,772,o),
(181,764,o),
(177,747,cs),
(87,240,ls),
(83,220,o),
(97,209,o),
(112,208,cs),
(126,207,o),
(144,217,o),
(147,240,cs),
(238,747,ls)
);
},
{
closed = 1;
nodes = (
(112,-7,o),
(134,17,o),
(134,42,cs),
(134,67,o),
(112,88,o),
(84,88,cs),
(58,88,o),
(39,65,o),
(39,42,cs),
(39,18,o),
(58,-7,o),
(84,-7,cs)
);
}
);
vertWidth = 0;
width = 292;
},
{
layerId = m002;
shapes = (
{
closed = 1;
nodes = (
(296,751,o),
(264,772,o),
(235,772,cs),
(209,772,o),
(175,754,o),
(170,726,cs),
(88,268,ls),
(82,234,o),
(110,210,o),
(140,208,cs),
(168,206,o),
(202,227,o),
(208,261,cs),
(290,719,ls)
);
},
{
closed = 1;
nodes = (
(154,-12,o),
(194,24,o),
(194,64,cs),
(194,105,o),
(154,140,o),
(113,140,cs),
(70,140,o),
(42,102,o),
(42,64,cs),
(42,27,o),
(70,-12,o),
(113,-12,cs)
);
}
);
vertWidth = 0;
width = 347;
}
);
unicode = 33;
},
{
color = 6;
glyphname = exclamdown;
layers = (
{
layerId = m01;
shapes = (
{
closed = 1;
nodes = (
(198,524,o),
(184,535,o),
(170,536,cs),
(156,537,o),
(138,526,o),
(134,504,cs),
(46,25,ls),
(43,7,o),
(57,-1,o),
(72,0,cs),
(87,0,o),
(103,8,o),
(107,25,cs),
(195,504,ls)
);
},
{
closed = 1;
nodes = (
(229,695,o),
(245,714,o),
(245,733,cs),
(245,752,o),
(229,772,o),
(208,772,cs),
(187,772,o),
(168,753,o),
(168,733,cs),
(168,713,o),
(187,695,o),
(208,695,cs)
);
}
);
vertWidth = 0;
width = 292;
},
{
layerId = m002;
shapes = (
{
closed = 1;
nodes = (
(252,514,o),
(221,535,o),
(194,537,cs),
(165,539,o),
(132,519,o),
(126,484,cs),
(50,56,ls),
(44,20,o),
(74,-2,o),
(107,0,cs),
(133,0,o),
(164,17,o),
(169,46,cs),
(245,474,ls)
);
},
{
closed = 1;
nodes = (
(264,642,o),
(290,672,o),
(290,706,cs),
(290,740,o),
(264,772,o),
(227,772,cs),
(191,772,o),
(159,740,o),
(159,706,cs),
(159,672,o),
(191,642,o),
(227,642,cs)
);
}
);
vertWidth = 0;
width = 324;
}
);
unicode = 161;
},
{
color = 6;
glyphname = question;
layers = (
{
layerId = m01;
shapes = (
{
closed = 1;
nodes = (
(166,539,o),
(190,550,o),
(195,576,cs),
(207,644,o),
(252,718,o),
(353,718,cs),
(431,718,o),
(494,675,o),
(480,588,cs),
(466,497,o),
(413,383,o),
(249,383,c),
(245,323,l),
(430,323,o),
(512,432,o),
(538,579,cs),
(558,691,o),
(478,777,o),
(369,777,cs),
(233,777,o),
(157,701,o),
(137,588,cs),
(132,562,o),
(138,546,o),
(151,543,cs)
);
},
{
closed = 1;
nodes = (
(228,-7,o),
(252,14,o),
(252,38,cs),
(252,65,o),
(229,88,o),
(202,88,cs),
(177,88,o),
(157,64,o),
(157,38,cs),
(157,15,o),
(177,-7,o),
(202,-7,cs)
);
},
{
closed = 1;
nodes = (
(238,206,o),
(254,214,o),
(259,240,c),
(280,360,l),
(249,383,l),
(236,383,o),
(222,373,o),
(220,360,cs),
(198,240,ls),
(196,223,o),
(208,211,o),
(222,208,cs)
);
}
);
vertWidth = 0;
width = 579;
},
{
layerId = m002;
shapes = (
{
closed = 1;
nodes = (
(177,507,o),
(219,526,o),
(225,565,cs),
(234,623,o),
(264,671,o),
(337,671,cs),
(398,671,o),
(434,647,o),
(424,599,cs),
(416,545,o),
(392,413,o),
(235,423,c),
(209,317,l),
(417,304,o),
(506,419,o),
(537,584,cs),
(555,685,o),
(467,777,o),
(352,777,cs),
(213,777,o),
(133,696,o),
(113,586,cs),
(105,544,o),
(122,522,o),
(147,516,cs)
);
},
{
closed = 1;
nodes = (
(221,-14,o),
(259,21,o),
(259,63,cs),
(259,103,o),
(223,138,o),
(182,138,cs),
(139,138,o),
(107,102,o),
(107,63,cs),
(107,24,o),
(139,-14,o),
(181,-14,cs)
);
},
{
closed = 1;
nodes = (
(238,203,o),
(266,229,o),
(273,267,c),
(292,372,l),
(235,423,l),
(210,423,o),
(184,406,o),
(179,381,cs),
(160,277,ls),
(154,246,o),
(172,216,o),
(207,209,cs)
);
}
);
vertWidth = 0;
width = 575;
}
);
unicode = 63;
},
{
color = 6;
glyphname = questiondown;
layers = (
{
layerId = m01;
shapes = (
{
closed = 1;
nodes = (
(176,454,o),
(95,345,o),
(65,179,cs),
(49,86,o),
(129,0,o),
(238,0,cs),
(374,0,o),
(450,76,o),
(470,189,cs),
(475,215,o),
(469,230,o),
(456,234,cs),
(441,238,o),
(417,227,o),
(412,201,cs),
(400,133,o),
(355,59,o),
(254,59,cs),
(176,59,o),
(112,102,o),
(125,175,cs),
(134,229,o),
(163,394,o),
(355,394,c),
(361,454,l)
);
},
{
closed = 1;
nodes = (
(411,554,o),
(399,565,o),
(385,569,cs),
(369,571,o),
(353,563,o),
(348,537,cs),
(327,417,ls),
(326,409,o),
(334,394,o),
(358,394,cs),
(371,394,o),
(385,404,o),
(387,417,cs),
(409,537,ls)
);
},
{
closed = 1;
nodes = (
(435,695,o),
(451,714,o),
(451,735,cs),
(451,753,o),
(435,772,o),
(415,772,cs),
(393,772,o),
(374,754,o),
(374,735,cs),
(374,713,o),
(392,695,o),
(415,695,cs)
);
}
);
vertWidth = 0;
width = 580;
},
{
layerId = m002;
shapes = (
{
closed = 1;
nodes = (
(228,473,o),
(132,352,o),
(102,190,cs),
(86,90,o),
(170,1,o),
(283,1,cs),
(419,1,o),
(505,80,o),
(525,189,cs),
(531,230,o),
(516,252,o),
(491,258,cs),
(462,266,o),
(421,247,o),
(413,208,cs),
(405,152,o),
(375,106,o),
(304,106,cs),
(245,106,o),
(211,128,o),
(220,176,cs),
(228,228,o),
(257,356,o),
(400,343,c),
(435,459,l)
);
},
{
closed = 1;
nodes = (
(486,539,o),
(463,562,o),
(435,569,cs),
(404,575,o),
(368,558,o),
(361,517,cs),
(340,396,ls),
(335,368,o),
(364,343,o),
(400,343,cs),
(426,343,o),
(454,361,o),
(459,387,cs),
(480,508,ls)
);
},
{
closed = 1;
nodes = (
(492,642,o),
(518,675,o),
(518,709,cs),
(518,743,o),
(489,772,o),
(454,772,cs),
(417,772,o),
(387,743,o),
(387,710,cs),
(387,675,o),
(417,642,o),
(455,642,cs)
);
}
);
vertWidth = 0;
width = 684;
}
);
unicode = 191;
},
{
color = 6;
glyphname = periodcentered;
layers = (
{
layerId = m01;
shapes = (
{
closed = 1;
nodes = (
(144,164,o),
(165,187,o),
(165,210,cs),
(165,235,o),
(144,254,o),
(120,254,cs),
(95,254,o),
(76,234,o),
(76,210,cs),
(76,188,o),
(95,164,o),
(120,164,cs)
);
}
);
vertWidth = 0;
width = 302;
},
{
layerId = m002;
shapes = (
{
closed = 1;
nodes = (
(191,144,o),
(223,177,o),
(223,211,cs),
(223,248,o),
(191,274,o),
(157,274,cs),
(120,274,o),
(93,246,o),
(93,211,cs),
(93,179,o),
(120,144,o),
(157,144,cs)
);
}
);
vertWidth = 0;
width = 388;
}
);
unicode = 183;
},
{
color = 6;
glyphname = bullet;
layers = (
{
layerId = m01;
shapes = (
{
closed = 1;
nodes = (
(248,330,o),
(292,373,o),
(292,422,cs),
(292,470,o),
(249,511,o),
(202,511,cs),
(152,511,o),
(114,469,o),
(114,422,cs),
(114,375,o),
(151,330,o),
(201,330,cs)
);
}
);
vertWidth = 0;
width = 392;
},
{
layerId = m002;
shapes = (
{
closed = 1;
nodes = (
(310,302,o),
(368,358,o),
(368,422,cs),
(368,486,o),
(311,539,o),
(247,539,cs),
(182,539,o),
(131,485,o),
(131,422,cs),
(131,361,o),
(179,302,o),
(246,302,cs)
);
}
);
vertWidth = 0;
width = 498;
}
);
unicode = 8226;
},
{
color = 6;
glyphname = asterisk;
layers = (
{
layerId = m01;
shapes = (
{
closed = 1;
nodes = (
(367,694,o),
(371,710,o),
(364,721,cs),
(358,729,o),
(343,733,o),
(326,722,cs),
(164,623,ls),
(144,609,o),
(139,593,o),
(146,583,cs),
(152,574,o),
(166,571,o),
(185,582,cs),
(347,682,ls)
);
},
{
closed = 1;
nodes = (
(320,573,o),
(335,575,o),
(343,584,cs),
(349,593,o),
(349,607,o),
(334,619,cs),
(206,720,ls),
(191,732,o),
(177,729,o),
(170,720,cs),
(162,712,o),
(162,696,o),
(177,684,cs),
(304,584,ls)
);
},
{
closed = 1;
nodes = (
(297,762,o),
(287,772,o),
(277,772,cs),
(265,772,o),
(251,762,o),
(247,740,cs),
(216,564,ls),
(213,544,o),
(221,535,o),
(232,532,cs),
(244,531,o),
(259,542,o),
(263,564,cs),
(293,740,ls)
);
}
);
vertWidth = 0;
width = 418;
},
{
layerId = m002;
shapes = (
{
closed = 1;
nodes = (
(436,677,o),
(448,706,o),
(430,733,cs),
(417,752,o),
(384,759,o),
(354,743,cs),
(196,645,l),
(170,626,o),
(156,599,o),
(171,574,cs),
(183,551,o),
(220,544,o),
(252,563,cs),
(405,658,ls)
);
},
{
closed = 1;
nodes = (
(359,546,o),
(393,551,o),
(410,571,cs),
(425,593,o),
(423,619,o),
(397,639,cs),
(272,738,ls),
(246,758,o),
(211,753,o),
(196,733,cs),
(178,712,o),
(181,684,o),
(209,663,cs),
(329,567,l)
);
},
{
closed = 1;
nodes = (
(374,770,o),
(350,794,o),
(322,794,cs),
(297,794,o),
(270,773,o),
(264,741,cs),
(234,573,ls),
(228,538,o),
(247,518,o),
(272,512,cs),
(298,506,o),
(331,526,o),
(339,563,cs),
(368,732,ls)
);
}
);
vertWidth = 0;
width = 512;
}
);
unicode = 42;
},
{
color = 6;
glyphname = numbersign;
layers = (
{
layerId = m01;
shapes = (
{
closed = 1;
nodes = (
(255,-1,o),
(273,10,o),
(278,33,cs),
(386,645,ls),
(390,664,o),
(377,675,o),
(361,675,cs),
(346,675,o),
(329,665,o),
(326,645,cs),
(217,33,ls),
(214,12,o),
(226,0,o),
(240,0,cs)
);
},
{
closed = 1;
nodes = (
(75,189,o),
(86,175,o),
(106,175,cs),
(753,175,ls),
(773,175,o),
(784,189,o),
(784,202,cs),
(784,215,o),
(775,228,o),
(753,228,cs),
(106,228,ls),
(84,228,o),
(75,215,o),
(75,202,cs)
);
},
{
closed = 1;
nodes = (
(562,0,o),
(579,11,o),
(582,33,cs),
(690,645,ls),
(694,664,o),
(681,674,o),
(666,675,cs),
(651,675,o),
(633,665,o),
(630,645,cs),
(522,33,ls),
(518,11,o),
(531,-1,o),
(546,0,cs)
);
},
{
closed = 1;
nodes = (
(124,469,o),
(134,456,o),
(156,456,cs),
(802,456,ls),
(823,456,o),
(834,469,o),
(834,482,cs),
(834,495,o),
(823,510,o),
(802,510,cs),
(156,510,ls),
(134,510,o),
(124,495,o),
(124,482,cs)
);
}
);
vertWidth = 0;
width = 925;
},
{
layerId = m002;
shapes = (
{
closed = 1;
nodes = (
(272,0,o),
(307,12,o),
(312,46,cs),
(413,621,ls),
(419,656,o),
(391,675,o),
(359,675,cs),
(329,675,o),
(304,662,o),
(298,630,cs),
(196,56,ls),
(189,19,o),
(213,0,o),
(244,0,cs)
);
},
{
closed = 1;
nodes = (
(62,182,o),
(87,158,o),
(121,158,cs),
(729,158,ls),
(764,158,o),
(788,182,o),
(788,210,cs),
(788,238,o),
(765,259,o),
(729,259,cs),
(121,259,ls),
(86,259,o),
(62,238,o),
(62,210,cs)
);
},
{
closed = 1;
nodes = (
(567,0,o),
(593,13,o),
(599,46,cs),
(700,621,ls),
(707,659,o),
(678,675,o),
(651,675,cs),
(623,675,o),
(589,663,o),
(583,631,cs),
(482,56,ls),
(475,15,o),
(506,0,o),
(538,0,cs)
);
},
{
closed = 1;
nodes = (
(108,446,o),
(132,424,o),
(168,424,cs),
(775,424,ls),
(810,424,o),
(835,446,o),
(835,474,cs),
(835,501,o),
(810,525,o),
(775,525,cs),
(168,525,ls),
(132,525,o),
(108,501,o),
(108,474,cs)
);
}
);
vertWidth = 0;
width = 898;
}
);
unicode = 35;
},
{
color = 6;
glyphname = slash;
layers = (
{
layerId = m01;
shapes = (
{
closed = 1;
nodes = (
(421,757,o),
(403,772,o),
(385,772,cs),
(372,772,o),
(359,765,o),
(350,745,cs),
(45,37,ls),
(36,14,o),
(52,0,o),
(71,0,cs),
(84,0,o),
(97,7,o),
(105,24,cs),
(410,732,ls)
);
}
);
vertWidth = 0;
width = 457;
},
{
layerId = m002;
shapes = (
{
closed = 1;
nodes = (
(531,741,o),
(494,772,o),
(459,772,cs),
(435,772,o),
(409,759,o),
(396,729,cs),
(81,14,ls),
(63,-27,o),
(97,-57,o),
(135,-57,cs),
(158,-57,o),
(184,-45,o),
(196,-19,cs),
(512,699,ls)
);
}
);
vertWidth = 0;
width = 551;
}
);
unicode = 47;
},
{
color = 6;
glyphname = backslash;
layers = (
{
layerId = m01;
shapes = (
{
closed = 1;
nodes = (
(118,765,o),
(105,772,o),
(91,772,cs),
(74,772,o),
(56,757,o),
(67,732,cs),
(372,24,ls),
(379,6,o),
(393,0,o),
(406,0,cs),
(424,0,o),
(441,15,o),
(431,37,cs),
(126,745,ls)
);
}
);
vertWidth = 0;
width = 457;
},
{
layerId = m002;
shapes = (
{
closed = 1;
nodes = (
(190,770,o),
(153,778,o),
(124,767,cs),
(97,758,o),
(81,722,o),
(99,682,cs),
(404,-19,ls),
(421,-56,o),
(460,-64,o),
(489,-52,cs),
(514,-42,o),
(529,-8,o),
(514,25,cs),
(208,729,ls)
);
}
);
vertWidth = 0;
width = 551;
}
);
unicode = 92;
},
{
color = 6;
glyphname = exclam.sc;
layers = (
{
layerId = m01;
shapes = (
{
closed = 1;
nodes = (
(97,-29,o),
(116,-10,o),
(116,11,cs),
(116,31,o),
(97,49,o),
(76,49,cs),
(55,49,o),
(39,30,o),
(39,11,cs),
(39,-8,o),
(55,-29,o),
(76,-29,cs)
);
},
{
closed = 1;
nodes = (
(187,454,o),
(176,470,o),
(159,470,cs),
(138,470,o),
(127,459,o),
(124,442,cs),
(88,244,ls),
(84,223,o),
(99,208,o),
(114,208,cs),
(132,208,o),
(144,220,o),
(147,236,cs),
(183,436,ls)
);
}
);
vertWidth = 0;
width = 239;
},
{
layerId = m002;
shapes = (
{
closed = 1;
nodes = (
(140,-56,o),
(172,-24,o),
(172,11,cs),
(172,45,o),
(140,76,o),
(105,76,cs),
(68,76,o),
(42,43,o),
(42,11,cs),
(42,-21,o),
(68,-56,o),
(105,-56,cs)
);
},
{
closed = 1;
nodes = (
(244,440,o),
(220,470,o),
(184,470,cs),
(153,470,o),
(125,453,o),
(119,419,cs),
(83,221,ls),
(76,183,o),
(106,153,o),
(139,153,cs),
(170,153,o),
(194,173,o),
(201,204,cs),
(236,404,ls)
);
}
);
vertWidth = 0;
width = 293;
}
);
metricLeft = exclam;
metricRight = exclam;
},
